{
.appVersion = "3087";
.formatVersion = 3;
customParameters = (
{
name = "Use Typo Metrics";
value = 1;
},
{
name = fsType;
value = (
);
}
);
date = "2024-02-28 15:04:34 +0000";
familyName = Interlope;
featurePrefixes = (
{
code = "languagesystem DFLT dflt;

languagesystem latn dflt;
languagesystem latn AZE;
languagesystem latn CRT;
languagesystem latn KAZ;
languagesystem latn TAT;
languagesystem latn TRK;";
name = Languagesystems;
}
);
features = (
{
automatic = 1;
code = "feature locl;
feature ss01;
feature ss02;
feature ss03;
feature ss04;
feature ss05;
feature ss06;";
tag = aalt;
},
{
automatic = 1;
code = "lookup locl_latn_0 {
	script latn;
	language AZE;
	sub i by i;
	language CRT;
	sub i by i;
	language KAZ;
	sub i by i;
	language TAT;
	sub i by i;
	language TRK;
	sub i by i;
} locl_latn_0;";
tag = locl;
},
{
code = "sub b f by bf;
sub b h by bh;
sub b i by bi;
sub b b by bb;
sub b j by bj;
sub b k by bk;
sub b l by bl;
sub b m by bm;
sub b p by bp;
sub b r by br;
sub b s by bs;
sub b n by bn;
sub b v by bv;
sub b w by bw;
sub b y by b_y;
sub b z by bz;
sub w b by wb;
sub w f by wf;
sub w h by wh;
sub w i by wi;
sub w j by wj;
sub w k by wk;
sub w l by wl;
sub w m by wm;
sub w n by wn;
sub w p by wp;
sub w r by wr;
sub w s by ws;
sub w v by wv;
sub w w by ww;
sub w y by wy;
sub w z by wz;
sub t t by tt;
sub v b by vb;
sub v f by vf;
sub v h by vh;
sub v i by vi;
sub v j by vj;
sub v k by vk;
sub v l by vl;
sub v m by vm;
sub v n by vn;
sub v p by vp;
sub v r by vr;
sub v s by vs;
sub v v by vv;
sub v w by vw;
sub v z by vz;
sub i t by it;
sub o b by ob;
sub o f by of;
sub o h by oh;
sub o j by oj;
sub o k by ok;
sub o l by ol;
sub o m by om;
sub o n by on;
sub o p by op;
sub o r by or;
sub oacute r by oacuter;
sub o s by os;
sub o v by ov;
sub o w by ow;
sub o y by oy;
sub o z by oz;
sub o i t by oit;
sub o b s by obs;
sub o w s by ows;
sub o w l by _owl;
sub o w i by owi;
sub o icircumflex by oicircumflex;
sub o idieresis by oidieseris;

glyphs = (
{
glyphname = A;
kernLeft = A;
kernRight = A;
layers = (
{
layerId = m01;
shapes = (
{
closed = 1;
nodes = (
(616,32,o),
(643,-12,o),
(699,-12,cs),
(874,-12,o),
(995,211,o),
(995,312,cs),
(995,350,o),
(973,365,o),
(948,365,cs),
(895,365,o),
(828,256,o),
(795,171,c),
(804,171,l),
(842,255,o),
(894,308,o),
(927,308,cs),
(942,308,o),
(956,296,o),
(956,267,cs),
(956,208,o),
(883,48,o),
(753,48,cs),
(711,48,o),
(680,73,o),
(680,143,cs),
(680,184,o),
(690,238,o),
(706,297,c),
(760,313,o),
(821,343,o),
(863,390,c),
(855,395,l),
(809,354,o),
(767,333,o),
(714,324,c),
(735,394,o),
(763,470,o),
(795,544,c),
(928,709,o),
(1023,855,o),
(1023,893,cs),
(1023,905,o),
(1017,912,o),
(1007,912,cs),
(961,912,o),
(864,748,o),
(766,554,c),
(698,475,o),
(619,388,o),
(541,313,c),
(495,309,o),
(433,286,o),
(339,218,c),
(344,210,l),
(406,250,o),
(451,269,o),
(506,277,c),
(379,148,o),
(240,50,o),
(164,50,cs),
(110,50,o),
(94,99,o),
(94,124,cs),
(94,230,o),
(179,300,o),
(241,300,cs),
(266,300,o),
(274,284,o),
(274,266,cs),
(274,243,o),
(246,198,o),
(183,154,c),
(188,146,l),
(269,204,o),
(313,252,o),
(313,298,cs),
(313,333,o),
(290,356,o),
(259,356,cs),
(168,356,o),
(36,184,o),
(36,69,cs),
(36,8,o),
(76,-12,o),
(112,-12,cs),
(229,-12,o),
(400,120,o),
(562,283,c),
(582,284,o),
(606,284,o),
(632,285,cs),
(640,285,o),
(649,286,o),
(659,287,c),
(633,208,o),
(616,138,o),
(616,90,cs)
);
},
{
closed = 1;
nodes = (
(638,361,o),
(683,411,o),
(725,460,c),
(704,412,o),
(685,364,o),
(669,318,c),
(646,315,o),
(621,315,o),
(593,314,c)
);
},
{
closed = 1;
nodes = (
(903,779,o),
(976,899,o),
(1002,899,cs),
(1007,899,o),
(1009,896,o),
(1009,887,cs),
(1009,860,o),
(937,756,o),
(833,629,c)
);
}
);
userData = {
com.schriftgestaltung.Glyphs.lastChange = "2025-09-24 11:32:04 +0000";
};
width = 995;
}
);
unicode = 65;
},
{
glyphname = Aacute;
kernLeft = A;
kernRight = A;
layers = (
{
layerId = m01;
shapes = (
{
closed = 1;
nodes = (
(616,32,o),
(643,-12,o),
(699,-12,cs),
(874,-12,o),
(995,211,o),
(995,312,cs),
(995,350,o),
(973,365,o),
(948,365,cs),
(895,365,o),
(828,256,o),
(795,171,c),
(804,171,l),
(842,255,o),
(894,308,o),
(927,308,cs),
(942,308,o),
(956,296,o),
(956,267,cs),
(956,208,o),
(883,48,o),
(753,48,cs),
(711,48,o),
(680,73,o),
(680,143,cs),
(680,184,o),
(690,238,o),
(706,297,c),
(760,313,o),
(821,343,o),
(863,390,c),
(855,395,l),
(809,354,o),
(767,333,o),
(714,324,c),
(735,394,o),
(763,470,o),
(795,544,c),
(928,709,o),
(1023,855,o),
(1023,893,cs),
(1023,905,o),
(1017,912,o),
(1007,912,cs),
(961,912,o),
(864,748,o),
(766,554,c),
(698,475,o),
(619,388,o),
(541,313,c),
(495,309,o),
(433,286,o),
(339,218,c),
(344,210,l),
(406,250,o),
(451,269,o),
(506,277,c),
(379,148,o),
(240,50,o),
(164,50,cs),
(110,50,o),
(94,99,o),
(94,124,cs),
(94,230,o),
(179,300,o),
(241,300,cs),
(266,300,o),
(274,284,o),
(274,266,cs),
(274,243,o),
(246,198,o),
(183,154,c),
(188,146,l),
(269,204,o),
(313,252,o),
(313,298,cs),
(313,333,o),
(290,356,o),
(259,356,cs),
(168,356,o),
(36,184,o),
(36,69,cs),
(36,8,o),
(76,-12,o),
(112,-12,cs),
(229,-12,o),
(400,120,o),
(562,283,c),
(582,284,o),
(606,284,o),
(632,285,cs),
(640,285,o),
(649,286,o),
(659,287,c),
(633,208,o),
(616,138,o),
(616,90,cs)
);
},
{
closed = 1;
nodes = (
(638,361,o),
(683,411,o),
(725,460,c),
(704,412,o),
(685,364,o),
(669,318,c),
(646,315,o),
(621,315,o),
(593,314,c)
);
},
{
closed = 1;
nodes = (
(903,779,o),
(976,899,o),
(1002,899,cs),
(1007,899,o),
(1009,896,o),
(1009,887,cs),
(1009,860,o),
(937,756,o),
(833,629,c)
);
},
{
pos = (817,450);
ref = acutecomb;
}
);
userData = {
com.schriftgestaltung.Glyphs.lastChange = "2025-09-27 09:04:32 +0000";
};
width = 995;
}
);
unicode = 193;
},
{
glyphname = Aring;
kernLeft = A;
kernRight = A;
layers = (
{
layerId = m01;
shapes = (
{
closed = 1;
nodes = (
(616,32,o),
(643,-12,o),
(699,-12,cs),
(874,-12,o),
(995,211,o),
(995,312,cs),
(995,350,o),
(973,365,o),
(948,365,cs),
(895,365,o),
(828,256,o),
(795,171,c),
(804,171,l),
(842,255,o),
(894,308,o),
(927,308,cs),
(942,308,o),
(956,296,o),
(956,267,cs),
(956,208,o),
(883,48,o),
(753,48,cs),
(711,48,o),
(680,73,o),
(680,143,cs),
(680,184,o),
(690,238,o),
(706,297,c),
(760,313,o),
(821,343,o),
(863,390,c),
(855,395,l),
(809,354,o),
(767,333,o),
(714,324,c),
(735,394,o),
(763,470,o),
(795,544,c),
(928,709,o),
(1023,855,o),
(1023,893,cs),
(1023,905,o),
(1017,912,o),
(1007,912,cs),
(961,912,o),
(864,748,o),
(766,554,c),
(698,475,o),
(619,388,o),
(541,313,c),
(495,309,o),
(433,286,o),
(339,218,c),
(344,210,l),
(406,250,o),
(451,269,o),
(506,277,c),
(379,148,o),
(240,50,o),
(164,50,cs),
(110,50,o),
(94,99,o),
(94,124,cs),
(94,230,o),
(179,300,o),
(241,300,cs),
(266,300,o),
(274,284,o),
(274,266,cs),
(274,243,o),
(246,198,o),
(183,154,c),
(188,146,l),
(269,204,o),
(313,252,o),
(313,298,cs),
(313,333,o),
(290,356,o),
(259,356,cs),
(168,356,o),
(36,184,o),
(36,69,cs),
(36,8,o),
(76,-12,o),
(112,-12,cs),
(229,-12,o),
(400,120,o),
(562,283,c),
(582,284,o),
(606,284,o),
(632,285,cs),
(640,285,o),
(649,286,o),
(659,287,c),
(633,208,o),
(616,138,o),
(616,90,cs)
);
},
{
closed = 1;
nodes = (
(638,361,o),
(683,411,o),
(725,460,c),
(704,412,o),
(685,364,o),
(669,318,c),
(646,315,o),
(621,315,o),
(593,314,c)
);
},
{
closed = 1;
nodes = (
(903,779,o),
(976,899,o),
(1002,899,cs),
(1007,899,o),
(1009,896,o),
(1009,887,cs),
(1009,860,o),
(937,756,o),
(833,629,c)
);
},
{
closed = 1;
nodes = (
(1161,1087,o),
(1177,1073,o),
(1177,1055,cs),
(1177,1008,o),
(1083,940,o),
(1028,940,cs),
(1005,940,o),
(988,948,o),
(988,968,cs),
(988,1015,o),
(1072,1087,o),
(1136,1087,cs)
);
},
{
closed = 1;
nodes = (
(1079,1063,o),
(1024,1023,o),
(1024,988,cs),
(1024,975,o),
(1035,968,o),
(1049,968,cs),
(1086,968,o),
(1142,1005,o),
(1142,1039,cs),
(1142,1052,o),
(1131,1063,o),
(1112,1063,cs)
);
}
);
userData = {
com.schriftgestaltung.Glyphs.lastChange = "2025-09-27 08:55:14 +0000";
};
width = 995;
}
);
unicode = 197;
},
{
glyphname = AE;
kernLeft = A;
kernRight = E;
layers = (
{
layerId = m01;
shapes = (
{
closed = 1;
nodes = (
(436,279,o),
(488,298,o),
(546,306,c),
(396,165,o),
(243,46,o),
(159,46,cs),
(107,46,o),
(88,92,o),
(88,117,cs),
(88,224,o),
(179,300,o),
(241,300,cs),
(266,300,o),
(274,284,o),
(274,266,cs),
(274,243,o),
(246,198,o),
(183,154,c),
(188,146,l),
(269,204,o),
(313,252,o),
(313,298,cs),
(313,333,o),
(290,356,o),
(259,356,cs),
(168,356,o),
(36,184,o),
(36,69,cs),
(36,8,o),
(76,-12,o),
(112,-12,cs),
(253,-12,o),
(442,135,o),
(612,312,c),
(637,312,o),
(692,311,o),
(727,317,c),
(703,235,o),
(695,208,o),
(695,179,cs),
(694,49,o),
(865,-11,o),
(1104,-11,cs),
(1292,-11,o),
(1622,115,o),
(1622,246,cs),
(1622,305,o),
(1583,316,o),
(1531,316,cs),
(1465,316,o),
(1372,282,o),
(1333,238,c),
(1295,235,o),
(1272,217,o),
(1246,197,c),
(1254,191,l),
(1282,215,o),
(1304,223,o),
(1323,225,c),
(1317,216,o),
(1313,206,o),
(1313,197,cs),
(1313,174,o),
(1332,157,o),
(1354,157,cs),
(1378,157,o),
(1393,172,o),
(1393,195,cs),
(1393,220,o),
(1367,235,o),
(1348,238,c),
(1382,271,o),
(1457,300,o),
(1504,300,cs),
(1537,300,o),
(1564,289,o),
(1564,262,cs),
(1564,179,o),
(1304,17,o),
(1052,17,cs),
(863,17,o),
(764,73,o),
(764,161,cs),
(764,305,o),
(945,438,o),
(1118,494,c),
(1149,465,o),
(1219,444,o),
(1297,444,cs),
(1359,444,o),
(1476,464,o),
(1476,528,cs),
(1476,563,o),
(1418,575,o),
(1380,575,cs),
(1308,575,o),
(1229,566,o),
(1152,549,c),
(1154,564,o),
(1161,582,o),
(1172,599,c),
(1516,613,o),
(1827,770,o),
(1827,855,cs),
(1827,891,o),
(1784,909,o),
(1723,912,cs),
(1539,920,o),
(1198,803,o),
(1120,618,c),
(1014,624,o),
(958,668,o),
(939,721,c),
(991,802,o),
(1023,865,o),
(1023,893,cs),
(1023,905,o),
(1017,912,o),
(1007,912,cs),
(963,912,o),
(897,783,o),
(834,624,c),
(760,534,o),
(673,433,o),
(580,343,c),
(532,340,o),
(465,317,o),
(369,247,c),
(374,239,l)
);
},
{
closed = 1;
nodes = (
(697,403,o),
(750,464,o),
(796,524,c),
(776,467,o),
(756,408,o),
(738,352,c),
(710,347,o),
(679,345,o),
(642,344,c)
);
},
{
closed = 1;
nodes = (
(804,418,o),
(855,561,o),
(873,626,c),
(893,652,o),
(910,678,o),
(926,701,c),
(951,645,o),
(1015,601,o),
(1112,598,c),
(1106,580,o),
(1103,560,o),
(1103,540,cs),
(1103,536,l),
(994,506,o),
(859,438,o),
(784,330,c)
);
},
{
closed = 1;
nodes = (
(902,719,o),
(909,737,o),
(914,752,c),
(914,744,o),
(915,736,o),
(917,729,c),
(896,701,l)
);
},
{
closed = 1;
nodes = (
(923,815,o),
(978,899,o),
(1002,899,cs),
(1007,899,o),
(1009,896,o),
(1009,887,cs),
(1009,865,o),
(980,815,o),
(932,748,c)
);
},
{
closed = 1;
nodes = (
(1249,534,o),
(1338,554,o),
(1395,554,cs),
(1423,554,o),
(1438,546,o),
(1438,534,cs),
(1438,506,o),
(1359,469,o),
(1274,469,cs),
(1218,469,o),
(1175,481,o),
(1158,506,c)
);
},
{
closed = 1;
nodes = (
(1274,744,o),
(1519,895,o),
(1706,895,cs),
(1739,895,o),
(1755,884,o),
(1755,863,cs),
(1755,803,o),
(1449,636,o),
(1184,619,c)
);
},
{
closed = 1;
nodes = (
(1330,212,o),
(1332,218,o),
(1336,224,c),
(1348,221,o),
(1355,211,o),
(1355,203,cs),
(1355,194,o),
(1349,190,o),
(1343,190,cs),
(1336,190,o),
(1330,198,o),
(1330,205,cs)
);
}
);
userData = {
com.schriftgestaltung.Glyphs.lastChange = "2025-09-23 10:46:54 +0000";
};
width = 1632;
}
);
metricLeft = "=A";
metricRight = "=E";
unicode = 198;
},
{
glyphname = B;
kernLeft = B;
kernRight = B;
layers = (
{
layerId = m01;
shapes = (
{
closed = 1;
nodes = (
(248,266,o),
(282,230,o),
(321,186,c),
(453,370,o),
(575,698,o),
(713,842,c),
(703,842,o),
(694,842,o),
(684,842,cs),
(626,842,o),
(573,829,o),
(535,807,c),
(527,736,o),
(492,675,o),
(440,675,cs),
(428,675,o),
(420,684,o),
(420,695,cs),
(420,732,o),
(456,784,o),
(526,822,c),
(528,839,o),
(529,857,o),
(528,875,c),
(535,875,l),
(537,860,o),
(537,844,o),
(536,829,c),
(588,854,o),
(655,872,o),
(739,872,cs),
(746,872,l),
(777,897,o),
(809,912,o),
(843,912,cs),
(889,912,o),
(933,891,o),
(977,843,c),
(969,836,l),
(939,863,o),
(911,883,o),
(875,883,cs),
(852,883,o),
(829,877,o),
(808,866,c),
(933,844,o),
(996,760,o),
(996,674,cs),
(996,580,o),
(926,504,o),
(842,459,c),
(909,413,o),
(951,346,o),
(951,272,cs),
(951,84,o),
(762,-12,o),
(602,-12,cs),
(449,-12,o),
(371,41,o),
(315,94,c),
(256,30,o),
(189,-12,o),
(112,-12,cs),
(76,-12,o),
(36,8,o),
(36,69,cs),
(36,184,o),
(139,266,o),
(200,266,cs)
);
},
{
closed = 1;
nodes = (
(66,78,o),
(92,53,o),
(143,53,cs),
(190,53,o),
(235,84,o),
(279,132,c),
(241,171,o),
(210,202,o),
(158,202,cs),
(114,202,o),
(66,166,o),
(66,118,cs)
);
},
{
closed = 1;
nodes = (
(413,81,o),
(486,15,o),
(613,15,cs),
(739,15,o),
(886,107,o),
(886,276,cs),
(886,353,o),
(856,408,o),
(813,444,c),
(762,421,o),
(710,409,o),
(665,409,cs),
(588,409,o),
(544,420,o),
(526,443,c),
(474,336,o),
(419,228,o),
(356,144,c)
);
},
{
closed = 1;
nodes = (
(467,725,o),
(470,722,o),
(474,722,cs),
(488,722,o),
(510,754,o),
(521,799,c),
(487,779,o),
(467,754,o),
(467,733,cs)
);
},
{
closed = 1;
nodes = (
(545,438,o),
(587,431,o),
(635,431,cs),
(677,431,o),
(729,444,o),
(776,468,c),
(736,490,o),
(689,500,o),
(644,500,cs),
(580,500,o),
(545,470,o),
(545,456,cs)
);
},
{
closed = 1;
nodes = (
(577,518,o),
(598,521,o),
(626,521,cs),
(691,521,o),
(752,507,o),
(802,482,c),
(869,522,o),
(924,585,o),
(924,663,cs),
(924,740,o),
(868,811,o),
(762,834,c),
(690,769,o),
(626,646,o),
(561,513,c)
);
}
);
userData = {
com.schriftgestaltung.Glyphs.lastChange = "2025-09-23 10:46:54 +0000";
};
width = 996;
}
);
metricLeft = "=A";
unicode = 66;
},
{
glyphname = C;
kernLeft = C;
kernRight = C;
layers = (
{
layerId = m01;
shapes = (
{
closed = 1;
nodes = (
(63,270,o),
(90,343,o),
(135,420,c),
(44,431,o),
(1,482,o),
(0,551,cs),
(-1,637,o),
(74,718,o),
(157,768,c),
(162,795,o),
(186,830,o),
(287,876,c),
(296,868,l),
(250,844,o),
(210,820,o),
(197,790,c),
(238,809,o),
(279,821,o),
(310,821,cs),
(334,821,o),
(351,813,o),
(351,793,cs),
(351,762,o),
(292,703,o),
(218,703,cs),
(185,703,o),
(159,717,o),
(156,750,c),
(96,703,o),
(50,636,o),
(50,568,cs),
(50,500,o),
(86,465,o),
(154,450,c),
(301,674,o),
(594,912,o),
(816,912,cs),
(898,912,o),
(949,869,o),
(949,798,cs),
(949,598,o),
(642,427,o),
(217,418,c),
(181,346,o),
(161,276,o),
(161,218,cs),
(161,96,o),
(216,15,o),
(359,15,cs),
(586,15,o),
(750,168,o),
(750,285,cs),
(750,316,o),
(729,332,o),
(710,332,cs),
(665,332,o),
(621,292,o),
(580,254,c),
(571,263,l),
(613,302,o),
(675,371,o),
(756,371,cs),
(804,371,o),
(829,341,o),
(829,310,cs),
(829,156,o),
(579,-12,o),
(342,-12,cs),
(145,-12,o),
(63,82,o),
(63,210,cs)
);
},
{
closed = 1;
nodes = (
(193,746,o),
(223,742,o),
(244,742,cs),
(289,742,o),
(336,774,o),
(336,794,cs),
(336,804,o),
(324,810,o),
(309,810,cs),
(273,810,o),
(233,797,o),
(194,774,c),
(194,772,ls)
);
},
{
closed = 1;
nodes = (
(245,441,o),
(262,441,o),
(281,441,cs),
(549,446,o),
(894,636,o),
(894,811,cs),
(894,859,o),
(857,888,o),
(799,888,cs),
(586,888,o),
(343,658,o),
(229,441,c)
);
}
);
userData = {
com.schriftgestaltung.Glyphs.lastChange = "2025-09-28 13:26:52 +0000";
};
width = 841;
}
);
unicode = 67;
},
{
glyphname = Ccedilla;
layers = (
{
layerId = m01;
shapes = (
{
ref = C;
},
{
closed = 1;
nodes = (
(320,-238,o),
(437,-182,o),
(437,-118,cs),
(437,-96,o),
(426,-86,o),
(404,-86,cs),
(369,-86,o),
(317,-133,o),
(309,-135,cs),
(307,-135,o),
(307,-134,o),
(307,-131,cs),
(307,-124,o),
(311,-111,o),
(312,-107,cs),
(315,-97,o),
(348,-43,o),
(399,6,c),
(437,6,l),
(396,-33,o),
(346,-81,o),
(336,-97,c),
(384,-53,o),
(410,-48,o),
(434,-48,cs),
(462,-48,o),
(477,-74,o),
(477,-97,cs),
(477,-175,o),
(310,-261,o),
(282,-266,c),
(282,-253,l)
);
}
);
userData = {
com.schriftgestaltung.Glyphs.lastChange = "2025-09-23 10:46:54 +0000";
};
width = 841;
}
);
unicode = 199;
},
{
glyphname = D;
kernLeft = D;
kernRight = D;
layers = (
{
layerId = m01;
shapes = (
{
closed = 1;
nodes = (
(925,691,o),
(857,803,o),
(726,834,c),
(578,700,o),
(469,328,o),
(305,125,c),
(345,71,o),
(400,22,o),
(508,22,cs),
(717,22,o),
(925,268,o),
(925,544,cs)
);
},
{
closed = 1;
nodes = (
(0,184,o),
(103,266,o),
(164,266,cs),
(216,266,o),
(243,225,o),
(273,175,c),
(413,356,o),
(540,695,o),
(679,841,c),
(669,842,o),
(659,842,o),
(648,842,cs),
(590,842,o),
(537,829,o),
(499,807,c),
(491,736,o),
(456,675,o),
(404,675,cs),
(392,675,o),
(384,684,o),
(384,695,cs),
(384,732,o),
(419,785,o),
(489,823,c),
(491,840,o),
(493,857,o),
(492,875,c),
(499,875,l),
(501,860,o),
(501,844,o),
(500,829,c),
(552,854,o),
(619,872,o),
(703,872,cs),
(711,872,l),
(743,897,o),
(775,912,o),
(807,912,cs),
(853,912,o),
(897,891,o),
(941,843,c),
(933,836,l),
(903,863,o),
(875,883,o),
(839,883,cs),
(814,883,o),
(791,877,o),
(769,865,c),
(924,829,o),
(1004,670,o),
(1004,542,cs),
(1004,235,o),
(716,-12,o),
(472,-12,cs),
(354,-12,o),
(297,29,o),
(260,75,c),
(205,22,o),
(145,-12,o),
(76,-12,cs),
(40,-12,o),
(0,8,o),
(0,69,cs)
);
},
{
closed = 1;
nodes = (
(30,78,o),
(53,57,o),
(100,57,cs),
(144,57,o),
(186,81,o),
(228,123,c),
(200,168,o),
(179,207,o),
(122,207,cs),
(78,207,o),
(30,166,o),
(30,118,cs)
);
},
{
closed = 1;
nodes = (
(431,725,o),
(434,722,o),
(438,722,cs),
(452,722,o),
(474,754,o),
(485,799,c),
(451,779,o),
(431,754,o),
(431,733,cs)
);
}
);
userData = {
com.schriftgestaltung.Glyphs.lastChange = "2025-09-28 13:27:13 +0000";
};
width = 954;
}
);
unicode = 68;
},
{
glyphname = E;
kernLeft = E;
kernRight = E;
layers = (
{
layerId = m01;
shapes = (
{
closed = 1;
nodes = (
(474,868,l),
(429,844,o),
(390,822,o),
(377,793,c),
(413,811,o),
(455,821,o),
(491,821,cs),
(513,821,o),
(528,813,o),
(528,793,cs),
(528,762,o),
(470,703,o),
(397,703,cs),
(372,703,o),
(351,711,o),
(341,729,c),
(330,714,o),
(323,697,o),
(323,678,cs),
(323,646,o),
(354,621,o),
(416,621,cs),
(426,621,l),
(508,804,o),
(846,920,o),
(1028,912,cs),
(1089,909,o),
(1132,891,o),
(1132,855,cs),
(1132,773,o),
(840,623,o),
(469,600,c),
(459,582,o),
(454,564,o),
(454,547,c),
(532,566,o),
(611,575,o),
(685,575,cs),
(724,575,o),
(781,563,o),
(781,528,cs),
(781,464,o),
(664,444,o),
(602,444,cs),
(523,444,o),
(463,464,o),
(431,492,c),
(261,426,o),
(87,307,o),
(87,153,cs),
(87,73,o),
(168,17,o),
(357,17,cs),
(609,17,o),
(869,179,o),
(869,262,cs),
(869,289,o),
(842,300,o),
(809,300,cs),
(762,300,o),
(688,271,o),
(653,238,c),
(672,235,o),
(698,220,o),
(698,195,cs),
(698,172,o),
(683,157,o),
(660,157,cs),
(637,157,o),
(618,174,o),
(618,197,cs),
(618,206,o),
(622,216,o),
(628,225,c),
(609,223,o),
(587,215,o),
(559,191,c),
(552,197,l),
(577,217,o),
(600,235,o),
(638,238,c),
(678,282,o),
(770,316,o),
(836,316,cs),
(888,316,o),
(927,305,o),
(927,246,cs),
(927,115,o),
(597,-11,o),
(409,-11,cs),
(170,-11,o),
(-1,49,o),
(0,179,cs),
(1,351,o),
(194,476,o),
(408,536,c),
(408,540,ls),
(408,560,o),
(411,580,o),
(418,598,c),
(376,598,ls),
(306,596,o),
(274,623,o),
(272,656,cs),
(270,700,o),
(297,739,o),
(336,768,c),
(340,794,o),
(364,829,o),
(466,876,c)
);
},
{
closed = 1;
nodes = (
(383,744,o),
(405,742,o),
(423,742,cs),
(468,742,o),
(512,771,o),
(512,791,cs),
(512,801,o),
(504,804,o),
(493,804,cs),
(471,804,o),
(416,788,o),
(375,760,c)
);
},
{
closed = 1;
nodes = (
(485,478,o),
(526,469,o),
(579,469,cs),
(664,469,o),
(743,506,o),
(743,534,cs),
(743,546,o),
(729,554,o),
(701,554,cs),
(644,554,o),
(557,537,o),
(466,505,c)
);
},
{
closed = 1;
nodes = (
(772,647,o),
(1060,804,o),
(1060,863,cs),
(1060,884,o),
(1044,895,o),
(1012,895,cs),
(822,895,o),
(570,745,o),
(484,624,c)
);
},
{
closed = 1;
nodes = (
(635,198,o),
(641,190,o),
(648,190,cs),
(654,190,o),
(660,194,o),
(660,203,cs),
(660,211,o),
(653,221,o),
(642,224,c),
(637,218,o),
(635,212,o),
(635,205,cs)
);
}
);
userData = {
com.schriftgestaltung.Glyphs.lastChange = "2025-09-28 13:27:30 +0000";
};
width = 937;
}
);
unicode = 69;
},
{
glyphname = F;
kernLeft = F;
kernRight = F;
layers = (
{
layerId = m01;
shapes = (
{
closed = 1;
nodes = (
(701,800,l),
(806,842,o),
(904,912,o),
(1011,912,cs),
(1063,912,o),
(1099,877,o),
(1099,834,cs),
(1099,786,o),
(1054,758,o),
(1004,758,cs),
(973,758,o),
(964,769,o),
(958,775,c),
(965,781,l),
(972,772,o),
(989,767,o),
(1002,767,cs),
(1045,767,o),
(1072,783,o),
(1072,816,cs),
(1072,852,o),
(1024,876,o),
(984,876,cs),
(896,876,o),
(793,811,o),
(697,765,c),
(684,692,o),
(644,590,o),
(589,484,c),
(617,477,o),
(648,472,o),
(681,472,cs),
(780,472,o),
(896,500,o),
(921,577,c),
(907,571,o),
(894,567,o),
(879,567,cs),
(818,567,o),
(797,594,o),
(797,620,cs),
(797,657,o),
(827,675,o),
(864,675,cs),
(910,675,o),
(935,646,o),
(942,614,c),
(980,633,o),
(1011,672,o),
(1026,693,c),
(1034,685,l),
(1012,656,o),
(980,616,o),
(944,591,c),
(940,478,o),
(835,430,o),
(721,428,cs),
(667,428,o),
(618,440,o),
(574,456,c),
(446,227,o),
(246,-12,o),
(76,-12,cs),
(40,-12,o),
(0,8,o),
(0,69,cs),
(0,184,o),
(132,356,o),
(223,356,cs),
(254,356,o),
(277,333,o),
(277,298,cs),
(277,252,o),
(233,204,o),
(152,146,c),
(147,154,l),
(210,198,o),
(238,243,o),
(238,266,cs),
(238,284,o),
(230,300,o),
(205,300,cs),
(143,300,o),
(45,231,o),
(45,117,cs),
(45,79,o),
(68,59,o),
(107,59,cs),
(230,59,o),
(409,271,o),
(524,477,c),
(495,491,o),
(469,505,o),
(445,518,c),
(422,480,o),
(390,450,o),
(349,450,cs),
(323,450,o),
(299,465,o),
(299,495,cs),
(299,544,o),
(333,570,o),
(374,570,cs),
(392,570,o),
(417,559,o),
(446,544,c),
(451,552,o),
(455,560,o),
(459,569,c),
(467,565,l),
(464,557,o),
(460,547,o),
(456,539,c),
(480,526,o),
(507,513,o),
(537,501,c),
(585,588,o),
(619,673,o),
(631,738,c),
(602,727,o),
(573,721,o),
(546,721,cs),
(467,721,o),
(421,757,o),
(421,799,cs),
(421,876,o),
(522,912,o),
(574,912,cs),
(660,912,o),
(701,883,o),
(701,811,cs)
);
},
{
closed = 1;
nodes = (
(317,498,o),
(338,486,o),
(366,486,cs),
(393,486,o),
(415,502,o),
(433,524,c),
(402,539,o),
(377,549,o),
(354,549,cs),
(330,549,o),
(317,536,o),
(317,521,cs)
);
},
{
closed = 1;
nodes = (
(469,788,o),
(506,768,o),
(560,768,cs),
(586,768,o),
(612,772,o),
(637,778,c),
(637,787,ls),
(639,841,o),
(608,884,o),
(541,884,cs),
(508,884,o),
(469,863,o),
(469,830,cs)
);
},
{
closed = 1;
nodes = (
(845,626,o),
(857,603,o),
(899,603,cs),
(908,603,o),
(917,605,o),
(925,607,c),
(925,649,o),
(896,662,o),
(874,662,cs),
(856,662,o),
(845,651,o),
(845,636,cs)
);
}
);
userData = {
com.schriftgestaltung.Glyphs.lastChange = "2025-09-23 10:46:54 +0000";
};
width = 523;
}
);
unicode = 70;
},
{
glyphname = G;
kernLeft = G;
kernRight = G;
layers = (
{
layerId = m01;
shapes = (
{
closed = 1;
nodes = (
(268,875,l),
(257,834,o),
(283,816,o),
(308,809,c),
(382,870,o),
(462,912,o),
(516,912,cs),
(539,912,o),
(549,899,o),
(549,883,cs),
(549,833,o),
(464,776,o),
(366,776,cs),
(354,776,o),
(337,778,o),
(322,783,c),
(243,712,o),
(184,636,o),
(184,563,cs),
(184,534,o),
(192,506,o),
(213,495,c),
(375,711,o),
(759,912,o),
(935,912,cs),
(986,912,o),
(1014,888,o),
(1014,847,cs),
(1014,678,o),
(495,411,o),
(252,411,cs),
(243,411,o),
(234,412,o),
(225,413,c),
(208,388,o),
(202,353,o),
(202,326,cs),
(202,258,o),
(257,210,o),
(366,210,cs),
(451,210,o),
(559,248,o),
(652,289,c),
(765,426,o),
(854,532,o),
(911,532,cs),
(933,532,o),
(938,518,o),
(938,510,cs),
(938,456,o),
(842,373,o),
(719,302,c),
(662,228,o),
(596,140,o),
(524,55,c),
(567,44,o),
(608,35,o),
(651,35,cs),
(737,35,o),
(806,89,o),
(821,145,c),
(783,150,o),
(763,177,o),
(763,199,cs),
(763,222,o),
(779,235,o),
(798,235,cs),
(818,235,o),
(843,217,o),
(843,167,cs),
(843,164,o),
(843,161,o),
(842,158,c),
(858,159,o),
(873,170,o),
(882,179,c),
(886,172,l),
(873,158,o),
(855,148,o),
(841,145,c),
(827,81,o),
(748,11,o),
(619,11,cs),
(568,11,o),
(528,14,o),
(492,18,c),
(316,-185,o),
(112,-372,o),
(-71,-372,cs),
(-161,-372,o),
(-216,-330,o),
(-216,-244,cs),
(-216,-31,o),
(47,102,o),
(261,102,cs),
(342,102,o),
(408,86,o),
(467,71,c),
(521,130,o),
(571,192,o),
(618,249,c),
(510,199,o),
(396,163,o),
(312,163,cs),
(194,163,o),
(143,212,o),
(143,307,cs),
(143,348,o),
(156,390,o),
(176,431,c),
(141,451,o),
(117,487,o),
(117,526,cs),
(117,608,o),
(197,715,o),
(291,795,c),
(264,811,o),
(244,837,o),
(258,878,c)
);
},
{
closed = 1;
nodes = (
(-186,-260,o),
(-158,-307,o),
(-94,-307,cs),
(87,-307,o),
(267,-147,o),
(427,26,c),
(372,34,o),
(318,42,o),
(239,42,cs),
(-30,42,o),
(-186,-93,o),
(-186,-217,cs)
);
},
{
closed = 1;
nodes = (
(264,472,o),
(279,471,o),
(303,471,cs),
(516,471,o),
(984,751,o),
(984,861,cs),
(984,883,o),
(970,896,o),
(936,896,cs),
(803,896,o),
(392,696,o),
(254,475,c)
);
},
{
closed = 1;
nodes = (
(459,806,o),
(537,850,o),
(537,888,cs),
(537,896,o),
(530,900,o),
(520,900,cs),
(476,900,o),
(408,860,o),
(346,805,c)
);
},
{
closed = 1;
nodes = (
(849,397,o),
(924,464,o),
(924,504,cs),
(924,515,o),
(917,518,o),
(910,518,cs),
(886,518,o),
(828,444,o),
(747,339,c)
);
},
{
closed = 1;
nodes = (
(775,181,o),
(790,162,o),
(824,158,c),
(824,162,o),
(824,166,o),
(824,170,cs),
(824,199,o),
(812,220,o),
(792,220,cs),
(783,220,o),
(775,212,o),
(775,204,cs)
);
}
);
userData = {
com.schriftgestaltung.Glyphs.lastChange = "2025-09-28 13:27:42 +0000";
};
width = 902;
}
);
unicode = 71;
},
{
glyphname = H;
kernLeft = H;
kernRight = H;
layers = (
{
layerId = m01;
shapes = (
{
closed = 1;
nodes = (
(1135,687,o),
(935,570,o),
(685,474,c),
(609,351,o),
(552,226,o),
(552,156,cs),
(552,80,o),
(593,48,o),
(642,48,cs),
(747,48,o),
(819,149,o),
(819,207,cs),
(819,243,o),
(791,263,o),
(756,262,cs),
(732,261,o),
(702,243,o),
(669,197,c),
(661,204,l),
(682,239,o),
(718,315,o),
(786,315,cs),
(822,315,o),
(852,285,o),
(852,240,cs),
(852,120,o),
(703,-12,o),
(575,-12,cs),
(508,-12,o),
(470,26,o),
(472,94,cs),
(475,169,o),
(543,311,o),
(635,456,c),
(606,445,ls),
(575,434,o),
(544,424,o),
(514,413,c),
(396,197,o),
(253,-12,o),
(76,-12,cs),
(40,-12,o),
(0,8,o),
(0,69,cs),
(0,243,o),
(230,349,o),
(481,438,c),
(528,524,o),
(573,614,o),
(617,692,c),
(538,661,o),
(454,640,o),
(393,640,cs),
(359,640,o),
(338,656,o),
(338,690,cs),
(338,703,o),
(343,717,o),
(353,733,c),
(326,734,o),
(309,748,o),
(309,768,cs),
(309,796,o),
(330,820,o),
(365,840,c),
(371,831,l),
(345,815,o),
(327,796,o),
(327,775,cs),
(327,759,o),
(343,750,o),
(364,750,c),
(396,792,o),
(450,833,o),
(501,833,cs),
(514,833,o),
(526,826,o),
(526,811,cs),
(526,770,o),
(463,742,o),
(387,734,c),
(384,729,o),
(383,724,o),
(383,719,cs),
(383,702,o),
(400,687,o),
(426,687,cs),
(477,687,o),
(567,712,o),
(648,746,c),
(706,843,o),
(762,911,o),
(819,911,cs),
(847,911,o),
(860,891,o),
(860,874,cs),
(860,825,o),
(775,762,o),
(671,715,c),
(631,640,o),
(587,549,o),
(538,457,c),
(567,467,ls),
(600,478,o),
(633,490,o),
(665,501,c),
(805,710,o),
(985,911,o),
(1079,911,cs),
(1114,911,o),
(1135,891,o),
(1135,847,cs)
);
},
{
closed = 1;
nodes = (
(78,107,o),
(98,76,o),
(133,76,cs),
(254,76,o),
(360,222,o),
(456,393,c),
(252,320,o),
(78,246,o),
(78,135,cs)
);
},
{
closed = 1;
nodes = (
(446,764,o),
(511,788,o),
(511,811,cs),
(511,816,o),
(508,820,o),
(499,820,cs),
(476,820,o),
(425,788,o),
(399,755,c)
);
},
{
closed = 1;
nodes = (
(775,806,o),
(832,845,o),
(832,873,cs),
(832,884,o),
(827,889,o),
(816,889,cs),
(783,889,o),
(744,842,o),
(702,770,c)
);
},
{
closed = 1;
nodes = (
(901,592,o),
(1055,678,o),
(1055,780,cs),
(1055,804,o),
(1038,819,o),
(1019,819,cs),
(948,819,o),
(819,678,o),
(715,520,c)
);
}
);
userData = {
com.schriftgestaltung.Glyphs.lastChange = "2025-09-28 13:27:57 +0000";
};
width = 897;
}
);
unicode = 72;
},
{
glyphname = I;
kernLeft = I;
kernRight = I;
layers = (
{
layerId = m01;
shapes = (
{
closed = 1;
nodes = (
(131,106,l),
(189,149,o),
(224,187,o),
(224,233,cs),
(224,261,o),
(202,280,o),
(171,280,cs),
(91,280,o),
(0,174,o),
(0,76,cs),
(0,21,o),
(32,-12,o),
(87,-12,cs),
(310,-12,o),
(535,502,o),
(657,757,c),
(730,787,o),
(793,832,o),
(793,881,cs),
(793,896,o),
(782,912,o),
(757,912,cs),
(708,912,o),
(654,852,o),
(599,763,c),
(567,754,o),
(533,748,o),
(501,748,cs),
(481,748,o),
(463,750,o),
(446,752,c),
(446,793,o),
(423,818,o),
(396,818,cs),
(377,818,o),
(365,806,o),
(365,786,cs),
(365,761,o),
(384,742,o),
(415,732,c),
(392,662,o),
(319,560,o),
(240,560,cs),
(217,560,o),
(215,581,o),
(212,581,cs),
(208,581,ls),
(202,581,o),
(197,586,o),
(197,583,cs),
(197,577,o),
(217,537,o),
(266,537,cs),
(355,537,o),
(427,647,o),
(443,724,c),
(459,721,o),
(477,719,o),
(496,719,cs),
(520,719,o),
(549,724,o),
(580,731,c),
(424,468,o),
(282,42,o),
(77,42,cs),
(43,42,o),
(22,63,o),
(22,105,cs),
(22,179,o),
(100,235,o),
(148,235,cs),
(171,235,o),
(187,221,o),
(187,203,cs),
(187,168,o),
(150,138,o),
(125,116,c)
);
},
{
closed = 1;
nodes = (
(377,801,o),
(382,806,o),
(389,806,cs),
(400,806,o),
(421,793,o),
(421,768,cs),
(421,765,o),
(421,762,o),
(420,759,c),
(394,767,o),
(377,780,o),
(377,793,cs)
);
},
{
closed = 1;
nodes = (
(707,855,o),
(737,896,o),
(762,896,cs),
(774,896,o),
(778,890,o),
(778,881,cs),
(778,855,o),
(734,819,o),
(674,791,c)
);
}
);
userData = {
com.schriftgestaltung.Glyphs.lastChange = "2025-09-28 13:28:20 +0000";
};
width = 411;
}
);
unicode = 73;
},
{
glyphname = Iacute;
kernLeft = I;
kernRight = I;
layers = (
{
layerId = m01;
shapes = (
{
closed = 1;
nodes = (
(131,106,l),
(189,149,o),
(224,187,o),
(224,233,cs),
(224,261,o),
(202,280,o),
(171,280,cs),
(91,280,o),
(0,174,o),
(0,76,cs),
(0,21,o),
(32,-12,o),
(87,-12,cs),
(310,-12,o),
(535,502,o),
(657,757,c),
(730,787,o),
(793,832,o),
(793,881,cs),
(793,896,o),
(782,912,o),
(757,912,cs),
(708,912,o),
(654,852,o),
(599,763,c),
(567,754,o),
(533,748,o),
(501,748,cs),
(481,748,o),
(463,750,o),
(446,752,c),
(446,793,o),
(423,818,o),
(396,818,cs),
(377,818,o),
(365,806,o),
(365,786,cs),
(365,761,o),
(384,742,o),
(415,732,c),
(392,662,o),
(319,560,o),
(240,560,cs),
(217,560,o),
(215,581,o),
(212,581,cs),
(208,581,ls),
(202,581,o),
(197,586,o),
(197,583,cs),
(197,577,o),
(217,537,o),
(266,537,cs),
(355,537,o),
(427,647,o),
(443,724,c),
(459,721,o),
(477,719,o),
(496,719,cs),
(520,719,o),
(549,724,o),
(580,731,c),
(424,468,o),
(282,42,o),
(77,42,cs),
(43,42,o),
(22,63,o),
(22,105,cs),
(22,179,o),
(100,235,o),
(148,235,cs),
(171,235,o),
(187,221,o),
(187,203,cs),
(187,168,o),
(150,138,o),
(125,116,c)
);
},
{
closed = 1;
nodes = (
(377,801,o),
(382,806,o),
(389,806,cs),
(400,806,o),
(421,793,o),
(421,768,cs),
(421,765,o),
(421,762,o),
(420,759,c),
(394,767,o),
(377,780,o),
(377,793,cs)
);
},
{
closed = 1;
nodes = (
(707,855,o),
(737,896,o),
(762,896,cs),
(774,896,o),
(778,890,o),
(778,881,cs),
(778,855,o),
(734,819,o),
(674,791,c)
);
},
{
pos = (402,469);
ref = acutecomb;
}
);
userData = {
com.schriftgestaltung.Glyphs.lastChange = "2025-09-27 09:12:26 +0000";
};
width = 411;
}
);
unicode = 205;
},
{
glyphname = Igrave;
kernLeft = I;
kernRight = I;
layers = (
{
layerId = m01;
shapes = (
{
closed = 1;
nodes = (
(131,106,l),
(189,149,o),
(224,187,o),
(224,233,cs),
(224,261,o),
(202,280,o),
(171,280,cs),
(91,280,o),
(0,174,o),
(0,76,cs),
(0,21,o),
(32,-12,o),
(87,-12,cs),
(310,-12,o),
(535,502,o),
(657,757,c),
(730,787,o),
(793,832,o),
(793,881,cs),
(793,896,o),
(782,912,o),
(757,912,cs),
(708,912,o),
(654,852,o),
(599,763,c),
(567,754,o),
(533,748,o),
(501,748,cs),
(481,748,o),
(463,750,o),
(446,752,c),
(446,793,o),
(423,818,o),
(396,818,cs),
(377,818,o),
(365,806,o),
(365,786,cs),
(365,761,o),
(384,742,o),
(415,732,c),
(392,662,o),
(319,560,o),
(240,560,cs),
(217,560,o),
(215,581,o),
(212,581,cs),
(208,581,ls),
(202,581,o),
(197,586,o),
(197,583,cs),
(197,577,o),
(217,537,o),
(266,537,cs),
(355,537,o),
(427,647,o),
(443,724,c),
(459,721,o),
(477,719,o),
(496,719,cs),
(520,719,o),
(549,724,o),
(580,731,c),
(424,468,o),
(282,42,o),
(77,42,cs),
(43,42,o),
(22,63,o),
(22,105,cs),
(22,179,o),
(100,235,o),
(148,235,cs),
(171,235,o),
(187,221,o),
(187,203,cs),
(187,168,o),
(150,138,o),
(125,116,c)
);
},
{
closed = 1;
nodes = (
(377,801,o),
(382,806,o),
(389,806,cs),
(400,806,o),
(421,793,o),
(421,768,cs),
(421,765,o),
(421,762,o),
(420,759,c),
(394,767,o),
(377,780,o),
(377,793,cs)
);
},
{
closed = 1;
nodes = (
(707,855,o),
(737,896,o),
(762,896,cs),
(774,896,o),
(778,890,o),
(778,881,cs),
(778,855,o),
(734,819,o),
(674,791,c)
);
},
{
closed = 1;
nodes = (
(488,1029,o),
(701,952,o),
(692,1011,cs),
(691,1022,o),
(681,1037,o),
(668,1034,cs),
(647,1030,o),
(619,1021,o),
(563,1039,cs),
(494,1063,o),
(484,1102,o),
(480,1101,cs),
(477,1101,o),
(477,1098,o),
(478,1094,cs)
);
}
);
userData = {
com.schriftgestaltung.Glyphs.lastChange = "2025-09-27 09:13:50 +0000";
};
width = 411;
}
);
unicode = 204;
},
{
glyphname = J;
kernLeft = J;
kernRight = J;
layers = (
{
layerId = m01;
shapes = (
{
closed = 1;
nodes = (
(295,578,l),
(304,564,o),
(320,550,o),
(355,550,cs),
(432,550,o),
(514,652,o),
(536,731,c),
(568,723,o),
(612,719,o),
(670,719,cs),
(692,719,o),
(715,721,o),
(738,725,c),
(646,572,o),
(541,351,o),
(426,153,c),
(390,163,o),
(352,171,o),
(309,171,cs),
(288,171,o),
(268,168,o),
(247,164,c),
(230,186,o),
(204,197,o),
(176,197,cs),
(2,197,o),
(-180,-50,o),
(-180,-214,cs),
(-180,-298,o),
(-141,-372,o),
(-49,-372,cs),
(139,-372,o),
(314,-152,o),
(466,105,c),
(486,102,o),
(506,100,o),
(527,100,cs),
(595,100,o),
(676,141,o),
(696,203,c),
(711,204,o),
(730,215,o),
(744,230,c),
(740,237,l),
(731,227,o),
(714,217,o),
(700,215,c),
(700,221,o),
(701,227,o),
(701,233,cs),
(701,274,o),
(676,292,o),
(656,292,cs),
(637,292,o),
(621,279,o),
(621,257,cs),
(621,235,o),
(640,207,o),
(679,203,c),
(665,150,o),
(606,127,o),
(563,127,cs),
(537,127,o),
(511,131,o),
(486,138,c),
(610,353,o),
(718,588,o),
(801,739,c),
(887,765,o),
(962,814,o),
(962,874,cs),
(962,891,o),
(950,911,o),
(921,911,cs),
(876,911,o),
(825,858,o),
(769,774,c),
(731,767,o),
(689,762,o),
(646,762,cs),
(610,762,o),
(572,765,o),
(541,770,c),
(539,808,o),
(516,831,o),
(491,831,cs),
(472,831,o),
(459,819,o),
(459,798,cs),
(459,772,o),
(473,752,o),
(509,738,c),
(487,659,o),
(408,573,o),
(334,573,cs),
(316,573,o),
(308,577,o),
(301,584,c)
);
},
{
closed = 1;
nodes = (
(-136,-12,o),
(22,153,o),
(162,155,cs),
(175,155,o),
(186,153,o),
(196,149,c),
(115,119,o),
(48,59,o),
(48,-15,cs),
(48,-56,o),
(75,-86,o),
(112,-86,cs),
(190,-86,o),
(270,7,o),
(270,91,cs),
(270,107,o),
(268,121,o),
(264,133,c),
(271,134,o),
(279,134,o),
(286,134,cs),
(329,134,o),
(366,125,o),
(405,117,c),
(271,-106,o),
(124,-289,o),
(-33,-289,cs),
(-99,-289,o),
(-136,-238,o),
(-136,-164,cs)
);
},
{
closed = 1;
nodes = (
(69,63,o),
(136,112,o),
(224,128,c),
(235,113,o),
(241,91,o),
(241,66,cs),
(241,-5,o),
(183,-53,o),
(129,-53,cs),
(87,-53,o),
(69,-24,o),
(69,2,cs)
);
},
{
closed = 1;
nodes = (
(472,814,o),
(476,819,o),
(484,819,cs),
(494,819,o),
(516,806,o),
(516,780,cs),
(516,776,l),
(489,783,o),
(472,793,o),
(472,806,cs)
);
},
{
closed = 1;
nodes = (
(633,269,o),
(640,278,o),
(650,278,cs),
(670,278,o),
(682,256,o),
(682,228,cs),
(682,223,o),
(682,220,o),
(682,215,c),
(648,220,o),
(633,239,o),
(633,261,cs)
);
},
{
closed = 1;
nodes = (
(869,856,o),
(903,896,o),
(928,896,cs),
(938,896,o),
(946,890,o),
(946,881,cs),
(946,845,o),
(898,811,o),
(830,789,c)
);
}
);
userData = {
com.schriftgestaltung.Glyphs.lastChange = "2025-09-28 13:28:26 +0000";
};
width = 761;
}
);
unicode = 74;
},
{
glyphname = K;
kernLeft = K;
kernRight = K;
layers = (
{
layerId = m01;
shapes = (
{
closed = 1;
nodes = (
(1121,833,l),
(1076,801,o),
(1066,777,o),
(1066,759,cs),
(1066,742,o),
(1079,730,o),
(1102,730,cs),
(1139,730,o),
(1177,763,o),
(1177,806,cs),
(1177,837,o),
(1160,866,o),
(1128,866,cs),
(1000,866,o),
(849,565,o),
(654,452,c),
(657,427,o),
(658,397,o),
(658,363,cs),
(658,105,o),
(722,32,o),
(848,32,cs),
(935,31,o),
(996,108,o),
(996,190,cs),
(996,234,o),
(963,261,o),
(930,261,cs),
(898,261,o),
(858,243,o),
(792,152,c),
(784,159,l),
(842,251,o),
(899,312,o),
(966,312,cs),
(1020,312,o),
(1045,267,o),
(1045,217,cs),
(1045,135,o),
(943,-12,o),
(777,-12,cs),
(654,-12,o),
(598,92,o),
(598,303,cs),
(598,351,o),
(598,392,o),
(595,424,c),
(568,415,o),
(539,409,o),
(510,409,cs),
(509,409,l),
(388,194,o),
(244,-12,o),
(76,-12,cs),
(40,-12,o),
(0,8,o),
(0,69,cs),
(0,184,o),
(132,356,o),
(223,356,cs),
(254,356,o),
(277,333,o),
(277,298,cs),
(277,252,o),
(233,204,o),
(152,146,c),
(147,154,l),
(210,198,o),
(238,243,o),
(238,266,cs),
(238,284,o),
(230,300,o),
(205,300,cs),
(143,300,o),
(37,231,o),
(37,117,cs),
(37,75,o),
(62,52,o),
(107,52,cs),
(236,52,o),
(354,230,o),
(464,424,c),
(447,438,o),
(440,459,o),
(440,477,cs),
(440,521,o),
(485,559,o),
(543,568,c),
(566,611,o),
(588,652,o),
(611,690,c),
(534,660,o),
(453,640,o),
(393,640,cs),
(359,640,o),
(338,656,o),
(338,690,cs),
(338,703,o),
(343,717,o),
(353,733,c),
(326,734,o),
(309,748,o),
(309,768,cs),
(309,796,o),
(330,820,o),
(365,840,c),
(371,831,l),
(345,815,o),
(327,796,o),
(327,775,cs),
(327,759,o),
(343,750,o),
(364,750,c),
(396,792,o),
(450,833,o),
(501,833,cs),
(514,833,o),
(526,826,o),
(526,811,cs),
(526,769,o),
(459,740,o),
(378,734,c),
(377,729,o),
(376,724,o),
(376,719,cs),
(376,702,o),
(400,687,o),
(426,687,cs),
(476,687,o),
(563,711,o),
(644,745,c),
(706,842,o),
(763,911,o),
(819,911,cs),
(847,911,o),
(860,891,o),
(860,874,cs),
(860,825,o),
(776,764,o),
(674,716,c),
(649,671,o),
(622,620,o),
(594,567,c),
(616,560,o),
(633,542,o),
(644,505,c),
(837,608,o),
(1031,912,o),
(1170,912,cs),
(1206,912,o),
(1221,883,o),
(1221,852,cs),
(1221,758,o),
(1114,692,o),
(1066,692,cs),
(1035,692,o),
(1020,701,o),
(1020,727,cs),
(1020,746,o),
(1043,788,o),
(1112,840,c)
);
},
{
closed = 1;
nodes = (
(434,760,o),
(511,786,o),
(511,811,cs),
(511,816,o),
(508,820,o),
(499,820,cs),
(462,820,o),
(409,788,o),
(387,752,c)
);
},
{
closed = 1;
nodes = (
(476,497,o),
(484,487,o),
(495,480,c),
(508,504,o),
(521,527,o),
(533,550,c),
(528,550,ls),
(499,550,o),
(476,529,o),
(476,508,cs)
);
},
{
closed = 1;
nodes = (
(559,474,o),
(575,478,o),
(590,482,c),
(586,503,o),
(581,518,o),
(574,528,c),
(544,473,l)
);
},
{
closed = 1;
nodes = (
(782,809,o),
(841,850,o),
(841,878,cs),
(841,889,o),
(835,894,o),
(825,894,cs),
(791,894,o),
(752,847,o),
(707,773,c)
);
}
);
userData = {
com.schriftgestaltung.Glyphs.lastChange = "2025-09-28 13:28:32 +0000";
};
width = 1084;
}
);
unicode = 75;
},
{
glyphname = L;
kernLeft = L;
kernRight = L;
layers = (
{
layerId = m01;
shapes = (
{
closed = 1;
nodes = (
(985,820,o),
(955,854,o),
(906,854,cs),
(723,854,o),
(566,480,o),
(384,223,c),
(495,153,o),
(567,20,o),
(744,20,cs),
(855,20,o),
(968,86,o),
(968,199,cs),
(968,258,o),
(932,288,o),
(886,288,cs),
(847,288,o),
(808,265,o),
(750,163,c),
(740,167,l),
(786,256,o),
(824,337,o),
(916,337,cs),
(960,337,o),
(1020,301,o),
(1020,228,cs),
(1020,85,o),
(830,-12,o),
(687,-12,cs),
(501,-12,o),
(428,97,o),
(339,162,c),
(258,60,o),
(171,-12,o),
(75,-12,cs),
(40,-12,o),
(0,8,o),
(0,69,cs),
(0,169,o),
(117,266,o),
(243,266,cs),
(287,266,o),
(323,256,o),
(355,240,c),
(543,492,o),
(726,912,o),
(922,912,cs),
(999,912,o),
(1051,867,o),
(1051,781,cs),
(1051,664,o),
(935,568,o),
(844,568,cs),
(809,568,o),
(779,590,o),
(779,626,cs),
(779,641,o),
(782,655,o),
(787,670,c),
(780,678,o),
(775,688,o),
(775,700,cs),
(775,748,o),
(829,798,o),
(888,814,c),
(891,806,l),
(835,791,o),
(797,755,o),
(797,718,cs),
(797,710,o),
(798,703,o),
(800,698,c),
(821,731,o),
(855,756,o),
(899,756,cs),
(926,756,o),
(940,743,o),
(940,721,cs),
(940,682,o),
(888,652,o),
(839,652,cs),
(824,652,o),
(811,654,o),
(800,660,c),
(800,654,ls),
(800,613,o),
(827,592,o),
(865,592,cs),
(925,592,o),
(985,665,o),
(985,765,cs)
);
},
{
closed = 1;
nodes = (
(33,79,o),
(56,53,o),
(107,53,cs),
(176,53,o),
(243,104,o),
(309,182,c),
(279,199,o),
(247,210,o),
(208,210,cs),
(107,210,o),
(32,166,o),
(32,112,cs)
);
},
{
closed = 1;
nodes = (
(818,673,o),
(837,670,o),
(858,670,cs),
(898,670,o),
(920,690,o),
(920,710,cs),
(920,725,o),
(904,736,o),
(886,736,cs),
(856,736,o),
(822,717,o),
(807,686,c)
);
}
);
userData = {
com.schriftgestaltung.Glyphs.lastChange = "2025-09-28 13:28:37 +0000";
};
width = 1051;
}
);
unicode = 76;
},
{
glyphname = M;
kernLeft = M;
kernRight = M;
layers = (
{
layerId = m01;
shapes = (
{
closed = 1;
nodes = (
(68,47,o),
(45,79,o),
(45,117,cs),
(45,231,o),
(143,300,o),
(205,300,cs),
(230,300,o),
(238,284,o),
(238,266,cs),
(238,243,o),
(210,198,o),
(147,154,c),
(152,146,l),
(233,204,o),
(277,252,o),
(277,298,cs),
(277,333,o),
(254,356,o),
(223,356,cs),
(132,356,o),
(0,184,o),
(0,69,cs),
(0,8,o),
(40,-12,o),
(76,-12,cs),
(221,-12,o),
(416,173,o),
(580,377,c),
(516,225,o),
(458,78,o),
(425,-12,c),
(432,-12,l),
(577,155,o),
(693,294,o),
(784,410,c),
(729,283,o),
(689,162,o),
(689,90,cs),
(689,32,o),
(733,-12,o),
(793,-12,cs),
(968,-12,o),
(1089,211,o),
(1089,312,cs),
(1089,350,o),
(1067,365,o),
(1043,365,cs),
(989,365,o),
(922,256,o),
(889,171,c),
(899,171,l),
(936,255,o),
(989,308,o),
(1022,308,cs),
(1037,308,o),
(1050,296,o),
(1050,267,cs),
(1050,208,o),
(957,40,o),
(827,40,cs),
(785,40,o),
(761,66,o),
(761,128,cs),
(761,232,o),
(840,413,o),
(905,567,c),
(1057,771,o),
(1104,868,o),
(1104,897,cs),
(1104,906,o),
(1099,912,o),
(1092,912,cs),
(1051,912,o),
(909,687,o),
(808,475,c),
(744,397,o),
(645,270,o),
(551,168,c),
(544,168,l),
(567,235,o),
(634,395,o),
(675,504,c),
(799,678,o),
(894,847,o),
(894,893,cs),
(894,905,o),
(888,912,o),
(878,912,cs),
(832,912,o),
(727,714,o),
(631,501,c),
(456,281,o),
(249,37,o),
(107,45,cs)
);
},
{
closed = 1;
nodes = (
(778,763,o),
(845,899,o),
(873,899,cs),
(878,899,o),
(881,896,o),
(881,887,cs),
(881,856,o),
(810,741,o),
(719,616,c)
);
},
{
closed = 1;
nodes = (
(1004,786,o),
(1068,899,o),
(1087,899,cs),
(1091,899,o),
(1093,896,o),
(1093,892,cs),
(1093,878,o),
(1053,797,o),
(938,643,c)
);
}
);
userData = {
com.schriftgestaltung.Glyphs.lastChange = "2025-09-23 10:46:54 +0000";
};
width = 1104;
}
);
unicode = 77;
},
{
glyphname = N;
kernLeft = N;
kernRight = N;
layers = (
{
layerId = m01;
shapes = (
{
closed = 1;
nodes = (
(68,59,o),
(45,79,o),
(45,117,cs),
(45,231,o),
(143,300,o),
(205,300,cs),
(230,300,o),
(238,284,o),
(238,266,cs),
(238,243,o),
(210,198,o),
(147,154,c),
(152,146,l),
(233,204,o),
(277,252,o),
(277,298,cs),
(277,333,o),
(254,356,o),
(223,356,cs),
(132,356,o),
(0,184,o),
(0,69,cs),
(0,8,o),
(40,-12,o),
(76,-12,cs),
(269,-12,o),
(541,300,o),
(717,559,c),
(667,374,o),
(621,150,o),
(582,-12,c),
(592,-12,l),
(1036,648,o),
(1140,846,o),
(1279,846,cs),
(1307,846,o),
(1327,824,o),
(1327,796,cs),
(1327,729,o),
(1256,640,o),
(1210,640,cs),
(1190,640,o),
(1179,649,o),
(1179,668,cs),
(1179,702,o),
(1218,737,o),
(1253,748,c),
(1248,756,l),
(1194,737,o),
(1154,693,o),
(1154,649,cs),
(1154,626,o),
(1171,611,o),
(1192,611,cs),
(1246,611,o),
(1364,738,o),
(1364,840,cs),
(1364,884,o),
(1338,911,o),
(1297,911,cs),
(1164,911,o),
(1043,707,o),
(721,235,c),
(713,235,l),
(728,333,o),
(752,513,o),
(783,660,c),
(851,771,o),
(894,861,o),
(894,893,cs),
(894,905,o),
(888,912,o),
(878,912,cs),
(834,912,o),
(787,801,o),
(742,648,c),
(564,401,o),
(261,59,o),
(107,59,cs)
);
},
{
closed = 1;
nodes = (
(820,827,o),
(846,899,o),
(873,899,cs),
(878,899,o),
(881,896,o),
(881,887,cs),
(881,865,o),
(849,805,o),
(797,727,c)
);
}
);
userData = {
com.schriftgestaltung.Glyphs.lastChange = "2025-09-23 10:46:54 +0000";
};
width = 809;
}
);
unicode = 78;
},
{
glyphname = Ntilde;
kernLeft = N;
kernRight = N;
layers = (
{
layerId = m01;
shapes = (
{
closed = 1;
nodes = (
(68,59,o),
(45,79,o),
(45,117,cs),
(45,231,o),
(143,300,o),
(205,300,cs),
(230,300,o),
(238,284,o),
(238,266,cs),
(238,243,o),
(210,198,o),
(147,154,c),
(152,146,l),
(233,204,o),
(277,252,o),
(277,298,cs),
(277,333,o),
(254,356,o),
(223,356,cs),
(132,356,o),
(0,184,o),
(0,69,cs),
(0,8,o),
(40,-12,o),
(76,-12,cs),
(269,-12,o),
(541,300,o),
(717,559,c),
(667,374,o),
(621,150,o),
(582,-12,c),
(592,-12,l),
(1036,648,o),
(1140,846,o),
(1279,846,cs),
(1307,846,o),
(1327,824,o),
(1327,796,cs),
(1327,729,o),
(1256,640,o),
(1210,640,cs),
(1190,640,o),
(1179,649,o),
(1179,668,cs),
(1179,702,o),
(1218,737,o),
(1253,748,c),
(1248,756,l),
(1194,737,o),
(1154,693,o),
(1154,649,cs),
(1154,626,o),
(1171,611,o),
(1192,611,cs),
(1246,611,o),
(1364,738,o),
(1364,840,cs),
(1364,884,o),
(1338,911,o),
(1297,911,cs),
(1164,911,o),
(1043,707,o),
(721,235,c),
(713,235,l),
(728,333,o),
(752,513,o),
(783,660,c),
(851,771,o),
(894,861,o),
(894,893,cs),
(894,905,o),
(888,912,o),
(878,912,cs),
(834,912,o),
(787,801,o),
(742,648,c),
(564,401,o),
(261,59,o),
(107,59,cs)
);
},
{
closed = 1;
nodes = (
(820,827,o),
(846,899,o),
(873,899,cs),
(878,899,o),
(881,896,o),
(881,887,cs),
(881,865,o),
(849,805,o),
(797,727,c)
);
},
{
closed = 1;
nodes = (
(967,1015,o),
(973,1007,o),
(979,1011,cs),
(1028,1045,o),
(1061,1061,o),
(1094,1061,cs),
(1122,1061,o),
(1138,1053,o),
(1138,1036,cs),
(1138,1020,o),
(1114,1005,o),
(1114,985,cs),
(1114,968,o),
(1128,959,o),
(1147,959,cs),
(1185,959,o),
(1229,1005,o),
(1251,1042,cs),
(1253,1047,o),
(1246,1049,o),
(1243,1046,cs),
(1214,1008,o),
(1183,991,o),
(1160,991,cs),
(1148,991,o),
(1139,996,o),
(1139,1006,cs),
(1139,1022,o),
(1166,1030,o),
(1166,1059,cs),
(1166,1077,o),
(1150,1090,o),
(1120,1090,cs),
(1080,1090,o),
(1027,1060,o),
(973,1019,cs)
);
}
);
userData = {
com.schriftgestaltung.Glyphs.lastChange = "2025-09-27 08:39:30 +0000";
};
width = 809;
}
);
unicode = 209;
},
{
glyphname = O;
kernLeft = O;
kernRight = O;
layers = (
{
layerId = m01;
shapes = (
{
closed = 1;
nodes = (
(186,669,o),
(0,359,o),
(0,183,cs),
(0,91,o),
(53,-13,o),
(223,-8,cs),
(494,0,o),
(742,260,o),
(852,500,c),
(902,528,o),
(950,564,o),
(993,607,c),
(987,616,l),
(965,591,o),
(918,550,o),
(860,516,c),
(894,594,o),
(912,670,o),
(912,732,cs),
(912,841,o),
(866,912,o),
(761,912,cs),
(564,912,o),
(268,561,o),
(268,387,cs),
(268,318,o),
(314,266,o),
(390,266,cs),
(498,266,o),
(609,351,o),
(662,443,c),
(712,446,o),
(762,459,o),
(809,479,c),
(716,255,o),
(498,57,o),
(313,55,cs),
(142,55,o),
(76,145,o),
(76,271,cs),
(76,471,o),
(300,714,o),
(485,827,c),
(477,837,l)
);
},
{
closed = 1;
nodes = (
(328,624,o),
(576,846,o),
(726,846,cs),
(805,846,o),
(852,806,o),
(852,684,cs),
(852,621,o),
(839,557,o),
(814,493,c),
(771,474,o),
(724,460,o),
(677,460,cs),
(671,460,l),
(685,488,o),
(693,516,o),
(693,542,cs),
(693,578,o),
(672,593,o),
(649,593,cs),
(610,593,o),
(562,550,o),
(562,495,cs),
(562,460,o),
(588,441,o),
(631,441,cs),
(646,441,l),
(606,373,o),
(519,317,o),
(449,317,cs),
(390,317,o),
(328,354,o),
(328,451,cs)
);
},
{
closed = 1;
nodes = (
(584,546,o),
(606,564,o),
(627,564,cs),
(654,564,o),
(667,542,o),
(667,516,cs),
(667,498,o),
(663,479,o),
(655,461,c),
(608,466,o),
(584,486,o),
(584,517,cs)
);
}
);
userData = {
com.schriftgestaltung.Glyphs.lastChange = "2025-09-28 13:29:05 +0000";
};
width = 734;
}
);
unicode = 79;
},
{
glyphname = Oacute;
kernLeft = O;
kernRight = O;
layers = (
{
layerId = m01;
shapes = (
{
closed = 1;
nodes = (
(186,669,o),
(0,359,o),
(0,183,cs),
(0,91,o),
(53,-13,o),
(223,-8,cs),
(494,0,o),
(742,260,o),
(852,500,c),
(902,528,o),
(950,564,o),
(993,607,c),
(987,616,l),
(965,591,o),
(918,550,o),
(860,516,c),
(894,594,o),
(912,670,o),
(912,732,cs),
(912,841,o),
(866,912,o),
(761,912,cs),
(564,912,o),
(268,561,o),
(268,387,cs),
(268,318,o),
(314,266,o),
(390,266,cs),
(498,266,o),
(609,351,o),
(662,443,c),
(712,446,o),
(762,459,o),
(809,479,c),
(716,255,o),
(498,57,o),
(313,55,cs),
(142,55,o),
(76,145,o),
(76,271,cs),
(76,471,o),
(300,714,o),
(485,827,c),
(477,837,l)
);
},
{
closed = 1;
nodes = (
(328,624,o),
(576,846,o),
(726,846,cs),
(805,846,o),
(852,806,o),
(852,684,cs),
(852,621,o),
(839,557,o),
(814,493,c),
(771,474,o),
(724,460,o),
(677,460,cs),
(671,460,l),
(685,488,o),
(693,516,o),
(693,542,cs),
(693,578,o),
(672,593,o),
(649,593,cs),
(610,593,o),
(562,550,o),
(562,495,cs),
(562,460,o),
(588,441,o),
(631,441,cs),
(646,441,l),
(606,373,o),
(519,317,o),
(449,317,cs),
(390,317,o),
(328,354,o),
(328,451,cs)
);
},
{
closed = 1;
nodes = (
(584,546,o),
(606,564,o),
(627,564,cs),
(654,564,o),
(667,542,o),
(667,516,cs),
(667,498,o),
(663,479,o),
(655,461,c),
(608,466,o),
(584,486,o),
(584,517,cs)
);
},
{
pos = (633,480);
ref = acutecomb;
}
);
userData = {
com.schriftgestaltung.Glyphs.lastChange = "2025-09-27 10:04:02 +0000";
};
width = 734;
}
);
unicode = 211;
},
{
glyphname = Ograve;
kernLeft = O;
kernRight = O;
layers = (
{
layerId = m01;
shapes = (
{
closed = 1;
nodes = (
(186,669,o),
(0,359,o),
(0,183,cs),
(0,91,o),
(53,-13,o),
(223,-8,cs),
(494,0,o),
(742,260,o),
(852,500,c),
(902,528,o),
(950,564,o),
(993,607,c),
(987,616,l),
(965,591,o),
(918,550,o),
(860,516,c),
(894,594,o),
(912,670,o),
(912,732,cs),
(912,841,o),
(866,912,o),
(761,912,cs),
(564,912,o),
(268,561,o),
(268,387,cs),
(268,318,o),
(314,266,o),
(390,266,cs),
(498,266,o),
(609,351,o),
(662,443,c),
(712,446,o),
(762,459,o),
(809,479,c),
(716,255,o),
(498,57,o),
(313,55,cs),
(142,55,o),
(76,145,o),
(76,271,cs),
(76,471,o),
(300,714,o),
(485,827,c),
(477,837,l)
);
},
{
closed = 1;
nodes = (
(328,624,o),
(576,846,o),
(726,846,cs),
(805,846,o),
(852,806,o),
(852,684,cs),
(852,621,o),
(839,557,o),
(814,493,c),
(771,474,o),
(724,460,o),
(677,460,cs),
(671,460,l),
(685,488,o),
(693,516,o),
(693,542,cs),
(693,578,o),
(672,593,o),
(649,593,cs),
(610,593,o),
(562,550,o),
(562,495,cs),
(562,460,o),
(588,441,o),
(631,441,cs),
(646,441,l),
(606,373,o),
(519,317,o),
(449,317,cs),
(390,317,o),
(328,354,o),
(328,451,cs)
);
},
{
closed = 1;
nodes = (
(584,546,o),
(606,564,o),
(627,564,cs),
(654,564,o),
(667,542,o),
(667,516,cs),
(667,498,o),
(663,479,o),
(655,461,c),
(608,466,o),
(584,486,o),
(584,517,cs)
);
},
{
pos = (577,467);
ref = gravecomb;
}
);
userData = {
com.schriftgestaltung.Glyphs.lastChange = "2025-09-27 09:17:04 +0000";
};
width = 734;
}
);
unicode = 210;
},
{
glyphname = Oslash;
kernLeft = O;
kernRight = O;
layers = (
{
layerId = m01;
shapes = (
{
closed = 1;
nodes = (
(742,260,o),
(494,0,o),
(223,-8,cs),
(201,-9,o),
(181,-7,o),
(162,-5,c),
(39,-169,o),
(-80,-291,o),
(-184,-291,cs),
(-249,-291,o),
(-286,-259,o),
(-286,-209,cs),
(-286,-130,o),
(-201,-62,o),
(-108,-48,c),
(-105,-61,l),
(-181,-74,o),
(-235,-130,o),
(-235,-180,cs),
(-235,-221,o),
(-208,-245,o),
(-162,-245,cs),
(-76,-245,o),
(27,-143,o),
(138,0,c),
(35,26,o),
(0,109,o),
(0,183,cs),
(0,359,o),
(186,669,o),
(477,837,c),
(485,827,l),
(300,714,o),
(76,471,o),
(76,271,cs),
(76,180,o),
(110,107,o),
(194,74,c),
(240,138,o),
(288,206,o),
(336,276,c),
(293,295,o),
(268,336,o),
(268,387,cs),
(268,561,o),
(564,912,o),
(761,912,cs),
(800,912,o),
(831,902,o),
(855,884,c),
(889,902,o),
(923,912,o),
(955,912,cs),
(1031,912,o),
(1073,859,o),
(1073,795,cs),
(1073,657,o),
(936,537,o),
(852,500,c)
);
},
{
closed = 1;
nodes = (
(243,59,o),
(275,55,o),
(313,55,cs),
(498,57,o),
(716,255,o),
(809,479,c),
(762,459,o),
(712,446,o),
(662,443,c),
(609,351,o),
(498,266,o),
(390,266,cs),
(378,266,o),
(366,267,o),
(355,270,c),
(308,201,o),
(261,132,o),
(215,67,c)
);
},
{
closed = 1;
nodes = (
(328,395,o),
(349,358,o),
(378,338,c),
(514,535,o),
(654,732,o),
(784,836,c),
(767,843,o),
(748,846,o),
(726,846,cs),
(576,846,o),
(328,624,o),
(328,451,cs)
);
},
{
closed = 1;
nodes = (
(412,321,o),
(431,317,o),
(449,317,cs),
(519,317,o),
(606,373,o),
(646,441,c),
(631,441,ls),
(588,441,o),
(562,460,o),
(562,495,cs),
(562,550,o),
(610,593,o),
(649,593,cs),
(672,593,o),
(693,578,o),
(693,542,cs),
(693,516,o),
(685,488,o),
(671,460,c),
(677,460,ls),
(724,460,o),
(771,474,o),
(814,493,c),
(839,557,o),
(852,621,o),
(852,684,cs),
(852,755,o),
(836,798,o),
(808,822,c),
(679,738,o),
(537,537,o),
(395,328,c)
);
},
{
closed = 1;
nodes = (
(584,486,o),
(608,466,o),
(655,461,c),
(663,479,o),
(667,498,o),
(667,516,cs),
(667,542,o),
(654,564,o),
(627,564,cs),
(606,564,o),
(584,546,o),
(584,517,cs)
);
},
{
closed = 1;
nodes = (
(971,589,o),
(1015,684,o),
(1015,765,cs),
(1015,818,o),
(985,862,o),
(923,862,cs),
(909,862,o),
(895,860,o),
(881,856,c),
(902,825,o),
(912,783,o),
(912,732,cs),
(912,670,o),
(894,594,o),
(860,516,c)
);
}
);
userData = {
com.schriftgestaltung.Glyphs.lastChange = "2025-09-28 09:01:08 +0000";
};
width = 734;
}
);
unicode = 216;
},
{
glyphname = Otilde;
kernLeft = O;
kernRight = O;
layers = (
{
layerId = m01;
shapes = (
{
closed = 1;
nodes = (
(186,669,o),
(0,359,o),
(0,183,cs),
(0,91,o),
(53,-13,o),
(223,-8,cs),
(494,0,o),
(742,260,o),
(852,500,c),
(902,528,o),
(950,564,o),
(993,607,c),
(987,616,l),
(965,591,o),
(918,550,o),
(860,516,c),
(894,594,o),
(912,670,o),
(912,732,cs),
(912,841,o),
(866,912,o),
(761,912,cs),
(564,912,o),
(268,561,o),
(268,387,cs),
(268,318,o),
(314,266,o),
(390,266,cs),
(498,266,o),
(609,351,o),
(662,443,c),
(712,446,o),
(762,459,o),
(809,479,c),
(716,255,o),
(498,57,o),
(313,55,cs),
(142,55,o),
(76,145,o),
(76,271,cs),
(76,471,o),
(300,714,o),
(485,827,c),
(477,837,l)
);
},
{
closed = 1;
nodes = (
(328,624,o),
(576,846,o),
(726,846,cs),
(805,846,o),
(852,806,o),
(852,684,cs),
(852,621,o),
(839,557,o),
(814,493,c),
(771,474,o),
(724,460,o),
(677,460,cs),
(671,460,l),
(685,488,o),
(693,516,o),
(693,542,cs),
(693,578,o),
(672,593,o),
(649,593,cs),
(610,593,o),
(562,550,o),
(562,495,cs),
(562,460,o),
(588,441,o),
(631,441,cs),
(646,441,l),
(606,373,o),
(519,317,o),
(449,317,cs),
(390,317,o),
(328,354,o),
(328,451,cs)
);
},
{
closed = 1;
nodes = (
(584,546,o),
(606,564,o),
(627,564,cs),
(654,564,o),
(667,542,o),
(667,516,cs),
(667,498,o),
(663,479,o),
(655,461,c),
(608,466,o),
(584,486,o),
(584,517,cs)
);
},
{
closed = 1;
nodes = (
(787,1058,o),
(840,1088,o),
(880,1088,cs),
(910,1088,o),
(926,1075,o),
(926,1057,cs),
(926,1028,o),
(899,1020,o),
(899,1004,cs),
(899,994,o),
(908,989,o),
(920,989,cs),
(943,989,o),
(974,1006,o),
(1003,1044,cs),
(1006,1047,o),
(1013,1045,o),
(1011,1040,cs),
(989,1003,o),
(945,957,o),
(907,957,cs),
(888,957,o),
(874,966,o),
(874,983,cs),
(874,1003,o),
(898,1018,o),
(898,1034,cs),
(898,1051,o),
(882,1059,o),
(854,1059,cs),
(821,1059,o),
(788,1043,o),
(739,1009,cs),
(733,1005,o),
(727,1013,o),
(733,1017,cs)
);
}
);
userData = {
com.schriftgestaltung.Glyphs.lastChange = "2025-09-27 12:07:38 +0000";
};
width = 734;
}
);
unicode = 213;
},
{
glyphname = OE;
kernLeft = O;
kernRight = E;
layers = (
{
layerId = m01;
shapes = (
{
closed = 1;
nodes = (
(0,91,o),
(53,-13,o),
(223,-8,cs),
(313,-5,o),
(400,25,o),
(480,73,c),
(548,16,o),
(677,-11,o),
(837,-11,cs),
(1025,-11,o),
(1355,115,o),
(1355,246,cs),
(1355,305,o),
(1315,316,o),
(1264,316,cs),
(1198,316,o),
(1105,282,o),
(1066,238,c),
(1028,235,o),
(1004,217,o),
(979,197,c),
(987,191,l),
(1014,215,o),
(1037,223,o),
(1056,225,c),
(1050,216,o),
(1046,206,o),
(1046,197,cs),
(1046,174,o),
(1065,157,o),
(1087,157,cs),
(1111,157,o),
(1126,172,o),
(1126,195,cs),
(1126,220,o),
(1100,235,o),
(1081,238,c),
(1115,271,o),
(1189,300,o),
(1237,300,cs),
(1270,300,o),
(1297,289,o),
(1297,262,cs),
(1297,179,o),
(1037,17,o),
(785,17,cs),
(596,17,o),
(522,73,o),
(522,146,cs),
(522,305,o),
(692,424,o),
(860,492,c),
(891,463,o),
(952,444,o),
(1030,444,cs),
(1092,444,o),
(1209,464,o),
(1209,528,cs),
(1209,563,o),
(1151,575,o),
(1112,575,cs),
(1040,575,o),
(962,566,o),
(885,549,c),
(887,564,o),
(895,582,o),
(906,601,c),
(1272,626,o),
(1560,773,o),
(1560,855,cs),
(1560,891,o),
(1517,909,o),
(1456,912,cs),
(1302,919,o),
(1040,838,o),
(911,704,c),
(919,819,o),
(882,912,o),
(761,912,cs),
(564,912,o),
(268,561,o),
(268,387,cs),
(268,318,o),
(314,266,o),
(390,266,cs),
(410,266,o),
(431,270,o),
(450,277,c),
(436,247,o),
(428,214,o),
(428,179,cs),
(428,145,o),
(438,117,o),
(459,92,c),
(410,69,o),
(361,55,o),
(313,55,cs),
(142,55,o),
(76,145,o),
(76,271,cs),
(76,471,o),
(300,714,o),
(485,827,c),
(477,837,l),
(186,669,o),
(0,359,o),
(0,183,cs)
);
},
{
closed = 1;
nodes = (
(328,624,o),
(576,846,o),
(726,846,cs),
(805,846,o),
(852,806,o),
(852,684,cs),
(852,655,o),
(850,626,o),
(844,597,c),
(786,554,o),
(727,525,o),
(675,525,c),
(686,555,o),
(693,583,o),
(693,607,cs),
(693,643,o),
(672,657,o),
(649,657,cs),
(610,657,o),
(562,615,o),
(562,560,cs),
(562,513,o),
(610,503,o),
(650,507,c),
(642,486,o),
(631,465,o),
(618,445,c),
(559,410,o),
(510,369,o),
(476,321,c),
(467,318,o),
(457,317,o),
(449,317,cs),
(390,317,o),
(328,354,o),
(328,451,cs)
);
},
{
closed = 1;
nodes = (
(584,611,o),
(606,629,o),
(627,629,cs),
(654,629,o),
(667,607,o),
(667,580,cs),
(667,564,o),
(664,545,o),
(657,526,c),
(609,530,o),
(584,550,o),
(584,582,cs)
);
},
{
closed = 1;
nodes = (
(652,476,o),
(660,492,o),
(667,508,c),
(719,514,o),
(778,534,o),
(840,578,c),
(832,544,o),
(839,567,o),
(829,534,c),
(762,515,o),
(698,490,o),
(642,459,c)
);
},
{
closed = 1;
nodes = (
(984,537,o),
(1071,554,o),
(1128,554,cs),
(1156,554,o),
(1171,546,o),
(1171,534,cs),
(1171,506,o),
(1092,469,o),
(1007,469,cs),
(951,469,o),
(910,479,o),
(893,504,c)
);
},
{
closed = 1;
nodes = (
(1014,750,o),
(1255,895,o),
(1439,895,cs),
(1472,895,o),
(1488,884,o),
(1488,863,cs),
(1488,805,o),
(1207,651,o),
(922,625,c)
);
},
{
closed = 1;
nodes = (
(1063,212,o),
(1065,218,o),
(1069,224,c),
(1081,221,o),
(1088,211,o),
(1088,203,cs),
(1088,194,o),
(1082,190,o),
(1076,190,cs),
(1068,190,o),
(1063,198,o),
(1063,205,cs)
);
}
);
userData = {
com.schriftgestaltung.Glyphs.lastChange = "2025-09-23 10:46:54 +0000";
};
width = 1365;
}
);
metricLeft = "=O";
metricRight = "=E";
unicode = 338;
},
{
glyphname = P;
kernLeft = P;
kernRight = P;
layers = (
{
layerId = m01;
shapes = (
{
closed = 1;
nodes = (
(485,875,l),
(487,860,o),
(487,844,o),
(486,829,c),
(538,854,o),
(605,872,o),
(688,872,cs),
(696,872,o),
(703,872,o),
(711,871,c),
(742,897,o),
(774,912,o),
(807,912,cs),
(853,912,o),
(897,891,o),
(941,843,c),
(933,836,l),
(903,863,o),
(875,883,o),
(839,883,cs),
(814,883,o),
(791,876,o),
(769,864,c),
(886,838,o),
(945,757,o),
(945,674,cs),
(945,519,o),
(782,437,o),
(640,441,cs),
(582,444,o),
(536,451,o),
(500,465,c),
(383,233,o),
(258,-12,o),
(76,-12,cs),
(40,-12,o),
(0,8,o),
(0,69,cs),
(0,184,o),
(132,356,o),
(223,356,cs),
(254,356,o),
(277,333,o),
(277,298,cs),
(277,252,o),
(233,204,o),
(152,146,c),
(147,154,l),
(210,198,o),
(238,243,o),
(238,266,cs),
(238,284,o),
(230,300,o),
(205,300,cs),
(143,300,o),
(45,231,o),
(45,117,cs),
(45,79,o),
(69,56,o),
(104,56,cs),
(242,56,o),
(354,270,o),
(464,483,c),
(420,511,o),
(401,552,o),
(397,602,c),
(408,602,l),
(408,563,o),
(426,526,o),
(473,502,c),
(541,634,o),
(607,762,o),
(678,840,c),
(664,842,o),
(649,842,o),
(634,842,cs),
(576,842,o),
(523,828,o),
(485,807,c),
(477,736,o),
(442,675,o),
(390,675,cs),
(377,675,o),
(369,684,o),
(369,695,cs),
(369,732,o),
(405,784,o),
(475,822,c),
(477,839,o),
(479,857,o),
(477,875,c)
);
},
{
closed = 1;
nodes = (
(416,725,o),
(420,722,o),
(424,722,cs),
(438,722,o),
(459,754,o),
(470,799,c),
(437,779,o),
(416,754,o),
(416,733,cs)
);
},
{
closed = 1;
nodes = (
(544,477,o),
(588,472,o),
(642,472,cs),
(737,472,o),
(866,526,o),
(866,670,cs),
(866,732,o),
(819,802,o),
(724,830,c),
(649,759,o),
(581,626,o),
(511,487,c)
);
}
);
userData = {
com.schriftgestaltung.Glyphs.lastChange = "2025-09-28 13:29:53 +0000";
};
width = 456;
}
);
unicode = 80;
},
{
glyphname = Q;
kernLeft = Q;
kernRight = Q;
layers = (
{
layerId = m01;
shapes = (
{
closed = 1;
nodes = (
(354,568,l),
(382,593,o),
(413,617,o),
(445,636,c),
(444,629,o),
(444,621,o),
(444,613,cs),
(444,546,o),
(480,494,o),
(549,494,cs),
(633,494,o),
(688,554,o),
(688,614,cs),
(688,671,o),
(654,703,o),
(582,703,cs),
(546,703,o),
(510,690,o),
(474,672,c),
(505,755,o),
(588,842,o),
(678,846,cs),
(765,850,o),
(838,780,o),
(838,667,cs),
(838,483,o),
(671,238,o),
(485,111,c),
(410,246,o),
(405,472,o),
(244,472,cs),
(155,472,o),
(0,368,o),
(0,193,cs),
(0,55,o),
(95,-10,o),
(208,-12,cs),
(288,-12,o),
(365,10,o),
(437,48,c),
(471,12,o),
(518,-12,o),
(588,-12,cs),
(685,-12,o),
(778,52,o),
(778,126,cs),
(778,153,o),
(758,183,o),
(723,183,cs),
(692,183,o),
(662,151,o),
(660,112,c),
(669,109,l),
(675,141,o),
(693,156,o),
(710,156,cs),
(732,156,o),
(745,136,o),
(745,114,cs),
(745,48,o),
(695,13,o),
(634,13,cs),
(571,13,o),
(530,42,o),
(500,86,c),
(729,241,o),
(891,548,o),
(891,726,cs),
(891,829,o),
(837,910,o),
(737,910,cs),
(600,910,o),
(472,788,o),
(447,656,c),
(413,634,o),
(379,606,o),
(348,576,c)
);
},
{
closed = 1;
nodes = (
(65,379,o),
(150,446,o),
(216,446,cs),
(357,446,o),
(326,203,o),
(418,71,c),
(364,44,o),
(310,27,o),
(259,27,cs),
(148,24,o),
(68,102,o),
(66,237,cs)
);
},
{
closed = 1;
nodes = (
(462,619,o),
(464,634,o),
(468,649,c),
(495,664,o),
(522,673,o),
(545,673,cs),
(595,673,o),
(624,645,o),
(624,603,cs),
(624,553,o),
(583,516,o),
(544,516,cs),
(505,516,o),
(464,546,o),
(462,606,cs)
);
}
);
userData = {
com.schriftgestaltung.Glyphs.lastChange = "2025-09-28 13:29:25 +0000";
};
width = 837;
}
);
unicode = 81;
},
{
glyphname = R;
kernLeft = R;
kernRight = R;
layers = (
{
layerId = m01;
shapes = (
{
closed = 1;
nodes = (
(390,514,o),
(408,537,o),
(437,537,cs),
(452,537,o),
(465,533,o),
(477,525,c),
(542,648,o),
(608,768,o),
(676,840,c),
(663,842,o),
(649,842,o),
(634,842,cs),
(576,842,o),
(523,828,o),
(485,807,c),
(477,736,o),
(442,675,o),
(390,675,cs),
(377,675,o),
(369,684,o),
(369,695,cs),
(369,732,o),
(405,784,o),
(475,822,c),
(477,839,o),
(479,857,o),
(477,875,c),
(485,875,l),
(487,860,o),
(487,844,o),
(486,829,c),
(538,854,o),
(605,872,o),
(688,872,cs),
(696,872,o),
(703,872,o),
(710,871,c),
(742,897,o),
(774,912,o),
(807,912,cs),
(853,912,o),
(897,891,o),
(941,843,c),
(933,836,l),
(903,863,o),
(875,883,o),
(839,883,cs),
(814,883,o),
(791,876,o),
(768,864,c),
(886,839,o),
(945,757,o),
(945,674,cs),
(945,508,o),
(717,364,o),
(554,359,c),
(595,218,o),
(645,47,o),
(842,47,cs),
(886,47,o),
(928,68,o),
(947,100,c),
(915,104,o),
(887,145,o),
(887,174,cs),
(887,195,o),
(899,204,o),
(912,204,cs),
(941,204,o),
(966,174,o),
(966,135,cs),
(966,127,o),
(966,120,o),
(963,112,c),
(980,113,o),
(993,123,o),
(1002,131,c),
(1008,124,l),
(997,115,o),
(982,102,o),
(959,99,c),
(933,36,o),
(842,-13,o),
(783,-13,cs),
(591,-13,o),
(549,213,o),
(508,361,c),
(484,366,o),
(464,374,o),
(448,384,c),
(341,179,o),
(227,-12,o),
(76,-12,cs),
(40,-12,o),
(0,8,o),
(0,69,cs),
(0,184,o),
(132,356,o),
(223,356,cs),
(254,356,o),
(277,333,o),
(277,298,cs),
(277,252,o),
(233,204,o),
(152,146,c),
(147,154,l),
(210,198,o),
(238,243,o),
(238,266,cs),
(238,284,o),
(230,300,o),
(205,300,cs),
(143,300,o),
(45,231,o),
(45,117,cs),
(45,79,o),
(68,59,o),
(100,59,cs),
(215,59,o),
(316,225,o),
(416,411,c),
(398,433,o),
(390,459,o),
(390,482,cs)
);
},
{
closed = 1;
nodes = (
(404,453,o),
(410,437,o),
(422,422,c),
(432,441,o),
(443,461,o),
(453,481,c),
(446,487,o),
(438,490,o),
(428,490,cs),
(416,490,o),
(404,485,o),
(404,463,cs)
);
},
{
closed = 1;
nodes = (
(416,725,o),
(420,722,o),
(424,722,cs),
(438,722,o),
(459,754,o),
(470,799,c),
(437,779,o),
(416,754,o),
(416,733,cs)
);
},
{
closed = 1;
nodes = (
(467,388,o),
(483,382,o),
(503,378,c),
(495,404,o),
(487,426,o),
(479,444,c),
(454,396,l)
);
},
{
closed = 1;
nodes = (
(523,464,o),
(536,422,o),
(549,375,c),
(675,382,o),
(866,516,o),
(866,670,cs),
(866,732,o),
(818,804,o),
(721,831,c),
(644,761,o),
(575,631,o),
(504,493,c)
);
},
{
closed = 1;
nodes = (
(917,140,o),
(932,117,o),
(953,112,c),
(955,120,o),
(956,127,o),
(956,135,cs),
(956,158,o),
(942,174,o),
(929,174,cs),
(921,174,o),
(917,168,o),
(917,159,cs)
);
}
);
userData = {
com.schriftgestaltung.Glyphs.lastChange = "2025-09-28 13:29:49 +0000";
};
width = 1044;
}
);
unicode = 82;
},
{
glyphname = S;
kernLeft = S;
kernRight = S;
layers = (
{
layerId = m01;
shapes = (
{
closed = 1;
nodes = (
(328,801,l),
(302,785,o),
(284,766,o),
(284,744,cs),
(284,729,o),
(300,720,o),
(322,720,cs),
(325,720,o),
(328,720,o),
(332,721,c),
(364,771,o),
(414,801,o),
(457,801,cs),
(471,801,o),
(482,796,o),
(482,781,cs),
(482,742,o),
(426,715,o),
(356,706,c),
(346,684,o),
(340,658,o),
(340,629,cs),
(340,541,o),
(413,492,o),
(498,492,cs),
(512,492,l),
(639,703,o),
(758,911,o),
(855,911,cs),
(883,911,o),
(904,891,o),
(904,854,cs),
(904,707,o),
(772,509,o),
(563,463,c),
(427,232,o),
(261,-12,o),
(76,-12,cs),
(40,-12,o),
(0,8,o),
(0,69,cs),
(0,136,o),
(35,206,o),
(81,260,c),
(64,274,o),
(48,291,o),
(32,310,c),
(39,319,l),
(55,300,o),
(72,283,o),
(89,269,c),
(135,319,o),
(189,353,o),
(230,353,cs),
(266,353,o),
(289,326,o),
(289,294,cs),
(289,245,o),
(249,212,o),
(189,212,cs),
(158,212,o),
(130,224,o),
(102,243,c),
(73,210,o),
(52,166,o),
(52,117,cs),
(52,92,o),
(68,59,o),
(107,59,cs),
(234,59,o),
(364,251,o),
(488,453,c),
(472,453,ls),
(388,453,o),
(299,503,o),
(299,603,cs),
(299,641,o),
(307,675,o),
(322,703,c),
(315,703,ls),
(285,702,o),
(266,716,o),
(266,737,cs),
(266,766,o),
(287,790,o),
(322,809,c)
);
},
{
closed = 1;
nodes = (
(136,235,o),
(163,225,o),
(192,225,cs),
(232,225,o),
(261,240,o),
(261,271,cs),
(261,293,o),
(244,307,o),
(221,307,cs),
(186,307,o),
(144,287,o),
(111,253,c)
);
},
{
closed = 1;
nodes = (
(412,737,o),
(468,760,o),
(468,780,cs),
(468,786,o),
(464,790,o),
(456,790,cs),
(428,790,o),
(391,768,o),
(366,726,c)
);
},
{
closed = 1;
nodes = (
(763,554,o),
(883,736,o),
(883,835,cs),
(883,858,o),
(874,871,o),
(857,871,cs),
(792,871,o),
(701,698,o),
(588,505,c)
);
}
);
userData = {
com.schriftgestaltung.Glyphs.lastChange = "2025-09-28 13:30:04 +0000";
};
width = 472;
}
);
unicode = 83;
},
{
glyphname = Germandbls;
layers = (
{
layerId = m01;
shapes = (
{
closed = 1;
nodes = (
(-260,-85,l),
(-343,-123,o),
(-400,-187,o),
(-400,-274,cs),
(-400,-342,o),
(-366,-375,o),
(-299,-375,cs),
(74,-375,o),
(286,831,o),
(646,831,cs),
(713,831,o),
(750,795,o),
(750,739,cs),
(750,609,o),
(542,522,o),
(374,461,c),
(378,452,l),
(435,473,o),
(472,480,o),
(505,480,cs),
(616,480,o),
(659,414,o),
(659,341,cs),
(659,198,o),
(488,44,o),
(336,44,cs),
(258,44,o),
(224,76,o),
(224,121,cs),
(224,194,o),
(291,237,o),
(339,253,c),
(335,263,l),
(252,232,o),
(172,170,o),
(170,83,cs),
(169,24,o),
(209,-12,o),
(281,-12,cs),
(469,-12,o),
(722,220,o),
(722,384,cs),
(722,447,o),
(677,512,o),
(581,512,cs),
(568,512,o),
(556,511,o),
(540,507,c),
(540,509,l),
(627,537,o),
(825,635,o),
(825,787,cs),
(825,854,o),
(764,912,o),
(672,912,cs),
(270,912,o),
(90,-282,o),
(-269,-282,cs),
(-316,-282,o),
(-341,-252,o),
(-341,-213,cs),
(-341,-184,o),
(-323,-130,o),
(-255,-96,c)
);
}
);
userData = {
com.schriftgestaltung.Glyphs.lastChange = "2025-09-27 11:24:01 +0000";
};
width = 690;
}
);
unicode = 7838;
},
{
glyphname = T;
kernLeft = T;
kernRight = T;
layers = (
{
layerId = m01;
shapes = (
{
closed = 1;
nodes = (
(759,850,o),
(644,786,o),
(536,694,c),
(596,688,o),
(658,683,o),
(723,683,cs),
(870,683,o),
(968,703,o),
(968,766,cs),
(967,820,o),
(921,850,o),
(853,850,cs)
);
},
{
closed = 1;
nodes = (
(0,665,o),
(89,723,o),
(209,723,cs),
(307,723,o),
(405,708,o),
(507,697,c),
(644,821,o),
(792,912,o),
(907,912,cs),
(981,912,o),
(1028,862,o),
(1028,801,cs),
(1028,708,o),
(917,665,o),
(751,665,cs),
(668,665,o),
(589,671,o),
(516,678,c),
(444,612,o),
(374,534,o),
(318,456,c),
(418,461,o),
(506,481,o),
(557,509,c),
(545,520,o),
(537,535,o),
(536,553,cs),
(535,585,o),
(559,613,o),
(586,613,cs),
(612,613,o),
(631,598,o),
(631,571,cs),
(631,546,o),
(611,523,o),
(578,505,c),
(590,498,o),
(606,495,o),
(624,496,c),
(624,488,l),
(604,487,o),
(585,492,o),
(570,500,c),
(509,468,o),
(410,446,o),
(307,439,c),
(235,333,o),
(187,228,o),
(187,150,cs),
(187,74,o),
(247,40,o),
(325,40,cs),
(448,40,o),
(557,122,o),
(557,224,cs),
(557,267,o),
(536,279,o),
(514,279,cs),
(487,279,o),
(442,255,o),
(405,171,c),
(395,171,l),
(428,256,o),
(495,329,o),
(556,329,cs),
(593,329,o),
(619,300,o),
(619,262,cs),
(619,146,o),
(453,-12,o),
(246,-12,cs),
(153,-12,o),
(109,32,o),
(109,90,cs),
(109,175,o),
(174,305,o),
(271,437,c),
(258,436,o),
(244,436,o),
(230,436,cs),
(89,436,o),
(0,498,o),
(0,581,cs)
);
},
{
closed = 1;
nodes = (
(80,506,o),
(152,454,o),
(271,454,cs),
(284,454,l),
(343,533,o),
(414,611,o),
(487,680,c),
(418,685,o),
(355,690,o),
(301,690,cs),
(154,690,o),
(80,649,o),
(80,574,cs)
);
},
{
closed = 1;
nodes = (
(549,537,o),
(554,524,o),
(564,514,c),
(588,529,o),
(602,546,o),
(602,564,cs),
(602,578,o),
(590,588,o),
(578,588,cs),
(562,588,o),
(549,569,o),
(549,550,cs)
);
}
);
userData = {
com.schriftgestaltung.Glyphs.lastChange = "2025-09-28 13:30:44 +0000";
};
width = 639;
}
);
unicode = 84;
},
{
glyphname = U;
kernLeft = U;
kernRight = U;
layers = (
{
layerId = m01;
shapes = (
{
closed = 1;
nodes = (
(48,-12,o),
(0,22,o),
(0,80,cs),
(0,259,o),
(582,743,o),
(582,855,cs),
(582,866,o),
(578,876,o),
(564,876,cs),
(528,876,o),
(250,554,o),
(128,554,cs),
(102,554,o),
(81,570,o),
(81,604,cs),
(81,616,o),
(86,631,o),
(95,647,c),
(68,647,o),
(51,662,o),
(51,681,cs),
(51,710,o),
(73,734,o),
(107,753,c),
(113,744,l),
(87,729,o),
(69,710,o),
(69,688,cs),
(69,672,o),
(85,664,o),
(107,664,c),
(138,706,o),
(192,747,o),
(243,747,cs),
(256,747,o),
(268,739,o),
(268,725,cs),
(268,684,o),
(205,655,o),
(129,648,c),
(127,643,o),
(125,638,o),
(125,633,cs),
(125,616,o),
(142,600,o),
(168,600,cs),
(282,600,o),
(521,912,o),
(602,912,cs),
(625,912,o),
(648,900,o),
(648,868,cs),
(648,759,o),
(91,326,o),
(91,160,cs),
(91,112,o),
(117,81,o),
(174,82,cs),
(271,84,o),
(431,226,o),
(580,392,c),
(706,631,o),
(909,912,o),
(956,912,cs),
(964,912,o),
(968,906,o),
(968,897,cs),
(968,854,o),
(829,646,o),
(656,440,c),
(603,328,o),
(564,219,o),
(564,145,cs),
(564,82,o),
(597,57,o),
(643,57,cs),
(769,57,o),
(843,208,o),
(843,267,cs),
(843,296,o),
(829,308,o),
(814,308,cs),
(781,308,o),
(729,255,o),
(691,171,c),
(682,171,l),
(715,256,o),
(782,365,o),
(835,365,cs),
(860,365,o),
(882,350,o),
(882,312,cs),
(882,211,o),
(761,-12,o),
(586,-12,cs),
(526,-12,o),
(477,27,o),
(477,112,cs),
(477,157,o),
(500,227,o),
(538,307,c),
(375,132,o),
(203,-12,o),
(93,-12,cs)
);
},
{
closed = 1;
nodes = (
(188,678,o),
(253,702,o),
(253,724,cs),
(253,730,o),
(250,734,o),
(241,734,cs),
(218,734,o),
(167,701,o),
(141,668,c)
);
},
{
closed = 1;
nodes = (
(847,711,o),
(958,872,o),
(958,892,cs),
(958,896,o),
(955,899,o),
(952,899,cs),
(929,899,o),
(806,726,o),
(704,536,c)
);
}
);
userData = {
com.schriftgestaltung.Glyphs.lastChange = "2025-09-28 13:31:29 +0000";
};
width = 882;
}
);
unicode = 85;
},
{
glyphname = V;
kernLeft = V;
kernRight = V;
layers = (
{
layerId = m01;
shapes = (
{
closed = 1;
nodes = (
(796,859,o),
(822,884,o),
(845,884,cs),
(870,884,o),
(892,865,o),
(892,834,cs),
(892,817,o),
(885,793,o),
(872,763,c),
(863,762,ls),
(824,762,o),
(798,786,o),
(797,822,cs)
);
},
{
closed = 1;
nodes = (
(51,662,o),
(68,647,o),
(95,647,c),
(86,631,o),
(81,616,o),
(81,604,cs),
(81,570,o),
(102,554,o),
(128,554,cs),
(250,554,o),
(528,876,o),
(564,876,cs),
(578,876,o),
(582,866,o),
(582,855,cs),
(582,743,o),
(79,259,o),
(79,80,cs),
(79,22,o),
(127,-12,o),
(158,-12,cs),
(393,-12,o),
(786,489,o),
(897,747,c),
(945,769,o),
(989,803,o),
(1009,819,c),
(1002,827,l),
(986,814,o),
(951,783,o),
(906,770,c),
(920,805,o),
(928,834,o),
(928,857,cs),
(928,892,o),
(906,912,o),
(876,912,cs),
(812,912,o),
(766,834,o),
(766,786,cs),
(766,756,o),
(786,728,o),
(824,728,cs),
(835,728,o),
(847,730,o),
(858,733,c),
(752,513,o),
(418,73,o),
(239,73,cs),
(189,73,o),
(160,104,o),
(160,148,cs),
(160,325,o),
(648,770,o),
(648,868,cs),
(648,900,o),
(625,912,o),
(602,912,cs),
(521,912,o),
(282,600,o),
(168,600,cs),
(142,600,o),
(125,616,o),
(125,633,cs),
(125,638,o),
(127,643,o),
(129,648,c),
(205,655,o),
(268,684,o),
(268,725,cs),
(268,739,o),
(256,747,o),
(243,747,cs),
(192,747,o),
(138,706,o),
(107,664,c),
(85,664,o),
(69,672,o),
(69,688,cs),
(69,710,o),
(87,729,o),
(113,744,c),
(107,753,l),
(73,734,o),
(51,710,o),
(51,681,cs)
);
},
{
closed = 1;
nodes = (
(167,701,o),
(218,734,o),
(241,734,cs),
(250,734,o),
(253,730,o),
(253,724,cs),
(253,702,o),
(188,678,o),
(141,668,c)
);
}
);
userData = {
com.schriftgestaltung.Glyphs.lastChange = "2025-09-28 13:31:25 +0000";
};
width = 595;
}
);
unicode = 86;
},
{
glyphname = W;
kernLeft = W;
kernRight = W;
layers = (
{
layerId = m01;
shapes = (
{
closed = 1;
nodes = (
(815,58,o),
(1072,460,o),
(1152,684,c),
(1137,680,o),
(1122,678,o),
(1109,678,cs),
(1049,678,o),
(1036,721,o),
(1036,743,cs),
(1036,813,o),
(1097,912,o),
(1157,912,cs),
(1198,912,o),
(1214,878,o),
(1214,828,cs),
(1214,802,o),
(1206,764,o),
(1191,717,c),
(1230,729,o),
(1264,750,o),
(1286,762,c),
(1294,754,l),
(1262,733,o),
(1223,710,o),
(1184,695,c),
(1098,441,o),
(841,-12,o),
(615,-12,cs),
(554,-12,o),
(501,32,o),
(501,133,cs),
(501,174,o),
(518,233,o),
(547,300,c),
(393,129,o),
(230,-12,o),
(122,-12,cs),
(76,-12,o),
(29,22,o),
(29,80,cs),
(29,259,o),
(611,743,o),
(611,855,cs),
(611,866,o),
(607,876,o),
(593,876,cs),
(557,876,o),
(279,554,o),
(157,554,cs),
(130,554,o),
(109,570,o),
(109,604,cs),
(109,616,o),
(114,631,o),
(124,647,c),
(97,647,o),
(80,662,o),
(80,681,cs),
(80,710,o),
(102,734,o),
(136,753,c),
(142,744,l),
(116,729,o),
(98,710,o),
(98,688,cs),
(98,672,o),
(114,664,o),
(135,664,c),
(167,706,o),
(221,747,o),
(272,747,cs),
(285,747,o),
(297,739,o),
(297,725,cs),
(297,684,o),
(234,655,o),
(158,648,c),
(156,643,o),
(154,638,o),
(154,633,cs),
(154,616,o),
(171,600,o),
(197,600,cs),
(311,600,o),
(550,912,o),
(631,912,cs),
(654,912,o),
(677,900,o),
(677,868,cs),
(677,766,o),
(116,318,o),
(116,154,cs),
(116,109,o),
(142,78,o),
(199,79,cs),
(294,81,o),
(442,217,o),
(582,379,c),
(698,618,o),
(900,912,o),
(949,912,cs),
(957,912,o),
(961,906,o),
(961,897,cs),
(961,852,o),
(826,638,o),
(656,428,c),
(612,330,o),
(580,238,o),
(580,180,cs),
(580,88,o),
(618,58,o),
(669,58,cs)
);
},
{
closed = 1;
nodes = (
(217,678,o),
(282,702,o),
(282,724,cs),
(282,730,o),
(279,734,o),
(270,734,cs),
(247,734,o),
(196,701,o),
(170,668,c)
);
},
{
closed = 1;
nodes = (
(842,703,o),
(950,872,o),
(950,892,cs),
(950,896,o),
(948,899,o),
(945,899,cs),
(921,899,o),
(798,714,o),
(702,525,c)
);
},
{
closed = 1;
nodes = (
(1065,742,o),
(1086,709,o),
(1141,709,cs),
(1148,709,o),
(1154,710,o),
(1161,711,c),
(1171,742,o),
(1176,770,o),
(1176,791,cs),
(1176,833,o),
(1157,860,o),
(1128,860,cs),
(1086,860,o),
(1063,816,o),
(1064,781,cs)
);
}
);
userData = {
com.schriftgestaltung.Glyphs.lastChange = "2025-09-28 13:31:50 +0000";
};
width = 970;
}
);
unicode = 87;
},
{
glyphname = X;
kernLeft = X;
kernRight = X;
layers = (
{
layerId = m01;
shapes = (
{
closed = 1;
nodes = (
(558,881,o),
(564,871,o),
(564,857,cs),
(564,835,o),
(541,801,o),
(505,770,c),
(514,856,o),
(534,881,o),
(547,881,cs)
);
},
{
closed = 1;
nodes = (
(0,8,o),
(40,-12,o),
(85,-12,cs),
(202,-12,o),
(369,111,o),
(518,269,c),
(562,63,o),
(638,-12,o),
(710,-12,cs),
(829,-12,o),
(909,132,o),
(909,230,cs),
(909,305,o),
(883,338,o),
(837,338,cs),
(793,338,o),
(746,295,o),
(746,248,cs),
(746,210,o),
(768,188,o),
(798,177,c),
(804,185,l),
(780,197,o),
(765,212,o),
(765,233,cs),
(765,261,o),
(789,284,o),
(823,284,cs),
(850,284,o),
(881,264,o),
(881,213,cs),
(881,111,o),
(814,66,o),
(734,66,cs),
(644,66,o),
(586,176,o),
(551,305,c),
(641,405,o),
(722,518,o),
(778,621,c),
(840,639,o),
(900,697,o),
(945,764,c),
(937,772,l),
(888,703,o),
(845,672,o),
(800,663,c),
(833,734,o),
(853,797,o),
(853,847,cs),
(853,876,o),
(834,912,o),
(801,912,cs),
(730,912,o),
(654,775,o),
(654,698,cs),
(654,642,o),
(688,615,o),
(731,613,c),
(683,530,o),
(616,435,o),
(540,348,c),
(511,472,o),
(501,605,o),
(501,674,cs),
(501,691,o),
(501,707,o),
(502,721,c),
(565,772,o),
(606,832,o),
(606,865,cs),
(606,895,o),
(593,912,o),
(571,912,cs),
(539,912,o),
(496,871,o),
(485,753,c),
(438,716,o),
(379,687,o),
(325,687,cs),
(299,687,o),
(282,702,o),
(282,719,cs),
(282,724,o),
(284,729,o),
(286,734,c),
(362,742,o),
(425,770,o),
(425,811,cs),
(425,826,o),
(413,833,o),
(398,833,cs),
(348,833,o),
(294,792,o),
(264,750,c),
(242,750,o),
(226,759,o),
(226,775,cs),
(226,796,o),
(244,815,o),
(270,831,c),
(264,840,l),
(230,820,o),
(208,796,o),
(208,768,cs),
(208,748,o),
(225,734,o),
(252,733,c),
(243,717,o),
(238,703,o),
(238,690,cs),
(238,656,o),
(258,640,o),
(292,640,cs),
(362,640,o),
(429,669,o),
(483,707,c),
(482,693,ls),
(482,537,o),
(492,413,o),
(510,314,c),
(379,171,o),
(230,55,o),
(125,55,cs),
(79,55,o),
(46,84,o),
(46,125,cs),
(46,240,o),
(132,300,o),
(191,300,cs),
(224,300,o),
(238,284,o),
(238,266,cs),
(238,243,o),
(210,198,o),
(147,154,c),
(152,146,l),
(233,204,o),
(277,252,o),
(277,298,cs),
(277,333,o),
(254,356,o),
(223,356,cs),
(132,356,o),
(0,184,o),
(0,69,cs)
);
},
{
closed = 1;
nodes = (
(325,788,o),
(377,822,o),
(400,822,cs),
(409,822,o),
(413,819,o),
(413,813,cs),
(413,791,o),
(346,765,o),
(298,755,c)
);
},
{
closed = 1;
nodes = (
(679,794,o),
(729,853,o),
(768,853,cs),
(786,853,o),
(801,840,o),
(801,801,cs),
(801,767,o),
(784,717,o),
(756,661,c),
(701,665,o),
(679,691,o),
(679,733,cs)
);
}
);
userData = {
com.schriftgestaltung.Glyphs.lastChange = "2025-09-28 13:31:58 +0000";
};
width = 945;
}
);
unicode = 88;
},
{
glyphname = Y;
kernLeft = Y;
kernRight = Y;
layers = (
{
layerId = m01;
shapes = (
{
closed = 1;
nodes = (
(1017,891,o),
(942,744,o),
(837,551,c),
(960,701,o),
(1054,852,o),
(1054,884,cs),
(1054,889,o),
(1052,891,o),
(1048,891,cs)
);
},
{
closed = 1;
nodes = (
(-180,-31,o),
(83,102,o),
(297,102,cs),
(382,102,o),
(441,84,o),
(492,65,c),
(555,148,o),
(614,238,o),
(670,328,c),
(564,233,o),
(451,166,o),
(348,166,cs),
(302,166,o),
(255,199,o),
(255,257,cs),
(255,442,o),
(650,700,o),
(650,833,cs),
(650,859,o),
(640,876,o),
(623,876,cs),
(564,876,o),
(301,554,o),
(186,554,cs),
(160,554,o),
(139,570,o),
(139,604,cs),
(139,616,o),
(144,631,o),
(153,647,c),
(127,647,o),
(109,662,o),
(109,681,cs),
(109,710,o),
(131,734,o),
(166,753,c),
(171,744,l),
(145,729,o),
(127,710,o),
(127,688,cs),
(127,672,o),
(143,664,o),
(165,664,c),
(197,706,o),
(251,747,o),
(302,747,cs),
(315,747,o),
(326,739,o),
(326,725,cs),
(326,684,o),
(264,655,o),
(187,648,c),
(185,643,o),
(184,638,o),
(184,633,cs),
(184,616,o),
(200,600,o),
(226,600,cs),
(341,600,o),
(565,912,o),
(660,912,cs),
(683,912,o),
(706,900,o),
(706,868,cs),
(706,744,o),
(323,474,o),
(323,325,cs),
(323,257,o),
(364,226,o),
(419,227,cs),
(508,228,o),
(624,318,o),
(732,431,c),
(883,688,o),
(996,912,o),
(1057,912,cs),
(1066,912,o),
(1070,906,o),
(1070,894,cs),
(1070,844,o),
(940,616,o),
(770,428,c),
(701,305,o),
(621,172,o),
(534,50,c),
(569,38,o),
(603,29,o),
(644,29,cs),
(729,29,o),
(780,89,o),
(793,145,c),
(755,150,o),
(734,177,o),
(734,199,cs),
(734,222,o),
(750,235,o),
(769,235,cs),
(789,235,o),
(814,217,o),
(814,167,cs),
(814,164,o),
(814,161,o),
(814,158,c),
(829,160,o),
(845,170,o),
(853,179,c),
(858,172,l),
(845,158,o),
(827,148,o),
(813,145,c),
(802,80,o),
(741,5,o),
(612,5,cs),
(570,5,o),
(538,9,o),
(508,15,c),
(346,-201,o),
(161,-372,o),
(-35,-372,cs),
(-125,-372,o),
(-180,-330,o),
(-180,-244,cs)
);
},
{
closed = 1;
nodes = (
(-150,-260,o),
(-122,-310,o),
(-41,-310,cs),
(140,-310,o),
(310,-165,o),
(460,24,c),
(415,33,o),
(362,42,o),
(275,42,cs),
(6,42,o),
(-150,-93,o),
(-150,-217,cs)
);
},
{
closed = 1;
nodes = (
(246,678,o),
(312,702,o),
(312,724,cs),
(312,730,o),
(308,734,o),
(300,734,cs),
(276,734,o),
(225,701,o),
(199,668,c)
);
},
{
closed = 1;
nodes = (
(747,181,o),
(761,162,o),
(795,158,c),
(796,170,ls),
(796,199,o),
(783,220,o),
(763,220,cs),
(754,220,o),
(747,212,o),
(747,204,cs)
);
}
);
userData = {
com.schriftgestaltung.Glyphs.lastChange = "2025-09-28 13:32:05 +0000";
};
width = 876;
}
);
unicode = 89;
},
{
glyphname = Yacute;
kernLeft = Y;
kernRight = Y;
layers = (
{
layerId = m01;
shapes = (
{
closed = 1;
nodes = (
(1017,891,o),
(942,744,o),
(837,551,c),
(960,701,o),
(1054,852,o),
(1054,884,cs),
(1054,889,o),
(1052,891,o),
(1048,891,cs)
);
},
{
closed = 1;
nodes = (
(-180,-31,o),
(83,102,o),
(297,102,cs),
(382,102,o),
(441,84,o),
(492,65,c),
(555,148,o),
(614,238,o),
(670,328,c),
(564,233,o),
(451,166,o),
(348,166,cs),
(302,166,o),
(255,199,o),
(255,257,cs),
(255,442,o),
(650,700,o),
(650,833,cs),
(650,859,o),
(640,876,o),
(623,876,cs),
(564,876,o),
(301,554,o),
(186,554,cs),
(160,554,o),
(139,570,o),
(139,604,cs),
(139,616,o),
(144,631,o),
(153,647,c),
(127,647,o),
(109,662,o),
(109,681,cs),
(109,710,o),
(131,734,o),
(166,753,c),
(171,744,l),
(145,729,o),
(127,710,o),
(127,688,cs),
(127,672,o),
(143,664,o),
(165,664,c),
(197,706,o),
(251,747,o),
(302,747,cs),
(315,747,o),
(326,739,o),
(326,725,cs),
(326,684,o),
(264,655,o),
(187,648,c),
(185,643,o),
(184,638,o),
(184,633,cs),
(184,616,o),
(200,600,o),
(226,600,cs),
(341,600,o),
(565,912,o),
(660,912,cs),
(683,912,o),
(706,900,o),
(706,868,cs),
(706,744,o),
(323,474,o),
(323,325,cs),
(323,257,o),
(364,226,o),
(419,227,cs),
(508,228,o),
(624,318,o),
(732,431,c),
(883,688,o),
(996,912,o),
(1057,912,cs),
(1066,912,o),
(1070,906,o),
(1070,894,cs),
(1070,844,o),
(940,616,o),
(770,428,c),
(701,305,o),
(621,172,o),
(534,50,c),
(569,38,o),
(603,29,o),
(644,29,cs),
(729,29,o),
(780,89,o),
(793,145,c),
(755,150,o),
(734,177,o),
(734,199,cs),
(734,222,o),
(750,235,o),
(769,235,cs),
(789,235,o),
(814,217,o),
(814,167,cs),
(814,164,o),
(814,161,o),
(814,158,c),
(829,160,o),
(845,170,o),
(853,179,c),
(858,172,l),
(845,158,o),
(827,148,o),
(813,145,c),
(802,80,o),
(741,5,o),
(612,5,cs),
(570,5,o),
(538,9,o),
(508,15,c),
(346,-201,o),
(161,-372,o),
(-35,-372,cs),
(-125,-372,o),
(-180,-330,o),
(-180,-244,cs)
);
},
{
closed = 1;
nodes = (
(-150,-260,o),
(-122,-310,o),
(-41,-310,cs),
(140,-310,o),
(310,-165,o),
(460,24,c),
(415,33,o),
(362,42,o),
(275,42,cs),
(6,42,o),
(-150,-93,o),
(-150,-217,cs)
);
},
{
closed = 1;
nodes = (
(246,678,o),
(312,702,o),
(312,724,cs),
(312,730,o),
(308,734,o),
(300,734,cs),
(276,734,o),
(225,701,o),
(199,668,c)
);
},
{
closed = 1;
nodes = (
(747,181,o),
(761,162,o),
(795,158,c),
(796,170,ls),
(798,199,o),
(783,220,o),
(763,220,cs),
(754,220,o),
(747,212,o),
(747,204,cs)
);
},
{
pos = (715,480);
ref = acutecomb;
}
);
userData = {
com.schriftgestaltung.Glyphs.lastChange = "2025-09-27 10:18:56 +0000";
};
width = 876;
}
);
unicode = 221;
},
{
glyphname = Ydieresis;
kernLeft = Y;
kernRight = Y;
layers = (
{
layerId = m01;
shapes = (
{
closed = 1;
nodes = (
(1017,891,o),
(942,744,o),
(837,551,c),
(960,701,o),
(1054,852,o),
(1054,884,cs),
(1054,889,o),
(1052,891,o),
(1048,891,cs)
);
},
{
closed = 1;
nodes = (
(-180,-31,o),
(83,102,o),
(297,102,cs),
(382,102,o),
(441,84,o),
(492,65,c),
(555,148,o),
(614,238,o),
(670,328,c),
(564,233,o),
(451,166,o),
(348,166,cs),
(302,166,o),
(255,199,o),
(255,257,cs),
(255,442,o),
(650,700,o),
(650,833,cs),
(650,859,o),
(640,876,o),
(623,876,cs),
(564,876,o),
(301,554,o),
(186,554,cs),
(160,554,o),
(139,570,o),
(139,604,cs),
(139,616,o),
(144,631,o),
(153,647,c),
(127,647,o),
(109,662,o),
(109,681,cs),
(109,710,o),
(131,734,o),
(166,753,c),
(171,744,l),
(145,729,o),
(127,710,o),
(127,688,cs),
(127,672,o),
(143,664,o),
(165,664,c),
(197,706,o),
(251,747,o),
(302,747,cs),
(315,747,o),
(326,739,o),
(326,725,cs),
(326,684,o),
(264,655,o),
(187,648,c),
(185,643,o),
(184,638,o),
(184,633,cs),
(184,616,o),
(200,600,o),
(226,600,cs),
(341,600,o),
(565,912,o),
(660,912,cs),
(683,912,o),
(706,900,o),
(706,868,cs),
(706,744,o),
(323,474,o),
(323,325,cs),
(323,257,o),
(364,226,o),
(419,227,cs),
(508,228,o),
(624,318,o),
(732,431,c),
(883,688,o),
(996,912,o),
(1057,912,cs),
(1066,912,o),
(1070,906,o),
(1070,894,cs),
(1070,844,o),
(940,616,o),
(770,428,c),
(701,305,o),
(621,172,o),
(534,50,c),
(569,38,o),
(603,29,o),
(644,29,cs),
(729,29,o),
(780,89,o),
(793,145,c),
(755,150,o),
(734,177,o),
(734,199,cs),
(734,222,o),
(750,235,o),
(769,235,cs),
(789,235,o),
(814,217,o),
(814,167,cs),
(814,164,o),
(814,161,o),
(814,158,c),
(829,160,o),
(845,170,o),
(853,179,c),
(858,172,l),
(845,158,o),
(827,148,o),
(813,145,c),
(802,80,o),
(741,5,o),
(612,5,cs),
(570,5,o),
(538,9,o),
(508,15,c),
(346,-201,o),
(161,-372,o),
(-35,-372,cs),
(-125,-372,o),
(-180,-330,o),
(-180,-244,cs)
);
},
{
closed = 1;
nodes = (
(-150,-260,o),
(-122,-310,o),
(-41,-310,cs),
(140,-310,o),
(310,-165,o),
(460,24,c),
(415,33,o),
(362,42,o),
(275,42,cs),
(6,42,o),
(-150,-93,o),
(-150,-217,cs)
);
},
{
closed = 1;
nodes = (
(246,678,o),
(312,702,o),
(312,724,cs),
(312,730,o),
(308,734,o),
(300,734,cs),
(276,734,o),
(225,701,o),
(199,668,c)
);
},
{
closed = 1;
nodes = (
(747,181,o),
(761,162,o),
(795,158,c),
(796,170,ls),
(798,199,o),
(783,220,o),
(763,220,cs),
(754,220,o),
(747,212,o),
(747,204,cs)
);
},
{
pos = (691,471);
ref = dieresiscomb;
}
);
userData = {
com.schriftgestaltung.Glyphs.lastChange = "2025-09-27 10:26:28 +0000";
};
width = 876;
}
);
unicode = 376;
},
{
glyphname = Z;
kernLeft = Z;
kernRight = Z;
layers = (
{
layerId = m01;
shapes = (
{
closed = 1;
nodes = (
(765,160,l),
(778,163,o),
(794,171,o),
(801,179,c),
(805,172,l),
(794,161,o),
(777,152,o),
(762,148,c),
(747,88,o),
(676,59,o),
(581,42,c),
(456,-171,o),
(130,-370,o),
(-48,-372,cs),
(-169,-372,o),
(-216,-302,o),
(-216,-240,cs),
(-216,60,o),
(251,23,o),
(533,56,c),
(547,90,o),
(563,127,o),
(563,180,cs),
(563,249,o),
(508,308,o),
(383,303,c),
(287,194,o),
(190,106,o),
(129,106,cs),
(104,106,o),
(87,120,o),
(87,143,cs),
(87,223,o),
(220,315,o),
(373,342,c),
(411,387,o),
(451,437,o),
(493,489,c),
(484,488,o),
(475,488,o),
(467,488,cs),
(415,488,o),
(377,510,o),
(377,554,cs),
(377,659,o),
(548,755,o),
(548,824,cs),
(548,857,o),
(523,876,o),
(485,876,cs),
(384,876,o),
(170,768,o),
(170,673,cs),
(170,647,o),
(190,627,o),
(221,627,cs),
(264,627,o),
(333,697,o),
(382,760,c),
(390,754,l),
(328,670,o),
(240,577,o),
(181,577,cs),
(143,577,o),
(131,604,o),
(131,630,cs),
(131,769,o),
(400,912,o),
(523,912,cs),
(571,912,o),
(600,889,o),
(600,853,cs),
(600,757,o),
(431,688,o),
(431,588,cs),
(431,554,o),
(456,536,o),
(529,534,c),
(681,722,o),
(842,912,o),
(935,912,cs),
(961,912,o),
(977,897,o),
(977,865,cs),
(977,739,o),
(768,531,o),
(538,494,c),
(498,445,o),
(458,395,o),
(418,348,c),
(433,349,o),
(449,350,o),
(464,350,cs),
(577,350,o),
(631,298,o),
(631,203,cs),
(631,158,o),
(618,112,o),
(595,67,c),
(665,81,o),
(716,104,o),
(732,145,c),
(694,150,o),
(675,177,o),
(675,199,cs),
(675,222,o),
(690,235,o),
(709,235,cs),
(729,235,o),
(765,216,o),
(765,173,c)
);
},
{
closed = 1;
nodes = (
(-130,-269,o),
(-63,-312,o),
(8,-312,cs),
(158,-312,o),
(431,-156,o),
(523,32,c),
(263,1,o),
(-130,13,o),
(-130,-190,cs)
);
},
{
closed = 1;
nodes = (
(153,181,o),
(168,171,o),
(186,171,cs),
(217,171,o),
(271,225,o),
(336,300,c),
(226,292,o),
(153,246,o),
(153,202,cs)
);
},
{
closed = 1;
nodes = (
(719,550,o),
(901,696,o),
(901,793,cs),
(901,817,o),
(886,832,o),
(865,832,cs),
(809,832,o),
(696,693,o),
(571,536,c)
);
},
{
closed = 1;
nodes = (
(687,181,o),
(701,161,o),
(736,158,c),
(737,163,o),
(738,169,o),
(738,175,cs),
(738,199,o),
(724,220,o),
(703,220,cs),
(694,220,o),
(687,212,o),
(687,204,cs)
);
}
);
userData = {
com.schriftgestaltung.Glyphs.lastChange = "2025-09-28 13:32:25 +0000";
};
width = 826;
}
);
unicode = 90;
},
{
glyphname = A.ss01;
kernLeft = A;
kernRight = A;
layers = (
{
layerId = m01;
shapes = (
{
closed = 1;
nodes = (
(174,-287,o),
(194,-255,o),
(233,-255,cs),
(267,-255,o),
(281,-282,o),
(281,-309,cs),
(281,-348,o),
(253,-382,o),
(200,-407,c),
(183,-384,o),
(174,-357,o),
(174,-328,cs)
);
},
{
closed = 1;
nodes = (
(-454,-419,o),
(-278,-466,o),
(-21,-466,cs),
(57,-466,o),
(126,-455,o),
(181,-436,c),
(230,-509,o),
(331,-553,o),
(468,-553,cs),
(750,-553,o),
(930,-402,o),
(1179,-349,c),
(1103,-405,o),
(1060,-470,o),
(1061,-539,cs),
(1061,-619,o),
(1150,-665,o),
(1269,-665,cs),
(1479,-665,o),
(1736,-585,o),
(1907,-494,c),
(1931,-541,o),
(1992,-559,o),
(2043,-559,cs),
(2159,-559,o),
(2210,-490,o),
(2303,-490,cs),
(2331,-490,o),
(2355,-495,o),
(2372,-503,c),
(2349,-514,o),
(2336,-531,o),
(2336,-554,cs),
(2336,-575,o),
(2351,-593,o),
(2378,-593,cs),
(2413,-593,o),
(2433,-574,o),
(2433,-544,cs),
(2433,-526,o),
(2426,-510,o),
(2412,-498,c),
(2442,-491,o),
(2482,-488,o),
(2530,-489,c),
(2530,-482,l),
(2482,-482,o),
(2439,-485,o),
(2406,-492,c),
(2384,-477,o),
(2352,-468,o),
(2309,-469,cs),
(2222,-472,o),
(2166,-542,o),
(2058,-541,cs),
(1998,-540,o),
(1953,-526,o),
(1939,-475,c),
(1974,-454,o),
(2005,-433,o),
(2029,-412,c),
(2077,-420,o),
(2129,-425,o),
(2189,-423,cs),
(2405,-416,o),
(2447,-372,o),
(2447,-323,cs),
(2447,-241,o),
(2259,-170,o),
(1884,-170,cs),
(1616,-170,o),
(1383,-227,o),
(1234,-313,c),
(1018,-338,o),
(744,-501,o),
(511,-501,cs),
(364,-501,o),
(266,-473,o),
(215,-423,c),
(284,-394,o),
(325,-351,o),
(325,-305,cs),
(325,-262,o),
(294,-233,o),
(247,-233,cs),
(202,-233,o),
(151,-265,o),
(151,-333,cs),
(151,-364,o),
(158,-393,o),
(171,-419,c),
(127,-434,o),
(69,-444,o),
(1,-444,cs),
(-233,-446,o),
(-379,-394,o),
(-379,-235,cs),
(-379,-76,o),
(-227,-12,o),
(37,89,c),
(37,82,o),
(36,76,o),
(36,69,cs),
(36,8,o),
(76,-12,o),
(112,-12,cs),
(229,-12,o),
(400,120,o),
(562,283,c),
(582,284,o),
(606,284,o),
(632,285,cs),
(640,285,o),
(649,286,o),
(659,287,c),
(633,208,o),
(616,138,o),
(616,90,cs),
(616,32,o),
(643,-12,o),
(699,-12,cs),
(874,-12,o),
(995,211,o),
(995,312,cs),
(995,350,o),
(973,365,o),
(948,365,cs),
(895,365,o),
(828,256,o),
(795,171,c),
(804,171,l),
(842,255,o),
(894,308,o),
(927,308,cs),
(942,308,o),
(956,296,o),
(956,267,cs),
(956,208,o),
(883,48,o),
(753,48,cs),
(711,48,o),
(680,73,o),
(680,143,cs),
(680,184,o),
(690,238,o),
(706,297,c),
(760,313,o),
(821,343,o),
(863,390,c),
(855,395,l),
(809,354,o),
(767,333,o),
(714,324,c),
(735,394,o),
(763,470,o),
(795,544,c),
(928,709,o),
(1023,855,o),
(1023,893,cs),
(1023,905,o),
(1017,912,o),
(1007,912,cs),
(961,912,o),
(864,748,o),
(766,554,c),
(698,475,o),
(619,388,o),
(541,313,c),
(495,309,o),
(433,286,o),
(339,218,c),
(344,210,l),
(406,250,o),
(451,269,o),
(506,277,c),
(379,148,o),
(240,50,o),
(164,50,cs),
(119,50,o),
(100,85,o),
(96,111,c),
(130,124,ls),
(281,182,o),
(313,252,o),
(313,298,cs),
(313,333,o),
(290,356,o),
(259,356,cs),
(176,356,o),
(59,213,o),
(39,101,c),
(-253,-8,o),
(-454,-81,o),
(-454,-247,cs)
);
},
{
closed = 1;
nodes = (
(94,124,ls),
(94,230,o),
(179,300,o),
(241,300,cs),
(266,300,o),
(274,284,o),
(274,266,cs),
(274,243,o),
(255,181,o),
(125,132,cs),
(94,121,l)
);
},
{
closed = 1;
nodes = (
(638,361,o),
(683,411,o),
(725,460,c),
(704,412,o),
(685,364,o),
(669,318,c),
(646,315,o),
(621,315,o),
(593,314,c)
);
},
{
closed = 1;
nodes = (
(903,779,o),
(976,899,o),
(1002,899,cs),
(1007,899,o),
(1009,896,o),
(1009,887,cs),
(1009,860,o),
(937,756,o),
(833,629,c)
);
},
{
closed = 1;
nodes = (
(1128,-436,o),
(1163,-384,o),
(1224,-341,c),
(1264,-334,o),
(1307,-330,o),
(1351,-330,cs),
(1392,-330,o),
(1426,-333,o),
(1453,-337,c),
(1426,-355,o),
(1410,-379,o),
(1410,-412,cs),
(1410,-448,o),
(1443,-479,o),
(1492,-479,cs),
(1540,-479,o),
(1575,-449,o),
(1575,-409,cs),
(1575,-380,o),
(1563,-354,o),
(1517,-336,c),
(1542,-329,o),
(1574,-326,o),
(1614,-326,cs),
(1726,-327,o),
(1812,-357,o),
(1907,-384,c),
(1899,-403,o),
(1895,-424,o),
(1895,-445,cs),
(1895,-456,o),
(1896,-467,o),
(1899,-476,c),
(1752,-553,o),
(1535,-624,o),
(1356,-624,cs),
(1210,-624,o),
(1128,-585,o),
(1128,-490,cs)
);
},
{
closed = 1;
nodes = (
(1410,-234,o),
(1631,-184,o),
(1870,-184,cs),
(2187,-184,o),
(2390,-233,o),
(2390,-318,cs),
(2390,-387,o),
(2313,-413,o),
(2173,-413,cs),
(2123,-413,o),
(2080,-408,o),
(2041,-402,c),
(2073,-372,o),
(2092,-343,o),
(2092,-317,cs),
(2092,-289,o),
(2072,-273,o),
(2039,-273,cs),
(1990,-273,o),
(1939,-314,o),
(1912,-369,c),
(1817,-338,o),
(1734,-303,o),
(1611,-304,cs),
(1557,-304,o),
(1511,-311,o),
(1477,-325,c),
(1434,-315,o),
(1374,-310,o),
(1288,-310,cs),
(1273,-310,l)
);
},
{
closed = 1;
nodes = (
(1454,-379,o),
(1467,-359,o),
(1493,-346,c),
(1539,-360,o),
(1554,-383,o),
(1554,-406,cs),
(1554,-433,o),
(1530,-456,o),
(1503,-456,cs),
(1474,-456,o),
(1454,-436,o),
(1454,-406,cs)
);
},
{
closed = 1;
nodes = (
(1934,-421,o),
(1936,-407,o),
(1940,-393,c),
(1962,-399,o),
(1985,-404,o),
(2009,-408,c),
(1989,-424,o),
(1963,-441,o),
(1935,-456,c),
(1935,-451,o),
(1934,-444,o),
(1934,-437,cs)
);
},
{
closed = 1;
nodes = (
(1963,-332,o),
(2000,-300,o),
(2032,-300,cs),
(2058,-300,o),
(2069,-314,o),
(2069,-331,cs),
(2069,-350,o),
(2051,-373,o),
(2022,-398,c),
(1994,-393,o),
(1969,-387,o),
(1945,-379,c)
);
},
{
closed = 1;
nodes = (
(2348,-533,o),
(2359,-518,o),
(2382,-508,c),
(2399,-518,o),
(2408,-533,o),
(2408,-547,cs),
(2408,-568,o),
(2395,-580,o),
(2375,-580,cs),
(2360,-580,o),
(2348,-570,o),
(2348,-552,cs)
);
}
);
userData = {
com.schriftgestaltung.Glyphs.lastChange = "2025-09-23 10:46:54 +0000";
};
width = 995;
}
);
},
{
glyphname = Aacute.ss01;
kernLeft = A;
kernRight = A;
layers = (
{
layerId = m01;
shapes = (
{
closed = 1;
nodes = (
(174,-287,o),
(194,-255,o),
(233,-255,cs),
(267,-255,o),
(281,-282,o),
(281,-309,cs),
(281,-348,o),
(253,-382,o),
(200,-407,c),
(183,-384,o),
(174,-357,o),
(174,-328,cs)
);
},
{
closed = 1;
nodes = (
(-454,-419,o),
(-278,-466,o),
(-21,-466,cs),
(57,-466,o),
(126,-455,o),
(181,-436,c),
(230,-509,o),
(331,-553,o),
(468,-553,cs),
(750,-553,o),
(930,-402,o),
(1179,-349,c),
(1103,-405,o),
(1060,-470,o),
(1061,-539,cs),
(1061,-619,o),
(1150,-665,o),
(1269,-665,cs),
(1479,-665,o),
(1736,-585,o),
(1907,-494,c),
(1931,-541,o),
(1992,-559,o),
(2043,-559,cs),
(2159,-559,o),
(2210,-490,o),
(2303,-490,cs),
(2331,-490,o),
(2355,-495,o),
(2372,-503,c),
(2349,-514,o),
(2336,-531,o),
(2336,-554,cs),
(2336,-575,o),
(2351,-593,o),
(2378,-593,cs),
(2413,-593,o),
(2433,-574,o),
(2433,-544,cs),
(2433,-526,o),
(2426,-510,o),
(2412,-498,c),
(2442,-491,o),
(2482,-488,o),
(2530,-489,c),
(2530,-482,l),
(2482,-482,o),
(2439,-485,o),
(2406,-492,c),
(2384,-477,o),
(2352,-468,o),
(2309,-469,cs),
(2222,-472,o),
(2166,-542,o),
(2058,-541,cs),
(1998,-540,o),
(1953,-526,o),
(1939,-475,c),
(1974,-454,o),
(2005,-433,o),
(2029,-412,c),
(2077,-420,o),
(2129,-425,o),
(2189,-423,cs),
(2405,-416,o),
(2447,-372,o),
(2447,-323,cs),
(2447,-241,o),
(2259,-170,o),
(1884,-170,cs),
(1616,-170,o),
(1383,-227,o),
(1234,-313,c),
(1018,-338,o),
(744,-501,o),
(511,-501,cs),
(364,-501,o),
(266,-473,o),
(215,-423,c),
(284,-394,o),
(325,-351,o),
(325,-305,cs),
(325,-262,o),
(294,-233,o),
(247,-233,cs),
(202,-233,o),
(151,-265,o),
(151,-333,cs),
(151,-364,o),
(158,-393,o),
(171,-419,c),
(127,-434,o),
(69,-444,o),
(1,-444,cs),
(-233,-446,o),
(-379,-394,o),
(-379,-235,cs),
(-379,-76,o),
(-227,-12,o),
(37,89,c),
(37,82,o),
(36,76,o),
(36,69,cs),
(36,8,o),
(76,-12,o),
(112,-12,cs),
(229,-12,o),
(400,120,o),
(562,283,c),
(582,284,o),
(606,284,o),
(632,285,cs),
(640,285,o),
(649,286,o),
(659,287,c),
(633,208,o),
(616,138,o),
(616,90,cs),
(616,32,o),
(643,-12,o),
(699,-12,cs),
(874,-12,o),
(995,211,o),
(995,312,cs),
(995,350,o),
(973,365,o),
(948,365,cs),
(895,365,o),
(828,256,o),
(795,171,c),
(804,171,l),
(842,255,o),
(894,308,o),
(927,308,cs),
(942,308,o),
(956,296,o),
(956,267,cs),
(956,208,o),
(883,48,o),
(753,48,cs),
(711,48,o),
(680,73,o),
(680,143,cs),
(680,184,o),
(690,238,o),
(706,297,c),
(760,313,o),
(821,343,o),
(863,390,c),
(855,395,l),
(809,354,o),
(767,333,o),
(714,324,c),
(735,394,o),
(763,470,o),
(795,544,c),
(928,709,o),
(1023,855,o),
(1023,893,cs),
(1023,905,o),
(1017,912,o),
(1007,912,cs),
(961,912,o),
(864,748,o),
(766,554,c),
(698,475,o),
(619,388,o),
(541,313,c),
(495,309,o),
(433,286,o),
(339,218,c),
(344,210,l),
(406,250,o),
(451,269,o),
(506,277,c),
(379,148,o),
(240,50,o),
(164,50,cs),
(119,50,o),
(100,85,o),
(96,111,c),
(130,124,ls),
(281,182,o),
(313,252,o),
(313,298,cs),
(313,333,o),
(290,356,o),
(259,356,cs),
(176,356,o),
(59,213,o),
(39,101,c),
(-253,-8,o),
(-454,-81,o),
(-454,-247,cs)
);
},
{
closed = 1;
nodes = (
(94,124,ls),
(94,230,o),
(179,300,o),
(241,300,cs),
(266,300,o),
(274,284,o),
(274,266,cs),
(274,243,o),
(255,181,o),
(125,132,cs),
(94,121,l)
);
},
{
closed = 1;
nodes = (
(638,361,o),
(683,411,o),
(725,460,c),
(704,412,o),
(685,364,o),
(669,318,c),
(646,315,o),
(621,315,o),
(593,314,c)
);
},
{
closed = 1;
nodes = (
(903,779,o),
(976,899,o),
(1002,899,cs),
(1007,899,o),
(1009,896,o),
(1009,887,cs),
(1009,860,o),
(937,756,o),
(833,629,c)
);
},
{
closed = 1;
nodes = (
(1128,-436,o),
(1163,-384,o),
(1224,-341,c),
(1264,-334,o),
(1307,-330,o),
(1351,-330,cs),
(1392,-330,o),
(1426,-333,o),
(1453,-337,c),
(1426,-355,o),
(1410,-379,o),
(1410,-412,cs),
(1410,-448,o),
(1443,-479,o),
(1492,-479,cs),
(1540,-479,o),
(1575,-449,o),
(1575,-409,cs),
(1575,-380,o),
(1563,-354,o),
(1517,-336,c),
(1542,-329,o),
(1574,-326,o),
(1614,-326,cs),
(1726,-327,o),
(1812,-357,o),
(1907,-384,c),
(1899,-403,o),
(1895,-424,o),
(1895,-445,cs),
(1895,-456,o),
(1896,-467,o),
(1899,-476,c),
(1752,-553,o),
(1535,-624,o),
(1356,-624,cs),
(1210,-624,o),
(1128,-585,o),
(1128,-490,cs)
);
},
{
closed = 1;
nodes = (
(1410,-234,o),
(1631,-184,o),
(1870,-184,cs),
(2187,-184,o),
(2390,-233,o),
(2390,-318,cs),
(2390,-387,o),
(2313,-413,o),
(2173,-413,cs),
(2123,-413,o),
(2080,-408,o),
(2041,-402,c),
(2073,-372,o),
(2092,-343,o),
(2092,-317,cs),
(2092,-289,o),
(2072,-273,o),
(2039,-273,cs),
(1990,-273,o),
(1939,-314,o),
(1912,-369,c),
(1817,-338,o),
(1734,-303,o),
(1611,-304,cs),
(1557,-304,o),
(1511,-311,o),
(1477,-325,c),
(1434,-315,o),
(1374,-310,o),
(1288,-310,cs),
(1273,-310,l)
);
},
{
closed = 1;
nodes = (
(1454,-379,o),
(1467,-359,o),
(1493,-346,c),
(1539,-360,o),
(1554,-383,o),
(1554,-406,cs),
(1554,-433,o),
(1530,-456,o),
(1503,-456,cs),
(1474,-456,o),
(1454,-436,o),
(1454,-406,cs)
);
},
{
closed = 1;
nodes = (
(1934,-421,o),
(1936,-407,o),
(1940,-393,c),
(1962,-399,o),
(1985,-404,o),
(2009,-408,c),
(1989,-424,o),
(1963,-441,o),
(1935,-456,c),
(1935,-451,o),
(1934,-444,o),
(1934,-437,cs)
);
},
{
closed = 1;
nodes = (
(1963,-332,o),
(2000,-300,o),
(2032,-300,cs),
(2058,-300,o),
(2069,-314,o),
(2069,-331,cs),
(2069,-350,o),
(2051,-373,o),
(2022,-398,c),
(1994,-393,o),
(1969,-387,o),
(1945,-379,c)
);
},
{
closed = 1;
nodes = (
(2348,-533,o),
(2359,-518,o),
(2382,-508,c),
(2399,-518,o),
(2408,-533,o),
(2408,-547,cs),
(2408,-568,o),
(2395,-580,o),
(2375,-580,cs),
(2360,-580,o),
(2348,-570,o),
(2348,-552,cs)
);
},
{
pos = (817,450);
ref = acutecomb;
}
);
userData = {
com.schriftgestaltung.Glyphs.lastChange = "2025-09-27 09:04:57 +0000";
};
width = 995;
}
);
},
{
glyphname = Acircumflex.ss01;
kernLeft = A;
kernRight = A;
layers = (
{
layerId = m01;
shapes = (
{
closed = 1;
nodes = (
(638,361,o),
(683,411,o),
(725,460,c),
(704,412,o),
(685,364,o),
(669,318,c),
(646,315,o),
(621,315,o),
(593,314,c)
);
},
{
closed = 1;
nodes = (
(903,779,o),
(976,899,o),
(1002,899,cs),
(1007,899,o),
(1009,896,o),
(1009,887,cs),
(1009,860,o),
(937,756,o),
(833,629,c)
);
},
{
pos = (782,442);
ref = circumflexcomb;
},
{
closed = 1;
nodes = (
(174,-287,o),
(194,-255,o),
(233,-255,cs),
(267,-255,o),
(281,-282,o),
(281,-309,cs),
(281,-348,o),
(253,-382,o),
(200,-407,c),
(183,-384,o),
(174,-357,o),
(174,-328,cs)
);
},
{
closed = 1;
nodes = (
(94,124,ls),
(94,230,o),
(179,300,o),
(241,300,cs),
(266,300,o),
(274,284,o),
(274,266,cs),
(274,243,o),
(255,181,o),
(125,132,cs),
(94,121,l)
);
},
{
closed = 1;
nodes = (
(1128,-436,o),
(1163,-384,o),
(1224,-341,c),
(1264,-334,o),
(1307,-330,o),
(1351,-330,cs),
(1392,-330,o),
(1426,-333,o),
(1453,-337,c),
(1426,-355,o),
(1410,-379,o),
(1410,-412,cs),
(1410,-448,o),
(1443,-479,o),
(1492,-479,cs),
(1540,-479,o),
(1575,-449,o),
(1575,-409,cs),
(1575,-380,o),
(1563,-354,o),
(1517,-336,c),
(1542,-329,o),
(1574,-326,o),
(1614,-326,cs),
(1726,-327,o),
(1812,-357,o),
(1907,-384,c),
(1899,-403,o),
(1895,-424,o),
(1895,-445,cs),
(1895,-456,o),
(1896,-467,o),
(1899,-476,c),
(1752,-553,o),
(1535,-624,o),
(1356,-624,cs),
(1210,-624,o),
(1128,-585,o),
(1128,-490,cs)
);
},
{
closed = 1;
nodes = (
(1410,-234,o),
(1631,-184,o),
(1870,-184,cs),
(2187,-184,o),
(2390,-233,o),
(2390,-318,cs),
(2390,-387,o),
(2313,-413,o),
(2173,-413,cs),
(2123,-413,o),
(2080,-408,o),
(2041,-402,c),
(2073,-372,o),
(2092,-343,o),
(2092,-317,cs),
(2092,-289,o),
(2072,-273,o),
(2039,-273,cs),
(1990,-273,o),
(1939,-314,o),
(1912,-369,c),
(1817,-338,o),
(1734,-303,o),
(1611,-304,cs),
(1557,-304,o),
(1511,-311,o),
(1477,-325,c),
(1434,-315,o),
(1374,-310,o),
(1288,-310,cs),
(1273,-310,l)
);
},
{
closed = 1;
nodes = (
(1454,-379,o),
(1467,-359,o),
(1493,-346,c),
(1539,-360,o),
(1554,-383,o),
(1554,-406,cs),
(1554,-433,o),
(1530,-456,o),
(1503,-456,cs),
(1474,-456,o),
(1454,-436,o),
(1454,-406,cs)
);
},
{
closed = 1;
nodes = (
(1934,-421,o),
(1936,-407,o),
(1940,-393,c),
(1962,-399,o),
(1985,-404,o),
(2009,-408,c),
(1989,-424,o),
(1963,-441,o),
(1935,-456,c),
(1935,-451,o),
(1934,-444,o),
(1934,-437,cs)
);
},
{
closed = 1;
nodes = (
(1963,-332,o),
(2000,-300,o),
(2032,-300,cs),
(2058,-300,o),
(2069,-314,o),
(2069,-331,cs),
(2069,-350,o),
(2051,-373,o),
(2022,-398,c),
(1994,-393,o),
(1969,-387,o),
(1945,-379,c)
);
},
{
closed = 1;
nodes = (
(2348,-533,o),
(2359,-518,o),
(2382,-508,c),
(2399,-518,o),
(2408,-533,o),
(2408,-547,cs),
(2408,-568,o),
(2395,-580,o),
(2375,-580,cs),
(2360,-580,o),
(2348,-570,o),
(2348,-552,cs)
);
},
{
closed = 1;
nodes = (
(229,-12,o),
(400,120,o),
(562,283,c),
(582,284,o),
(606,284,o),
(632,285,cs),
(640,285,o),
(649,286,o),
(659,287,c),
(633,208,o),
(616,138,o),
(616,90,cs),
(616,32,o),
(643,-12,o),
(699,-12,cs),
(874,-12,o),
(995,211,o),
(995,312,cs),
(995,350,o),
(973,365,o),
(948,365,cs),
(895,365,o),
(828,256,o),
(795,171,c),
(804,171,l),
(842,255,o),
(894,308,o),
(927,308,cs),
(942,308,o),
(956,296,o),
(956,267,cs),
(956,208,o),
(883,48,o),
(753,48,cs),
(711,48,o),
(680,73,o),
(680,143,cs),
(680,184,o),
(690,238,o),
(706,297,c),
(760,313,o),
(821,343,o),
(863,390,c),
(855,395,l),
(809,354,o),
(767,333,o),
(714,324,c),
(735,394,o),
(763,470,o),
(795,544,c),
(928,709,o),
(1023,855,o),
(1023,893,cs),
(1023,905,o),
(1017,912,o),
(1007,912,cs),
(961,912,o),
(864,748,o),
(766,554,c),
(698,475,o),
(619,388,o),
(541,313,c),
(495,309,o),
(433,286,o),
(339,218,c),
(344,210,l),
(406,250,o),
(451,269,o),
(506,277,c),
(379,148,o),
(240,50,o),
(164,50,cs),
(119,50,o),
(100,85,o),
(96,111,c),
(130,124,ls),
(281,182,o),
(313,252,o),
(313,298,cs),
(313,333,o),
(290,356,o),
(259,356,cs),
(176,356,o),
(59,213,o),
(39,101,c),
(-253,-8,o),
(-454,-81,o),
(-454,-247,cs),
(-454,-419,o),
(-278,-466,o),
(-21,-466,cs),
(57,-466,o),
(126,-455,o),
(181,-436,c),
(230,-509,o),
(331,-553,o),
(468,-553,cs),
(750,-553,o),
(930,-402,o),
(1179,-349,c),
(1103,-405,o),
(1060,-470,o),
(1061,-539,cs),
(1061,-619,o),
(1150,-665,o),
(1269,-665,cs),
(1479,-665,o),
(1736,-585,o),
(1907,-494,c),
(1931,-541,o),
(1992,-559,o),
(2043,-559,cs),
(2159,-559,o),
(2210,-490,o),
(2303,-490,cs),
(2331,-490,o),
(2355,-495,o),
(2372,-503,c),
(2349,-514,o),
(2336,-531,o),
(2336,-554,cs),
(2336,-575,o),
(2351,-593,o),
(2378,-593,cs),
(2413,-593,o),
(2433,-574,o),
(2433,-544,cs),
(2433,-526,o),
(2426,-510,o),
(2412,-498,c),
(2442,-491,o),
(2482,-488,o),
(2530,-489,c),
(2530,-482,l),
(2482,-482,o),
(2439,-485,o),
(2406,-492,c),
(2384,-477,o),
(2352,-468,o),
(2309,-469,cs),
(2222,-472,o),
(2166,-542,o),
(2058,-541,cs),
(1998,-540,o),
(1953,-526,o),
(1939,-475,c),
(1974,-454,o),
(2005,-433,o),
(2029,-412,c),
(2077,-420,o),
(2129,-425,o),
(2189,-423,cs),
(2405,-416,o),
(2447,-372,o),
(2447,-323,cs),
(2447,-241,o),
(2259,-170,o),
(1884,-170,cs),
(1616,-170,o),
(1383,-227,o),
(1234,-313,c),
(1018,-338,o),
(744,-501,o),
(511,-501,cs),
(364,-501,o),
(266,-473,o),
(215,-423,c),
(284,-394,o),
(325,-351,o),
(325,-305,cs),
(325,-262,o),
(294,-233,o),
(247,-233,cs),
(202,-233,o),
(151,-265,o),
(151,-333,cs),
(151,-364,o),
(158,-393,o),
(171,-419,c),
(127,-434,o),
(69,-444,o),
(1,-444,cs),
(-233,-446,o),
(-379,-394,o),
(-379,-235,cs),
(-379,-76,o),
(-228,-12,o),
(37,89,c),
(37,82,o),
(36,76,o),
(36,69,cs),
(36,8,o),
(76,-12,o),
(112,-12,cs)
);
}
);
userData = {
com.schriftgestaltung.Glyphs.lastChange = "2025-09-23 10:46:54 +0000";
};
width = 995;
}
);
},
{
glyphname = Adieresis.ss01;
kernLeft = A;
kernRight = A;
layers = (
{
layerId = m01;
shapes = (
{
closed = 1;
nodes = (
(638,361,o),
(683,411,o),
(725,460,c),
(704,412,o),
(685,364,o),
(669,318,c),
(646,315,o),
(621,315,o),
(593,314,c)
);
},
{
closed = 1;
nodes = (
(903,779,o),
(976,899,o),
(1002,899,cs),
(1007,899,o),
(1009,896,o),
(1009,887,cs),
(1009,860,o),
(937,756,o),
(833,629,c)
);
},
{
pos = (834,468);
ref = dieresiscomb;
},
{
closed = 1;
nodes = (
(174,-287,o),
(194,-255,o),
(233,-255,cs),
(267,-255,o),
(281,-282,o),
(281,-309,cs),
(281,-348,o),
(253,-382,o),
(200,-407,c),
(183,-384,o),
(174,-357,o),
(174,-328,cs)
);
},
{
closed = 1;
nodes = (
(94,124,ls),
(94,230,o),
(179,300,o),
(241,300,cs),
(266,300,o),
(274,284,o),
(274,266,cs),
(274,243,o),
(255,181,o),
(125,132,cs),
(94,121,l)
);
},
{
closed = 1;
nodes = (
(1128,-436,o),
(1163,-384,o),
(1224,-341,c),
(1264,-334,o),
(1307,-330,o),
(1351,-330,cs),
(1392,-330,o),
(1426,-333,o),
(1453,-337,c),
(1426,-355,o),
(1410,-379,o),
(1410,-412,cs),
(1410,-448,o),
(1443,-479,o),
(1492,-479,cs),
(1540,-479,o),
(1575,-449,o),
(1575,-409,cs),
(1575,-380,o),
(1563,-354,o),
(1517,-336,c),
(1542,-329,o),
(1574,-326,o),
(1614,-326,cs),
(1726,-327,o),
(1812,-357,o),
(1907,-384,c),
(1899,-403,o),
(1895,-424,o),
(1895,-445,cs),
(1895,-456,o),
(1896,-467,o),
(1899,-476,c),
(1752,-553,o),
(1535,-624,o),
(1356,-624,cs),
(1210,-624,o),
(1128,-585,o),
(1128,-490,cs)
);
},
{
closed = 1;
nodes = (
(1410,-234,o),
(1631,-184,o),
(1870,-184,cs),
(2187,-184,o),
(2390,-233,o),
(2390,-318,cs),
(2390,-387,o),
(2313,-413,o),
(2173,-413,cs),
(2123,-413,o),
(2080,-408,o),
(2041,-402,c),
(2073,-372,o),
(2092,-343,o),
(2092,-317,cs),
(2092,-289,o),
(2072,-273,o),
(2039,-273,cs),
(1990,-273,o),
(1939,-314,o),
(1912,-369,c),
(1817,-338,o),
(1734,-303,o),
(1611,-304,cs),
(1557,-304,o),
(1511,-311,o),
(1477,-325,c),
(1434,-315,o),
(1374,-310,o),
(1288,-310,cs),
(1273,-310,l)
);
},
{
closed = 1;
nodes = (
(1454,-379,o),
(1467,-359,o),
(1493,-346,c),
(1539,-360,o),
(1554,-383,o),
(1554,-406,cs),
(1554,-433,o),
(1530,-456,o),
(1503,-456,cs),
(1474,-456,o),
(1454,-436,o),
(1454,-406,cs)
);
},
{
closed = 1;
nodes = (
(1934,-421,o),
(1936,-407,o),
(1940,-393,c),
(1962,-399,o),
(1985,-404,o),
(2009,-408,c),
(1989,-424,o),
(1963,-441,o),
(1935,-456,c),
(1935,-451,o),
(1934,-444,o),
(1934,-437,cs)
);
},
{
closed = 1;
nodes = (
(1963,-332,o),
(2000,-300,o),
(2032,-300,cs),
(2058,-300,o),
(2069,-314,o),
(2069,-331,cs),
(2069,-350,o),
(2051,-373,o),
(2022,-398,c),
(1994,-393,o),
(1969,-387,o),
(1945,-379,c)
);
},
{
closed = 1;
nodes = (
(2348,-533,o),
(2359,-518,o),
(2382,-508,c),
(2399,-518,o),
(2408,-533,o),
(2408,-547,cs),
(2408,-568,o),
(2395,-580,o),
(2375,-580,cs),
(2360,-580,o),
(2348,-570,o),
(2348,-552,cs)
);
},
{
closed = 1;
nodes = (
(229,-12,o),
(400,120,o),
(562,283,c),
(582,284,o),
(606,284,o),
(632,285,cs),
(640,285,o),
(649,286,o),
(659,287,c),
(633,208,o),
(616,138,o),
(616,90,cs),
(616,32,o),
(643,-12,o),
(699,-12,cs),
(874,-12,o),
(995,211,o),
(995,312,cs),
(995,350,o),
(973,365,o),
(948,365,cs),
(895,365,o),
(828,256,o),
(795,171,c),
(804,171,l),
(842,255,o),
(894,308,o),
(927,308,cs),
(942,308,o),
(956,296,o),
(956,267,cs),
(956,208,o),
(883,48,o),
(753,48,cs),
(711,48,o),
(680,73,o),
(680,143,cs),
(680,184,o),
(690,238,o),
(706,297,c),
(760,313,o),
(821,343,o),
(863,390,c),
(855,395,l),
(809,354,o),
(767,333,o),
(714,324,c),
(735,394,o),
(763,470,o),
(795,544,c),
(928,709,o),
(1023,855,o),
(1023,893,cs),
(1023,905,o),
(1017,912,o),
(1007,912,cs),
(961,912,o),
(864,748,o),
(766,554,c),
(698,475,o),
(619,388,o),
(541,313,c),
(495,309,o),
(433,286,o),
(339,218,c),
(344,210,l),
(406,250,o),
(451,269,o),
(506,277,c),
(379,148,o),
(240,50,o),
(164,50,cs),
(119,50,o),
(100,85,o),
(96,111,c),
(130,124,ls),
(281,182,o),
(313,252,o),
(313,298,cs),
(313,333,o),
(290,356,o),
(259,356,cs),
(176,356,o),
(59,213,o),
(39,101,c),
(-253,-8,o),
(-454,-81,o),
(-454,-247,cs),
(-454,-419,o),
(-278,-466,o),
(-21,-466,cs),
(57,-466,o),
(126,-455,o),
(181,-436,c),
(230,-509,o),
(331,-553,o),
(468,-553,cs),
(750,-553,o),
(930,-402,o),
(1179,-349,c),
(1103,-405,o),
(1060,-470,o),
(1061,-539,cs),
(1061,-619,o),
(1150,-665,o),
(1269,-665,cs),
(1479,-665,o),
(1736,-585,o),
(1907,-494,c),
(1931,-541,o),
(1992,-559,o),
(2043,-559,cs),
(2159,-559,o),
(2210,-490,o),
(2303,-490,cs),
(2331,-490,o),
(2355,-495,o),
(2372,-503,c),
(2349,-514,o),
(2336,-531,o),
(2336,-554,cs),
(2336,-575,o),
(2351,-593,o),
(2378,-593,cs),
(2413,-593,o),
(2433,-574,o),
(2433,-544,cs),
(2433,-526,o),
(2426,-510,o),
(2412,-498,c),
(2442,-491,o),
(2482,-488,o),
(2530,-489,c),
(2530,-482,l),
(2482,-482,o),
(2439,-485,o),
(2406,-492,c),
(2384,-477,o),
(2352,-468,o),
(2309,-469,cs),
(2222,-472,o),
(2166,-542,o),
(2058,-541,cs),
(1998,-540,o),
(1953,-526,o),
(1939,-475,c),
(1974,-454,o),
(2005,-433,o),
(2029,-412,c),
(2077,-420,o),
(2129,-425,o),
(2189,-423,cs),
(2405,-416,o),
(2447,-372,o),
(2447,-323,cs),
(2447,-241,o),
(2259,-170,o),
(1884,-170,cs),
(1616,-170,o),
(1383,-227,o),
(1234,-313,c),
(1018,-338,o),
(744,-501,o),
(511,-501,cs),
(364,-501,o),
(266,-473,o),
(215,-423,c),
(284,-394,o),
(325,-351,o),
(325,-305,cs),
(325,-262,o),
(294,-233,o),
(247,-233,cs),
(202,-233,o),
(151,-265,o),
(151,-333,cs),
(151,-364,o),
(158,-393,o),
(171,-419,c),
(127,-434,o),
(69,-444,o),
(1,-444,cs),
(-233,-446,o),
(-379,-394,o),
(-379,-235,cs),
(-379,-76,o),
(-227,-12,o),
(37,89,c),
(37,82,o),
(36,76,o),
(36,69,cs),
(36,8,o),
(76,-12,o),
(112,-12,cs)
);
}
);
userData = {
com.schriftgestaltung.Glyphs.lastChange = "2025-09-23 10:46:54 +0000";
};
width = 995;
}
);
},
{
glyphname = Agrave.ss01;
kernLeft = A;
kernRight = A;
layers = (
{
layerId = m01;
shapes = (
{
closed = 1;
nodes = (
(174,-287,o),
(194,-255,o),
(233,-255,cs),
(267,-255,o),
(281,-282,o),
(281,-309,cs),
(281,-348,o),
(253,-382,o),
(200,-407,c),
(183,-384,o),
(174,-357,o),
(174,-328,cs)
);
},
{
closed = 1;
nodes = (
(-454,-419,o),
(-278,-466,o),
(-21,-466,cs),
(57,-466,o),
(126,-455,o),
(181,-436,c),
(230,-509,o),
(331,-553,o),
(468,-553,cs),
(750,-553,o),
(930,-402,o),
(1179,-349,c),
(1103,-405,o),
(1060,-470,o),
(1061,-539,cs),
(1061,-619,o),
(1150,-665,o),
(1269,-665,cs),
(1479,-665,o),
(1736,-585,o),
(1907,-494,c),
(1931,-541,o),
(1992,-559,o),
(2043,-559,cs),
(2159,-559,o),
(2210,-490,o),
(2303,-490,cs),
(2331,-490,o),
(2355,-495,o),
(2372,-503,c),
(2349,-514,o),
(2336,-531,o),
(2336,-554,cs),
(2336,-575,o),
(2351,-593,o),
(2378,-593,cs),
(2413,-593,o),
(2433,-574,o),
(2433,-544,cs),
(2433,-526,o),
(2426,-510,o),
(2412,-498,c),
(2442,-491,o),
(2482,-488,o),
(2530,-489,c),
(2530,-482,l),
(2482,-482,o),
(2439,-485,o),
(2406,-492,c),
(2384,-477,o),
(2352,-468,o),
(2309,-469,cs),
(2222,-472,o),
(2166,-542,o),
(2058,-541,cs),
(1998,-540,o),
(1953,-526,o),
(1939,-475,c),
(1974,-454,o),
(2005,-433,o),
(2029,-412,c),
(2077,-420,o),
(2129,-425,o),
(2189,-423,cs),
(2405,-416,o),
(2447,-372,o),
(2447,-323,cs),
(2447,-241,o),
(2259,-170,o),
(1884,-170,cs),
(1616,-170,o),
(1383,-227,o),
(1234,-313,c),
(1018,-338,o),
(744,-501,o),
(511,-501,cs),
(364,-501,o),
(266,-473,o),
(215,-423,c),
(284,-394,o),
(325,-351,o),
(325,-305,cs),
(325,-262,o),
(294,-233,o),
(247,-233,cs),
(202,-233,o),
(151,-265,o),
(151,-333,cs),
(151,-364,o),
(158,-393,o),
(171,-419,c),
(127,-434,o),
(69,-444,o),
(1,-444,cs),
(-233,-446,o),
(-379,-394,o),
(-379,-235,cs),
(-379,-76,o),
(-227,-12,o),
(37,89,c),
(37,82,o),
(36,76,o),
(36,69,cs),
(36,8,o),
(76,-12,o),
(112,-12,cs),
(229,-12,o),
(400,120,o),
(562,283,c),
(582,284,o),
(606,284,o),
(632,285,cs),
(640,285,o),
(649,286,o),
(659,287,c),
(633,208,o),
(616,138,o),
(616,90,cs),
(616,32,o),
(643,-12,o),
(699,-12,cs),
(874,-12,o),
(995,211,o),
(995,312,cs),
(995,350,o),
(973,365,o),
(948,365,cs),
(895,365,o),
(828,256,o),
(795,171,c),
(804,171,l),
(842,255,o),
(894,308,o),
(927,308,cs),
(942,308,o),
(956,296,o),
(956,267,cs),
(956,208,o),
(883,48,o),
(753,48,cs),
(711,48,o),
(680,73,o),
(680,143,cs),
(680,184,o),
(690,238,o),
(706,297,c),
(760,313,o),
(821,343,o),
(863,390,c),
(855,395,l),
(809,354,o),
(767,333,o),
(714,324,c),
(735,394,o),
(763,470,o),
(795,544,c),
(928,709,o),
(1023,855,o),
(1023,893,cs),
(1023,905,o),
(1017,912,o),
(1007,912,cs),
(961,912,o),
(864,748,o),
(766,554,c),
(698,475,o),
(619,388,o),
(541,313,c),
(495,309,o),
(433,286,o),
(339,218,c),
(344,210,l),
(406,250,o),
(451,269,o),
(506,277,c),
(379,148,o),
(240,50,o),
(164,50,cs),
(119,50,o),
(100,85,o),
(96,111,c),
(130,124,ls),
(281,182,o),
(313,252,o),
(313,298,cs),
(313,333,o),
(290,356,o),
(259,356,cs),
(176,356,o),
(59,213,o),
(39,101,c),
(-253,-8,o),
(-454,-81,o),
(-454,-247,cs)
);
},
{
closed = 1;
nodes = (
(94,124,ls),
(94,230,o),
(179,300,o),
(241,300,cs),
(266,300,o),
(274,284,o),
(274,266,cs),
(274,243,o),
(255,181,o),
(125,132,cs),
(94,121,l)
);
},
{
closed = 1;
nodes = (
(638,361,o),
(683,411,o),
(725,460,c),
(704,412,o),
(685,364,o),
(669,318,c),
(646,315,o),
(621,315,o),
(593,314,c)
);
},
{
closed = 1;
nodes = (
(903,779,o),
(976,899,o),
(1002,899,cs),
(1007,899,o),
(1009,896,o),
(1009,887,cs),
(1009,860,o),
(937,756,o),
(833,629,c)
);
},
{
closed = 1;
nodes = (
(1128,-436,o),
(1163,-384,o),
(1224,-341,c),
(1264,-334,o),
(1307,-330,o),
(1351,-330,cs),
(1392,-330,o),
(1426,-333,o),
(1453,-337,c),
(1426,-355,o),
(1410,-379,o),
(1410,-412,cs),
(1410,-448,o),
(1443,-479,o),
(1492,-479,cs),
(1540,-479,o),
(1575,-449,o),
(1575,-409,cs),
(1575,-380,o),
(1563,-354,o),
(1517,-336,c),
(1542,-329,o),
(1574,-326,o),
(1614,-326,cs),
(1726,-327,o),
(1812,-357,o),
(1907,-384,c),
(1899,-403,o),
(1895,-424,o),
(1895,-445,cs),
(1895,-456,o),
(1896,-467,o),
(1899,-476,c),
(1752,-553,o),
(1535,-624,o),
(1356,-624,cs),
(1210,-624,o),
(1128,-585,o),
(1128,-490,cs)
);
},
{
closed = 1;
nodes = (
(1410,-234,o),
(1631,-184,o),
(1870,-184,cs),
(2187,-184,o),
(2390,-233,o),
(2390,-318,cs),
(2390,-387,o),
(2313,-413,o),
(2173,-413,cs),
(2123,-413,o),
(2080,-408,o),
(2041,-402,c),
(2073,-372,o),
(2092,-343,o),
(2092,-317,cs),
(2092,-289,o),
(2072,-273,o),
(2039,-273,cs),
(1990,-273,o),
(1939,-314,o),
(1912,-369,c),
(1817,-338,o),
(1734,-303,o),
(1611,-304,cs),
(1557,-304,o),
(1511,-311,o),
(1477,-325,c),
(1434,-315,o),
(1374,-310,o),
(1288,-310,cs),
(1273,-310,l)
);
},
{
closed = 1;
nodes = (
(1454,-379,o),
(1467,-359,o),
(1493,-346,c),
(1539,-360,o),
(1554,-383,o),
(1554,-406,cs),
(1554,-433,o),
(1530,-456,o),
(1503,-456,cs),
(1474,-456,o),
(1454,-436,o),
(1454,-406,cs)
);
},
{
closed = 1;
nodes = (
(1934,-421,o),
(1936,-407,o),
(1940,-393,c),
(1962,-399,o),
(1985,-404,o),
(2009,-408,c),
(1989,-424,o),
(1963,-441,o),
(1935,-456,c),
(1935,-451,o),
(1934,-444,o),
(1934,-437,cs)
);
},
{
closed = 1;
nodes = (
(1963,-332,o),
(2000,-300,o),
(2032,-300,cs),
(2058,-300,o),
(2069,-314,o),
(2069,-331,cs),
(2069,-350,o),
(2051,-373,o),
(2022,-398,c),
(1994,-393,o),
(1969,-387,o),
(1945,-379,c)
);
},
{
closed = 1;
nodes = (
(2348,-533,o),
(2359,-518,o),
(2382,-508,c),
(2399,-518,o),
(2408,-533,o),
(2408,-547,cs),
(2408,-568,o),
(2395,-580,o),
(2375,-580,cs),
(2360,-580,o),
(2348,-570,o),
(2348,-552,cs)
);
},
{
pos = (835,467);
ref = gravecomb;
}
);
userData = {
com.schriftgestaltung.Glyphs.lastChange = "2025-09-23 10:46:54 +0000";
};
width = 991;
}
);
},
{
glyphname = Aring.ss01;
kernLeft = A;
kernRight = A;
layers = (
{
layerId = m01;
shapes = (
{
closed = 1;
nodes = (
(174,-287,o),
(194,-255,o),
(233,-255,cs),
(267,-255,o),
(281,-282,o),
(281,-309,cs),
(281,-348,o),
(253,-382,o),
(200,-407,c),
(183,-384,o),
(174,-357,o),
(174,-328,cs)
);
},
{
closed = 1;
nodes = (
(-454,-419,o),
(-278,-466,o),
(-21,-466,cs),
(57,-466,o),
(126,-455,o),
(181,-436,c),
(230,-509,o),
(331,-553,o),
(468,-553,cs),
(750,-553,o),
(930,-402,o),
(1179,-349,c),
(1103,-405,o),
(1060,-470,o),
(1061,-539,cs),
(1061,-619,o),
(1150,-665,o),
(1269,-665,cs),
(1479,-665,o),
(1736,-585,o),
(1907,-494,c),
(1931,-541,o),
(1992,-559,o),
(2043,-559,cs),
(2159,-559,o),
(2210,-490,o),
(2303,-490,cs),
(2331,-490,o),
(2355,-495,o),
(2372,-503,c),
(2349,-514,o),
(2336,-531,o),
(2336,-554,cs),
(2336,-575,o),
(2351,-593,o),
(2378,-593,cs),
(2413,-593,o),
(2433,-574,o),
(2433,-544,cs),
(2433,-526,o),
(2426,-510,o),
(2412,-498,c),
(2442,-491,o),
(2482,-488,o),
(2530,-489,c),
(2530,-482,l),
(2482,-482,o),
(2439,-485,o),
(2406,-492,c),
(2384,-477,o),
(2352,-468,o),
(2309,-469,cs),
(2222,-472,o),
(2166,-542,o),
(2058,-541,cs),
(1998,-540,o),
(1953,-526,o),
(1939,-475,c),
(1974,-454,o),
(2005,-433,o),
(2029,-412,c),
(2077,-420,o),
(2129,-425,o),
(2189,-423,cs),
(2405,-416,o),
(2447,-372,o),
(2447,-323,cs),
(2447,-241,o),
(2259,-170,o),
(1884,-170,cs),
(1616,-170,o),
(1383,-227,o),
(1234,-313,c),
(1018,-338,o),
(744,-501,o),
(511,-501,cs),
(364,-501,o),
(266,-473,o),
(215,-423,c),
(284,-394,o),
(325,-351,o),
(325,-305,cs),
(325,-262,o),
(294,-233,o),
(247,-233,cs),
(202,-233,o),
(151,-265,o),
(151,-333,cs),
(151,-364,o),
(158,-393,o),
(171,-419,c),
(127,-434,o),
(69,-444,o),
(1,-444,cs),
(-233,-446,o),
(-379,-394,o),
(-379,-235,cs),
(-379,-76,o),
(-227,-12,o),
(37,89,c),
(37,82,o),
(36,76,o),
(36,69,cs),
(36,8,o),
(76,-12,o),
(112,-12,cs),
(229,-12,o),
(400,120,o),
(562,283,c),
(582,284,o),
(606,284,o),
(632,285,cs),
(640,285,o),
(649,286,o),
(659,287,c),
(633,208,o),
(616,138,o),
(616,90,cs),
(616,32,o),
(643,-12,o),
(699,-12,cs),
(874,-12,o),
(995,211,o),
(995,312,cs),
(995,350,o),
(973,365,o),
(948,365,cs),
(895,365,o),
(828,256,o),
(795,171,c),
(804,171,l),
(842,255,o),
(894,308,o),
(927,308,cs),
(942,308,o),
(956,296,o),
(956,267,cs),
(956,208,o),
(883,48,o),
(753,48,cs),
(711,48,o),
(680,73,o),
(680,143,cs),
(680,184,o),
(690,238,o),
(706,297,c),
(760,313,o),
(821,343,o),
(863,390,c),
(855,395,l),
(809,354,o),
(767,333,o),
(714,324,c),
(735,394,o),
(763,470,o),
(795,544,c),
(928,709,o),
(1023,855,o),
(1023,893,cs),
(1023,905,o),
(1017,912,o),
(1007,912,cs),
(961,912,o),
(864,748,o),
(766,554,c),
(698,475,o),
(619,388,o),
(541,313,c),
(495,309,o),
(433,286,o),
(339,218,c),
(344,210,l),
(406,250,o),
(451,269,o),
(506,277,c),
(379,148,o),
(240,50,o),
(164,50,cs),
(119,50,o),
(100,85,o),
(96,111,c),
(130,124,ls),
(281,182,o),
(313,252,o),
(313,298,cs),
(313,333,o),
(290,356,o),
(259,356,cs),
(176,356,o),
(59,213,o),
(39,101,c),
(-253,-8,o),
(-454,-81,o),
(-454,-247,cs)
);
},
{
closed = 1;
nodes = (
(94,124,ls),
(94,230,o),
(179,300,o),
(241,300,cs),
(266,300,o),
(274,284,o),
(274,266,cs),
(274,243,o),
(255,181,o),
(125,132,cs),
(94,121,l)
);
},
{
closed = 1;
nodes = (
(638,361,o),
(683,411,o),
(725,460,c),
(704,412,o),
(685,364,o),
(669,318,c),
(646,315,o),
(621,315,o),
(593,314,c)
);
},
{
closed = 1;
nodes = (
(903,779,o),
(976,899,o),
(1002,899,cs),
(1007,899,o),
(1009,896,o),
(1009,887,cs),
(1009,860,o),
(937,756,o),
(833,629,c)
);
},
{
closed = 1;
nodes = (
(1128,-436,o),
(1163,-384,o),
(1224,-341,c),
(1264,-334,o),
(1307,-330,o),
(1351,-330,cs),
(1392,-330,o),
(1426,-333,o),
(1453,-337,c),
(1426,-355,o),
(1410,-379,o),
(1410,-412,cs),
(1410,-448,o),
(1443,-479,o),
(1492,-479,cs),
(1540,-479,o),
(1575,-449,o),
(1575,-409,cs),
(1575,-380,o),
(1563,-354,o),
(1517,-336,c),
(1542,-329,o),
(1574,-326,o),
(1614,-326,cs),
(1726,-327,o),
(1812,-357,o),
(1907,-384,c),
(1899,-403,o),
(1895,-424,o),
(1895,-445,cs),
(1895,-456,o),
(1896,-467,o),
(1899,-476,c),
(1752,-553,o),
(1535,-624,o),
(1356,-624,cs),
(1210,-624,o),
(1128,-585,o),
(1128,-490,cs)
);
},
{
closed = 1;
nodes = (
(1410,-234,o),
(1631,-184,o),
(1870,-184,cs),
(2187,-184,o),
(2390,-233,o),
(2390,-318,cs),
(2390,-387,o),
(2313,-413,o),
(2173,-413,cs),
(2123,-413,o),
(2080,-408,o),
(2041,-402,c),
(2073,-372,o),
(2092,-343,o),
(2092,-317,cs),
(2092,-289,o),
(2072,-273,o),
(2039,-273,cs),
(1990,-273,o),
(1939,-314,o),
(1912,-369,c),
(1817,-338,o),
(1734,-303,o),
(1611,-304,cs),
(1557,-304,o),
(1511,-311,o),
(1477,-325,c),
(1434,-315,o),
(1374,-310,o),
(1288,-310,cs),
(1273,-310,l)
);
},
{
closed = 1;
nodes = (
(1454,-379,o),
(1467,-359,o),
(1493,-346,c),
(1539,-360,o),
(1554,-383,o),
(1554,-406,cs),
(1554,-433,o),
(1530,-456,o),
(1503,-456,cs),
(1474,-456,o),
(1454,-436,o),
(1454,-406,cs)
);
},
{
closed = 1;
nodes = (
(1934,-421,o),
(1936,-407,o),
(1940,-393,c),
(1962,-399,o),
(1985,-404,o),
(2009,-408,c),
(1989,-424,o),
(1963,-441,o),
(1935,-456,c),
(1935,-451,o),
(1934,-444,o),
(1934,-437,cs)
);
},
{
closed = 1;
nodes = (
(1963,-332,o),
(2000,-300,o),
(2032,-300,cs),
(2058,-300,o),
(2069,-314,o),
(2069,-331,cs),
(2069,-350,o),
(2051,-373,o),
(2022,-398,c),
(1994,-393,o),
(1969,-387,o),
(1945,-379,c)
);
},
{
closed = 1;
nodes = (
(2348,-533,o),
(2359,-518,o),
(2382,-508,c),
(2399,-518,o),
(2408,-533,o),
(2408,-547,cs),
(2408,-568,o),
(2395,-580,o),
(2375,-580,cs),
(2360,-580,o),
(2348,-570,o),
(2348,-552,cs)
);
},
{
closed = 1;
nodes = (
(1161,1087,o),
(1177,1073,o),
(1177,1055,cs),
(1177,1008,o),
(1083,940,o),
(1028,940,cs),
(1005,940,o),
(988,948,o),
(988,968,cs),
(988,1015,o),
(1072,1087,o),
(1136,1087,cs)
);
},
{
closed = 1;
nodes = (
(1079,1063,o),
(1024,1023,o),
(1024,988,cs),
(1024,975,o),
(1035,968,o),
(1049,968,cs),
(1086,968,o),
(1142,1005,o),
(1142,1039,cs),
(1142,1052,o),
(1131,1063,o),
(1112,1063,cs)
);
}
);
userData = {
com.schriftgestaltung.Glyphs.lastChange = "2025-09-27 08:56:43 +0000";
};
width = 995;
}
);
},
{
glyphname = B.ss01;
kernLeft = B;
kernRight = B;
layers = (
{
layerId = m01;
shapes = (
{
closed = 1;
nodes = (
(66,78,o),
(92,53,o),
(143,53,cs),
(190,53,o),
(235,84,o),
(279,132,c),
(241,171,o),
(210,202,o),
(158,202,cs),
(114,202,o),
(66,166,o),
(66,118,cs)
);
},
{
closed = 1;
nodes = (
(413,81,o),
(486,15,o),
(613,15,cs),
(739,15,o),
(886,107,o),
(886,276,cs),
(886,353,o),
(856,408,o),
(813,444,c),
(762,421,o),
(710,409,o),
(665,409,cs),
(588,409,o),
(544,420,o),
(526,443,c),
(474,336,o),
(419,228,o),
(356,144,c)
);
},
{
closed = 1;
nodes = (
(467,725,o),
(470,722,o),
(474,722,cs),
(490,722,o),
(520,761,o),
(534,807,c),
(492,786,o),
(467,757,o),
(467,733,cs)
);
},
{
closed = 1;
nodes = (
(545,438,o),
(587,431,o),
(635,431,cs),
(677,431,o),
(729,444,o),
(776,468,c),
(736,490,o),
(689,500,o),
(644,500,cs),
(580,500,o),
(545,470,o),
(545,456,cs)
);
},
{
closed = 1;
nodes = (
(577,518,o),
(598,521,o),
(626,521,cs),
(691,521,o),
(752,507,o),
(802,482,c),
(869,522,o),
(924,585,o),
(924,663,cs),
(924,740,o),
(868,811,o),
(762,834,c),
(690,769,o),
(626,646,o),
(561,513,c)
);
},
{
closed = 1;
nodes = (
(548,894,o),
(533,949,o),
(492,949,cs),
(399,949,o),
(356,752,o),
(210,752,cs),
(142,752,o),
(107,792,o),
(107,859,cs),
(107,873,o),
(109,885,o),
(112,896,c),
(80,921,o),
(51,950,o),
(20,950,cs),
(-1,950,o),
(-17,936,o),
(-17,914,cs),
(-17,866,o),
(30,875,o),
(30,832,cs),
(30,811,o),
(14,798,o),
(-5,798,cs),
(-35,798,o),
(-48,802,o),
(-73,802,cs),
(-90,802,o),
(-96,794,o),
(-96,787,cs),
(-96,760,o),
(-58,762,o),
(-58,739,cs),
(-58,723,o),
(-75,715,o),
(-112,715,cs),
(-157,715,o),
(-157,692,o),
(-157,663,cs),
(-157,623,o),
(-190,607,o),
(-222,593,c),
(-225,600,l),
(-200,608,o),
(-178,626,o),
(-178,643,cs),
(-178,657,o),
(-184,663,o),
(-184,680,cs),
(-184,703,o),
(-163,719,o),
(-114,719,cs),
(-94,719,o),
(-84,729,o),
(-84,742,cs),
(-84,770,o),
(-129,763,o),
(-129,792,cs),
(-129,808,o),
(-117,817,o),
(-98,817,cs),
(-74,817,o),
(-58,809,o),
(-26,809,cs),
(-4,809,o),
(8,828,o),
(8,843,cs),
(8,881,o),
(-55,879,o),
(-55,930,cs),
(-55,957,o),
(-35,978,o),
(-8,978,cs),
(24,978,o),
(71,935,o),
(116,909,c),
(131,948,o),
(166,967,o),
(199,967,cs),
(228,967,o),
(256,953,o),
(256,923,cs),
(256,887,o),
(225,862,o),
(190,862,cs),
(171,862,o),
(155,868,o),
(139,877,c),
(140,824,o),
(166,786,o),
(227,786,cs),
(341,786,o),
(421,975,o),
(495,976,cs),
(548,978,o),
(555,895,o),
(553,836,c),
(602,858,o),
(664,872,o),
(739,872,cs),
(746,872,l),
(777,897,o),
(809,912,o),
(843,912,cs),
(889,912,o),
(933,891,o),
(977,843,c),
(969,836,l),
(939,863,o),
(911,883,o),
(875,883,cs),
(852,883,o),
(829,877,o),
(808,866,c),
(933,844,o),
(996,760,o),
(996,674,cs),
(996,580,o),
(926,504,o),
(842,459,c),
(909,413,o),
(951,346,o),
(951,272,cs),
(951,84,o),
(762,-12,o),
(602,-12,cs),
(449,-12,o),
(371,41,o),
(315,94,c),
(256,30,o),
(189,-12,o),
(112,-12,cs),
(76,-12,o),
(36,8,o),
(36,69,cs),
(36,184,o),
(139,266,o),
(200,266,cs),
(248,266,o),
(282,230,o),
(321,186,c),
(453,370,o),
(575,698,o),
(713,842,c),
(703,842,o),
(694,842,o),
(684,842,cs),
(634,842,o),
(587,831,o),
(550,814,c),
(537,739,o),
(496,675,o),
(440,675,cs),
(428,675,o),
(420,684,o),
(420,695,cs),
(420,734,o),
(461,792,o),
(541,830,c)
);
},
{
closed = 1;
nodes = (
(152,891,o),
(164,888,o),
(176,888,cs),
(202,888,o),
(225,899,o),
(225,926,cs),
(225,942,o),
(215,958,o),
(193,958,cs),
(168,958,o),
(144,943,o),
(140,896,c)
);
}
);
userData = {
com.schriftgestaltung.Glyphs.lastChange = "2025-09-23 10:46:54 +0000";
};
width = 996;
}
);
},
{
glyphname = C.ss01;
kernLeft = C;
kernRight = C;
layers = (
{
layerId = m01;
shapes = (
{
closed = 1;
nodes = (
(246,811,o),
(164,766,o),
(109,703,c),
(229,736,o),
(325,765,o),
(325,796,cs),
(325,804,o),
(319,811,o),
(305,811,cs)
);
},
{
closed = 1;
nodes = (
(-379,904,o),
(-320,923,o),
(-311,971,c),
(-300,971,l),
(-303,929,o),
(-357,906,o),
(-357,885,cs),
(-357,874,o),
(-348,867,o),
(-336,867,cs),
(-278,867,o),
(-203,955,o),
(-140,955,cs),
(-116,955,o),
(-96,942,o),
(-96,914,cs),
(-96,844,o),
(-256,800,o),
(-256,740,cs),
(-256,721,o),
(-238,711,o),
(-214,711,cs),
(-68,711,o),
(-31,1047,o),
(95,1047,cs),
(130,1047,o),
(154,1027,o),
(154,988,cs),
(154,935,o),
(53,784,o),
(-58,660,c),
(-18,670,o),
(24,681,o),
(63,691,c),
(132,768,o),
(240,821,o),
(307,821,cs),
(325,821,o),
(338,813,o),
(338,799,cs),
(338,747,o),
(223,711,o),
(89,678,c),
(66,644,o),
(50,606,o),
(50,568,cs),
(50,500,o),
(86,465,o),
(154,450,c),
(301,674,o),
(594,912,o),
(816,912,cs),
(898,912,o),
(949,869,o),
(949,798,cs),
(949,598,o),
(642,427,o),
(217,418,c),
(181,346,o),
(161,276,o),
(161,218,cs),
(161,96,o),
(216,15,o),
(359,15,cs),
(586,15,o),
(750,168,o),
(750,285,cs),
(750,316,o),
(729,332,o),
(710,332,cs),
(665,332,o),
(621,292,o),
(580,254,c),
(571,263,l),
(613,302,o),
(675,371,o),
(756,371,cs),
(804,371,o),
(829,341,o),
(829,310,cs),
(829,156,o),
(579,-12,o),
(342,-12,cs),
(145,-12,o),
(63,82,o),
(63,210,cs),
(63,270,o),
(90,343,o),
(135,420,c),
(44,431,o),
(0,482,o),
(0,551,cs),
(0,592,o),
(17,631,o),
(43,667,c),
(3,657,o),
(-38,648,o),
(-77,638,c),
(-163,544,o),
(-251,469,o),
(-297,469,cs),
(-329,469,o),
(-348,485,o),
(-348,512,cs),
(-348,567,o),
(-222,613,o),
(-79,653,c),
(21,765,o),
(114,904,o),
(114,955,cs),
(114,986,o),
(96,1007,o),
(70,1007,cs),
(-37,1007,o),
(-60,676,o),
(-245,676,cs),
(-268,676,o),
(-291,689,o),
(-291,719,cs),
(-291,791,o),
(-129,842,o),
(-129,901,cs),
(-129,921,o),
(-143,933,o),
(-160,933,cs),
(-212,933,o),
(-287,851,o),
(-353,851,cs),
(-367,851,o),
(-379,858,o),
(-379,875,cs)
);
},
{
closed = 1;
nodes = (
(-312,511,o),
(-300,499,o),
(-282,500,cs),
(-239,500,o),
(-168,558,o),
(-98,633,c),
(-217,603,o),
(-312,570,o),
(-312,526,cs)
);
},
{
closed = 1;
nodes = (
(245,441,o),
(262,441,o),
(281,441,cs),
(549,446,o),
(894,636,o),
(894,811,cs),
(894,859,o),
(857,888,o),
(799,888,cs),
(586,888,o),
(343,658,o),
(229,441,c)
);
}
);
userData = {
com.schriftgestaltung.Glyphs.lastChange = "2025-09-23 10:46:54 +0000";
};
width = 841;
}
);
},
{
glyphname = Ccedilla.ss01;
layers = (
{
layerId = m01;
shapes = (
{
closed = 1;
nodes = (
(320,-238,o),
(437,-182,o),
(437,-118,cs),
(437,-96,o),
(426,-86,o),
(404,-86,cs),
(369,-86,o),
(317,-133,o),
(309,-135,cs),
(307,-135,o),
(307,-134,o),
(307,-131,cs),
(307,-124,o),
(311,-111,o),
(312,-107,cs),
(315,-97,o),
(348,-43,o),
(399,6,c),
(437,6,l),
(396,-33,o),
(346,-81,o),
(336,-97,c),
(384,-53,o),
(410,-48,o),
(434,-48,cs),
(462,-48,o),
(477,-74,o),
(477,-97,cs),
(477,-175,o),
(310,-261,o),
(282,-266,c),
(282,-253,l)
);
},
{
closed = 1;
nodes = (
(246,811,o),
(164,766,o),
(109,703,c),
(229,736,o),
(325,765,o),
(325,796,cs),
(325,804,o),
(319,811,o),
(305,811,cs)
);
},
{
closed = 1;
nodes = (
(-379,904,o),
(-320,923,o),
(-311,971,c),
(-300,971,l),
(-303,929,o),
(-357,906,o),
(-357,885,cs),
(-357,874,o),
(-348,867,o),
(-336,867,cs),
(-278,867,o),
(-203,955,o),
(-140,955,cs),
(-116,955,o),
(-96,942,o),
(-96,914,cs),
(-96,844,o),
(-256,800,o),
(-256,740,cs),
(-256,721,o),
(-238,711,o),
(-214,711,cs),
(-68,711,o),
(-31,1047,o),
(95,1047,cs),
(130,1047,o),
(154,1027,o),
(154,988,cs),
(154,935,o),
(53,784,o),
(-58,660,c),
(-18,670,o),
(24,681,o),
(63,691,c),
(132,768,o),
(240,821,o),
(307,821,cs),
(325,821,o),
(338,813,o),
(338,799,cs),
(338,747,o),
(223,711,o),
(89,678,c),
(66,644,o),
(50,606,o),
(50,568,cs),
(50,500,o),
(86,465,o),
(154,450,c),
(301,674,o),
(594,912,o),
(816,912,cs),
(898,912,o),
(949,869,o),
(949,798,cs),
(949,598,o),
(642,427,o),
(217,418,c),
(181,346,o),
(161,276,o),
(161,218,cs),
(161,96,o),
(216,15,o),
(359,15,cs),
(586,15,o),
(750,168,o),
(750,285,cs),
(750,316,o),
(729,332,o),
(710,332,cs),
(665,332,o),
(621,292,o),
(580,254,c),
(571,263,l),
(613,302,o),
(675,371,o),
(756,371,cs),
(804,371,o),
(829,341,o),
(829,310,cs),
(829,156,o),
(579,-12,o),
(342,-12,cs),
(145,-12,o),
(63,82,o),
(63,210,cs),
(63,270,o),
(90,343,o),
(135,420,c),
(44,431,o),
(0,482,o),
(0,551,cs),
(0,592,o),
(17,631,o),
(43,667,c),
(3,657,o),
(-38,648,o),
(-77,638,c),
(-163,544,o),
(-251,469,o),
(-297,469,cs),
(-329,469,o),
(-348,485,o),
(-348,512,cs),
(-348,567,o),
(-222,613,o),
(-79,653,c),
(21,765,o),
(114,904,o),
(114,955,cs),
(114,986,o),
(96,1007,o),
(70,1007,cs),
(-37,1007,o),
(-60,676,o),
(-245,676,cs),
(-268,676,o),
(-291,689,o),
(-291,719,cs),
(-291,791,o),
(-129,842,o),
(-129,901,cs),
(-129,921,o),
(-143,933,o),
(-160,933,cs),
(-212,933,o),
(-287,851,o),
(-353,851,cs),
(-367,851,o),
(-379,858,o),
(-379,875,cs)
);
},
{
closed = 1;
nodes = (
(-312,511,o),
(-300,499,o),
(-282,500,cs),
(-239,500,o),
(-168,558,o),
(-98,633,c),
(-217,603,o),
(-312,570,o),
(-312,526,cs)
);
},
{
closed = 1;
nodes = (
(245,441,o),
(262,441,o),
(281,441,cs),
(549,446,o),
(894,636,o),
(894,811,cs),
(894,859,o),
(857,888,o),
(799,888,cs),
(586,888,o),
(343,658,o),
(229,441,c)
);
}
);
userData = {
com.schriftgestaltung.Glyphs.lastChange = "2025-09-23 10:46:54 +0000";
};
width = 841;
}
);
},
{
glyphname = D.ss01;
kernLeft = D;
kernRight = D;
layers = (
{
layerId = m01;
shapes = (
{
closed = 1;
nodes = (
(30,78,o),
(53,57,o),
(100,57,cs),
(144,57,o),
(186,81,o),
(228,123,c),
(200,168,o),
(179,207,o),
(122,207,cs),
(78,207,o),
(30,166,o),
(30,118,cs)
);
},
{
closed = 1;
nodes = (
(345,71,o),
(400,22,o),
(508,22,cs),
(717,22,o),
(925,268,o),
(925,544,cs),
(925,691,o),
(857,803,o),
(726,834,c),
(578,700,o),
(469,328,o),
(305,125,c)
);
},
{
closed = 1;
nodes = (
(431,725,o),
(434,722,o),
(438,722,cs),
(452,722,o),
(475,755,o),
(487,801,c),
(452,780,o),
(431,755,o),
(431,733,cs)
);
},
{
closed = 1;
nodes = (
(499,888,o),
(484,942,o),
(444,942,cs),
(350,942,o),
(307,746,o),
(161,746,cs),
(93,746,o),
(58,786,o),
(58,852,cs),
(58,866,o),
(60,878,o),
(63,889,c),
(31,914,o),
(2,944,o),
(-29,944,cs),
(-50,944,o),
(-66,930,o),
(-66,907,cs),
(-66,860,o),
(-19,868,o),
(-19,826,cs),
(-19,804,o),
(-35,791,o),
(-54,791,cs),
(-84,791,o),
(-97,796,o),
(-122,796,cs),
(-139,796,o),
(-145,788,o),
(-145,780,cs),
(-145,754,o),
(-107,756,o),
(-107,732,cs),
(-107,716,o),
(-124,708,o),
(-161,708,cs),
(-206,708,o),
(-206,685,o),
(-206,657,cs),
(-206,616,o),
(-239,600,o),
(-271,586,c),
(-274,593,l),
(-249,601,o),
(-227,619,o),
(-227,636,cs),
(-227,651,o),
(-233,657,o),
(-233,673,cs),
(-233,696,o),
(-212,713,o),
(-163,713,cs),
(-143,713,o),
(-132,722,o),
(-132,736,cs),
(-132,764,o),
(-178,757,o),
(-178,786,cs),
(-178,801,o),
(-166,811,o),
(-147,811,cs),
(-123,811,o),
(-107,802,o),
(-75,802,cs),
(-53,802,o),
(-41,822,o),
(-41,837,cs),
(-41,875,o),
(-104,873,o),
(-104,923,cs),
(-104,950,o),
(-84,972,o),
(-57,972,cs),
(-24,972,o),
(22,929,o),
(67,902,c),
(82,941,o),
(117,960,o),
(150,960,cs),
(179,960,o),
(207,946,o),
(207,917,cs),
(207,881,o),
(176,855,o),
(141,855,cs),
(122,855,o),
(106,862,o),
(90,870,c),
(91,818,o),
(117,780,o),
(178,780,cs),
(292,780,o),
(372,968,o),
(446,970,cs),
(499,971,o),
(506,888,o),
(504,829,c),
(554,854,o),
(622,872,o),
(703,872,cs),
(711,872,l),
(743,897,o),
(775,912,o),
(807,912,cs),
(853,912,o),
(897,891,o),
(941,843,c),
(933,836,l),
(903,863,o),
(875,883,o),
(839,883,cs),
(814,883,o),
(791,877,o),
(769,865,c),
(924,829,o),
(1004,670,o),
(1004,542,cs),
(1004,235,o),
(716,-12,o),
(472,-12,cs),
(354,-12,o),
(297,29,o),
(260,75,c),
(205,22,o),
(145,-12,o),
(76,-12,cs),
(40,-12,o),
(0,8,o),
(0,69,cs),
(0,184,o),
(103,266,o),
(164,266,cs),
(216,266,o),
(243,225,o),
(273,175,c),
(413,356,o),
(540,695,o),
(679,841,c),
(669,842,o),
(659,842,o),
(648,842,cs),
(593,842,o),
(541,829,o),
(503,809,c),
(492,737,o),
(457,675,o),
(404,675,cs),
(392,675,o),
(384,684,o),
(384,695,cs),
(384,732,o),
(420,786,o),
(492,824,c)
);
},
{
closed = 1;
nodes = (
(103,884,o),
(115,881,o),
(127,881,cs),
(153,881,o),
(176,893,o),
(176,919,cs),
(176,936,o),
(166,952,o),
(144,952,cs),
(120,952,o),
(95,937,o),
(91,890,c)
);
}
);
userData = {
com.schriftgestaltung.Glyphs.lastChange = "2025-09-23 10:46:54 +0000";
};
width = 954;
}
);
},
{
glyphname = E.ss01;
kernLeft = E;
kernRight = E;
layers = (
{
layerId = m01;
shapes = (
{
closed = 1;
nodes = (
(207,674,o),
(186,673,o),
(166,672,c),
(104,590,o),
(27,513,o),
(-17,513,cs),
(-49,513,o),
(-68,528,o),
(-68,555,cs),
(-68,613,o),
(-1,685,o),
(171,703,c),
(201,749,o),
(222,793,o),
(222,816,cs),
(222,847,o),
(204,868,o),
(174,868,cs),
(99,868,o),
(32,728,o),
(-80,728,cs),
(-103,728,o),
(-126,741,o),
(-126,771,cs),
(-126,843,o),
(48,841,o),
(48,901,cs),
(48,920,o),
(34,932,o),
(17,932,cs),
(-21,932,o),
(-75,860,o),
(-119,860,cs),
(-133,860,o),
(-145,867,o),
(-145,883,cs),
(-145,912,o),
(-83,923,o),
(-74,971,c),
(-63,971,l),
(-66,929,o),
(-123,914,o),
(-123,894,cs),
(-123,883,o),
(-114,876,o),
(-102,876,cs),
(-66,876,o),
(-14,950,o),
(35,950,cs),
(59,950,o),
(78,937,o),
(78,909,cs),
(78,839,o),
(-96,845,o),
(-96,785,cs),
(-96,765,o),
(-78,755,o),
(-54,755,cs),
(55,755,o),
(117,908,o),
(203,908,cs),
(238,908,o),
(262,888,o),
(262,849,cs),
(262,822,o),
(232,765,o),
(189,704,c),
(208,706,o),
(228,706,o),
(250,706,cs),
(261,706,o),
(272,706,o),
(283,707,c),
(315,775,o),
(414,821,o),
(491,821,cs),
(513,821,o),
(528,813,o),
(528,793,cs),
(528,767,o),
(463,701,o),
(323,680,c),
(323,678,ls),
(323,646,o),
(354,621,o),
(416,621,cs),
(426,621,l),
(508,804,o),
(846,920,o),
(1028,912,cs),
(1089,909,o),
(1132,891,o),
(1132,855,cs),
(1132,773,o),
(840,623,o),
(469,600,c),
(459,582,o),
(454,564,o),
(454,549,c),
(532,566,o),
(611,575,o),
(685,575,cs),
(724,575,o),
(781,563,o),
(781,528,cs),
(781,464,o),
(664,444,o),
(602,444,cs),
(523,444,o),
(463,464,o),
(431,492,c),
(261,426,o),
(87,307,o),
(87,153,cs),
(87,73,o),
(168,17,o),
(357,17,cs),
(609,17,o),
(869,179,o),
(869,262,cs),
(869,289,o),
(842,300,o),
(809,300,cs),
(762,300,o),
(688,271,o),
(653,238,c),
(672,235,o),
(698,220,o),
(698,195,cs),
(698,172,o),
(683,157,o),
(660,157,cs),
(637,157,o),
(618,174,o),
(618,197,cs),
(618,206,o),
(622,216,o),
(628,225,c),
(609,223,o),
(587,215,o),
(559,191,c),
(552,197,l),
(577,217,o),
(600,235,o),
(638,238,c),
(678,282,o),
(770,316,o),
(836,316,cs),
(888,316,o),
(927,305,o),
(927,246,cs),
(927,115,o),
(597,-11,o),
(409,-11,cs),
(170,-11,o),
(-1,49,o),
(0,179,cs),
(1,356,o),
(193,480,o),
(408,537,c),
(408,540,ls),
(408,560,o),
(411,580,o),
(417,598,c),
(376,598,ls),
(306,598,o),
(274,623,o),
(272,656,cs),
(272,662,o),
(272,669,o),
(273,675,c),
(260,675,o),
(246,674,o),
(231,674,cs)
);
},
{
closed = 1;
nodes = (
(-37,554,o),
(-19,542,o),
(-1,543,cs),
(40,544,o),
(102,605,o),
(149,670,c),
(12,659,o),
(-37,616,o),
(-37,577,cs)
);
},
{
closed = 1;
nodes = (
(457,726,o),
(512,774,o),
(512,791,cs),
(512,801,o),
(504,804,o),
(493,804,cs),
(460,804,o),
(359,770,o),
(330,711,c)
);
},
{
closed = 1;
nodes = (
(485,478,o),
(526,469,o),
(579,469,cs),
(664,469,o),
(743,506,o),
(743,534,cs),
(743,546,o),
(729,554,o),
(701,554,cs),
(644,554,o),
(557,537,o),
(466,505,c)
);
},
{
closed = 1;
nodes = (
(772,647,o),
(1060,804,o),
(1060,863,cs),
(1060,884,o),
(1044,895,o),
(1012,895,cs),
(822,895,o),
(570,745,o),
(484,624,c)
);
},
{
closed = 1;
nodes = (
(635,198,o),
(641,190,o),
(648,190,cs),
(654,190,o),
(660,194,o),
(660,203,cs),
(660,211,o),
(653,221,o),
(642,224,c),
(637,218,o),
(635,212,o),
(635,205,cs)
);
}
);
userData = {
com.schriftgestaltung.Glyphs.lastChange = "2025-09-23 10:46:54 +0000";
};
width = 937;
}
);
},
{
glyphname = Eacute.ss01;
kernLeft = E;
kernRight = E;
layers = (
{
layerId = m01;
shapes = (
{
pos = (791,480);
ref = acutecomb;
},
{
closed = 1;
nodes = (
(207,674,o),
(186,673,o),
(166,672,c),
(104,590,o),
(27,513,o),
(-17,513,cs),
(-49,513,o),
(-68,528,o),
(-68,555,cs),
(-68,613,o),
(-1,685,o),
(171,703,c),
(201,749,o),
(222,793,o),
(222,816,cs),
(222,847,o),
(204,868,o),
(174,868,cs),
(99,868,o),
(32,728,o),
(-80,728,cs),
(-103,728,o),
(-126,741,o),
(-126,771,cs),
(-126,843,o),
(48,841,o),
(48,901,cs),
(48,920,o),
(34,932,o),
(17,932,cs),
(-21,932,o),
(-75,860,o),
(-119,860,cs),
(-133,860,o),
(-145,867,o),
(-145,883,cs),
(-145,912,o),
(-83,923,o),
(-74,971,c),
(-63,971,l),
(-66,929,o),
(-123,914,o),
(-123,894,cs),
(-123,883,o),
(-114,876,o),
(-102,876,cs),
(-66,876,o),
(-14,950,o),
(35,950,cs),
(59,950,o),
(78,937,o),
(78,909,cs),
(78,839,o),
(-96,845,o),
(-96,785,cs),
(-96,765,o),
(-78,755,o),
(-54,755,cs),
(55,755,o),
(117,908,o),
(203,908,cs),
(238,908,o),
(262,888,o),
(262,849,cs),
(262,822,o),
(232,765,o),
(189,704,c),
(208,706,o),
(228,706,o),
(250,706,cs),
(261,706,o),
(272,706,o),
(283,707,c),
(315,775,o),
(414,821,o),
(491,821,cs),
(513,821,o),
(528,813,o),
(528,793,cs),
(528,767,o),
(463,701,o),
(323,680,c),
(323,678,ls),
(323,646,o),
(354,621,o),
(416,621,cs),
(426,621,l),
(508,804,o),
(846,920,o),
(1028,912,cs),
(1089,909,o),
(1132,891,o),
(1132,855,cs),
(1132,773,o),
(840,623,o),
(469,600,c),
(459,582,o),
(454,564,o),
(454,549,c),
(532,566,o),
(611,575,o),
(685,575,cs),
(724,575,o),
(781,563,o),
(781,528,cs),
(781,464,o),
(664,444,o),
(602,444,cs),
(523,444,o),
(463,464,o),
(431,492,c),
(261,426,o),
(87,307,o),
(87,153,cs),
(87,73,o),
(168,17,o),
(357,17,cs),
(609,17,o),
(869,179,o),
(869,262,cs),
(869,289,o),
(842,300,o),
(809,300,cs),
(762,300,o),
(688,271,o),
(653,238,c),
(672,235,o),
(698,220,o),
(698,195,cs),
(698,172,o),
(683,157,o),
(660,157,cs),
(637,157,o),
(618,174,o),
(618,197,cs),
(618,206,o),
(622,216,o),
(628,225,c),
(609,223,o),
(587,215,o),
(559,191,c),
(552,197,l),
(577,217,o),
(600,235,o),
(638,238,c),
(678,282,o),
(770,316,o),
(836,316,cs),
(888,316,o),
(927,305,o),
(927,246,cs),
(927,115,o),
(597,-11,o),
(409,-11,cs),
(170,-11,o),
(-1,49,o),
(0,179,cs),
(1,356,o),
(193,480,o),
(408,537,c),
(408,540,ls),
(408,560,o),
(411,580,o),
(417,598,c),
(376,598,ls),
(306,598,o),
(274,623,o),
(272,656,cs),
(272,662,o),
(272,669,o),
(273,675,c),
(260,675,o),
(246,674,o),
(231,674,cs)
);
},
{
closed = 1;
nodes = (
(-37,554,o),
(-19,542,o),
(-1,543,cs),
(40,544,o),
(102,605,o),
(149,670,c),
(12,659,o),
(-37,616,o),
(-37,577,cs)
);
},
{
closed = 1;
nodes = (
(457,726,o),
(512,774,o),
(512,791,cs),
(512,801,o),
(504,804,o),
(493,804,cs),
(460,804,o),
(359,770,o),
(330,711,c)
);
},
{
closed = 1;
nodes = (
(485,478,o),
(526,469,o),
(579,469,cs),
(664,469,o),
(743,506,o),
(743,534,cs),
(743,546,o),
(729,554,o),
(701,554,cs),
(644,554,o),
(557,537,o),
(466,505,c)
);
},
{
closed = 1;
nodes = (
(772,647,o),
(1060,804,o),
(1060,863,cs),
(1060,884,o),
(1044,895,o),
(1012,895,cs),
(822,895,o),
(570,745,o),
(484,624,c)
);
},
{
closed = 1;
nodes = (
(635,198,o),
(641,190,o),
(648,190,cs),
(654,190,o),
(660,194,o),
(660,203,cs),
(660,211,o),
(653,221,o),
(642,224,c),
(637,218,o),
(635,212,o),
(635,205,cs)
);
}
);
userData = {
com.schriftgestaltung.Glyphs.lastChange = "2025-09-23 10:46:54 +0000";
};
width = 937;
}
);
},
{
glyphname = Ecircumflex.ss01;
kernLeft = E;
kernRight = E;
layers = (
{
layerId = m01;
shapes = (
{
pos = (782,462);
ref = circumflexcomb;
},
{
closed = 1;
nodes = (
(207,674,o),
(186,673,o),
(166,672,c),
(104,590,o),
(27,513,o),
(-17,513,cs),
(-49,513,o),
(-68,528,o),
(-68,555,cs),
(-68,613,o),
(-1,685,o),
(171,703,c),
(201,749,o),
(222,793,o),
(222,816,cs),
(222,847,o),
(204,868,o),
(174,868,cs),
(99,868,o),
(32,728,o),
(-80,728,cs),
(-103,728,o),
(-126,741,o),
(-126,771,cs),
(-126,843,o),
(48,841,o),
(48,901,cs),
(48,920,o),
(34,932,o),
(17,932,cs),
(-21,932,o),
(-75,860,o),
(-119,860,cs),
(-133,860,o),
(-145,867,o),
(-145,883,cs),
(-145,912,o),
(-83,923,o),
(-74,971,c),
(-63,971,l),
(-66,929,o),
(-123,914,o),
(-123,894,cs),
(-123,883,o),
(-114,876,o),
(-102,876,cs),
(-66,876,o),
(-14,950,o),
(35,950,cs),
(59,950,o),
(78,937,o),
(78,909,cs),
(78,839,o),
(-96,845,o),
(-96,785,cs),
(-96,765,o),
(-78,755,o),
(-54,755,cs),
(55,755,o),
(117,908,o),
(203,908,cs),
(238,908,o),
(262,888,o),
(262,849,cs),
(262,822,o),
(232,765,o),
(189,704,c),
(208,706,o),
(228,706,o),
(250,706,cs),
(261,706,o),
(272,706,o),
(283,707,c),
(315,775,o),
(414,821,o),
(491,821,cs),
(513,821,o),
(528,813,o),
(528,793,cs),
(528,767,o),
(463,701,o),
(323,680,c),
(323,678,ls),
(323,646,o),
(354,621,o),
(416,621,cs),
(426,621,l),
(508,804,o),
(846,920,o),
(1028,912,cs),
(1089,909,o),
(1132,891,o),
(1132,855,cs),
(1132,773,o),
(840,623,o),
(469,600,c),
(459,582,o),
(454,564,o),
(454,549,c),
(532,566,o),
(611,575,o),
(685,575,cs),
(724,575,o),
(781,563,o),
(781,528,cs),
(781,464,o),
(664,444,o),
(602,444,cs),
(523,444,o),
(463,464,o),
(431,492,c),
(261,426,o),
(87,307,o),
(87,153,cs),
(87,73,o),
(168,17,o),
(357,17,cs),
(609,17,o),
(869,179,o),
(869,262,cs),
(869,289,o),
(842,300,o),
(809,300,cs),
(762,300,o),
(688,271,o),
(653,238,c),
(672,235,o),
(698,220,o),
(698,195,cs),
(698,172,o),
(683,157,o),
(660,157,cs),
(637,157,o),
(618,174,o),
(618,197,cs),
(618,206,o),
(622,216,o),
(628,225,c),
(609,223,o),
(587,215,o),
(559,191,c),
(552,197,l),
(577,217,o),
(600,235,o),
(638,238,c),
(678,282,o),
(770,316,o),
(836,316,cs),
(888,316,o),
(927,305,o),
(927,246,cs),
(927,115,o),
(597,-11,o),
(409,-11,cs),
(170,-11,o),
(-1,49,o),
(0,179,cs),
(1,356,o),
(193,480,o),
(408,537,c),
(408,540,ls),
(408,560,o),
(411,580,o),
(417,598,c),
(376,598,ls),
(306,598,o),
(274,623,o),
(272,656,cs),
(272,662,o),
(272,669,o),
(273,675,c),
(260,675,o),
(246,674,o),
(231,674,cs)
);
},
{
closed = 1;
nodes = (
(-37,554,o),
(-19,542,o),
(-1,543,cs),
(40,544,o),
(102,605,o),
(149,670,c),
(12,659,o),
(-37,616,o),
(-37,577,cs)
);
},
{
closed = 1;
nodes = (
(457,726,o),
(512,774,o),
(512,791,cs),
(512,801,o),
(504,804,o),
(493,804,cs),
(460,804,o),
(359,770,o),
(330,711,c)
);
},
{
closed = 1;
nodes = (
(485,478,o),
(526,469,o),
(579,469,cs),
(664,469,o),
(743,506,o),
(743,534,cs),
(743,546,o),
(729,554,o),
(701,554,cs),
(644,554,o),
(557,537,o),
(466,505,c)
);
},
{
closed = 1;
nodes = (
(772,647,o),
(1060,804,o),
(1060,863,cs),
(1060,884,o),
(1044,895,o),
(1012,895,cs),
(822,895,o),
(570,745,o),
(484,624,c)
);
},
{
closed = 1;
nodes = (
(635,198,o),
(641,190,o),
(648,190,cs),
(654,190,o),
(660,194,o),
(660,203,cs),
(660,211,o),
(653,221,o),
(642,224,c),
(637,218,o),
(635,212,o),
(635,205,cs)
);
}
);
userData = {
com.schriftgestaltung.Glyphs.lastChange = "2025-09-23 10:46:54 +0000";
};
width = 937;
}
);
},
{
glyphname = Edieresis.ss01;
kernLeft = E;
kernRight = E;
layers = (
{
layerId = m01;
shapes = (
{
pos = (832,471);
ref = dieresiscomb;
},
{
closed = 1;
nodes = (
(207,674,o),
(186,673,o),
(166,672,c),
(104,590,o),
(27,513,o),
(-17,513,cs),
(-49,513,o),
(-68,528,o),
(-68,555,cs),
(-68,613,o),
(-1,685,o),
(171,703,c),
(201,749,o),
(222,793,o),
(222,816,cs),
(222,847,o),
(204,868,o),
(174,868,cs),
(99,868,o),
(32,728,o),
(-80,728,cs),
(-103,728,o),
(-126,741,o),
(-126,771,cs),
(-126,843,o),
(48,841,o),
(48,901,cs),
(48,920,o),
(34,932,o),
(17,932,cs),
(-21,932,o),
(-75,860,o),
(-119,860,cs),
(-133,860,o),
(-145,867,o),
(-145,883,cs),
(-145,912,o),
(-83,923,o),
(-74,971,c),
(-63,971,l),
(-66,929,o),
(-123,914,o),
(-123,894,cs),
(-123,883,o),
(-114,876,o),
(-102,876,cs),
(-66,876,o),
(-14,950,o),
(35,950,cs),
(59,950,o),
(78,937,o),
(78,909,cs),
(78,839,o),
(-96,845,o),
(-96,785,cs),
(-96,765,o),
(-78,755,o),
(-54,755,cs),
(55,755,o),
(117,908,o),
(203,908,cs),
(238,908,o),
(262,888,o),
(262,849,cs),
(262,822,o),
(232,765,o),
(189,704,c),
(208,706,o),
(228,706,o),
(250,706,cs),
(261,706,o),
(272,706,o),
(283,707,c),
(315,775,o),
(414,821,o),
(491,821,cs),
(513,821,o),
(528,813,o),
(528,793,cs),
(528,767,o),
(463,701,o),
(323,680,c),
(323,678,ls),
(323,646,o),
(354,621,o),
(416,621,cs),
(426,621,l),
(508,804,o),
(846,920,o),
(1028,912,cs),
(1089,909,o),
(1132,891,o),
(1132,855,cs),
(1132,773,o),
(840,623,o),
(469,600,c),
(459,582,o),
(454,564,o),
(454,549,c),
(532,566,o),
(611,575,o),
(685,575,cs),
(724,575,o),
(781,563,o),
(781,528,cs),
(781,464,o),
(664,444,o),
(602,444,cs),
(523,444,o),
(463,464,o),
(431,492,c),
(261,426,o),
(87,307,o),
(87,153,cs),
(87,73,o),
(168,17,o),
(357,17,cs),
(609,17,o),
(869,179,o),
(869,262,cs),
(869,289,o),
(842,300,o),
(809,300,cs),
(762,300,o),
(688,271,o),
(653,238,c),
(672,235,o),
(698,220,o),
(698,195,cs),
(698,172,o),
(683,157,o),
(660,157,cs),
(637,157,o),
(618,174,o),
(618,197,cs),
(618,206,o),
(622,216,o),
(628,225,c),
(609,223,o),
(587,215,o),
(559,191,c),
(552,197,l),
(577,217,o),
(600,235,o),
(638,238,c),
(678,282,o),
(770,316,o),
(836,316,cs),
(888,316,o),
(927,305,o),
(927,246,cs),
(927,115,o),
(597,-11,o),
(409,-11,cs),
(170,-11,o),
(-1,49,o),
(0,179,cs),
(1,356,o),
(193,480,o),
(408,537,c),
(408,540,ls),
(408,560,o),
(411,580,o),
(417,598,c),
(376,598,ls),
(306,598,o),
(274,623,o),
(272,656,cs),
(272,662,o),
(272,669,o),
(273,675,c),
(260,675,o),
(246,674,o),
(231,674,cs)
);
},
{
closed = 1;
nodes = (
(-37,554,o),
(-19,542,o),
(-1,543,cs),
(40,544,o),
(102,605,o),
(149,670,c),
(12,659,o),
(-37,616,o),
(-37,577,cs)
);
},
{
closed = 1;
nodes = (
(457,726,o),
(512,774,o),
(512,791,cs),
(512,801,o),
(504,804,o),
(493,804,cs),
(460,804,o),
(359,770,o),
(330,711,c)
);
},
{
closed = 1;
nodes = (
(485,478,o),
(526,469,o),
(579,469,cs),
(664,469,o),
(743,506,o),
(743,534,cs),
(743,546,o),
(729,554,o),
(701,554,cs),
(644,554,o),
(557,537,o),
(466,505,c)
);
},
{
closed = 1;
nodes = (
(772,647,o),
(1060,804,o),
(1060,863,cs),
(1060,884,o),
(1044,895,o),
(1012,895,cs),
(822,895,o),
(570,745,o),
(484,624,c)
);
},
{
closed = 1;
nodes = (
(635,198,o),
(641,190,o),
(648,190,cs),
(654,190,o),
(660,194,o),
(660,203,cs),
(660,211,o),
(653,221,o),
(642,224,c),
(637,218,o),
(635,212,o),
(635,205,cs)
);
}
);
userData = {
com.schriftgestaltung.Glyphs.lastChange = "2025-09-23 10:46:54 +0000";
};
width = 937;
}
);
},
{
glyphname = Egrave.ss01;
kernLeft = E;
kernRight = E;
layers = (
{
layerId = m01;
shapes = (
{
pos = (745,469);
ref = gravecomb;
},
{
closed = 1;
nodes = (
(207,674,o),
(186,673,o),
(166,672,c),
(104,590,o),
(27,513,o),
(-17,513,cs),
(-49,513,o),
(-68,528,o),
(-68,555,cs),
(-68,613,o),
(-1,685,o),
(171,703,c),
(201,749,o),
(222,793,o),
(222,816,cs),
(222,847,o),
(204,868,o),
(174,868,cs),
(99,868,o),
(32,728,o),
(-80,728,cs),
(-103,728,o),
(-126,741,o),
(-126,771,cs),
(-126,843,o),
(48,841,o),
(48,901,cs),
(48,920,o),
(34,932,o),
(17,932,cs),
(-21,932,o),
(-75,860,o),
(-119,860,cs),
(-133,860,o),
(-145,867,o),
(-145,883,cs),
(-145,912,o),
(-83,923,o),
(-74,971,c),
(-63,971,l),
(-66,929,o),
(-123,914,o),
(-123,894,cs),
(-123,883,o),
(-114,876,o),
(-102,876,cs),
(-66,876,o),
(-14,950,o),
(35,950,cs),
(59,950,o),
(78,937,o),
(78,909,cs),
(78,839,o),
(-96,845,o),
(-96,785,cs),
(-96,765,o),
(-78,755,o),
(-54,755,cs),
(55,755,o),
(117,908,o),
(203,908,cs),
(238,908,o),
(262,888,o),
(262,849,cs),
(262,822,o),
(232,765,o),
(189,704,c),
(208,706,o),
(228,706,o),
(250,706,cs),
(261,706,o),
(272,706,o),
(283,707,c),
(315,775,o),
(414,821,o),
(491,821,cs),
(513,821,o),
(528,813,o),
(528,793,cs),
(528,767,o),
(463,701,o),
(323,680,c),
(323,678,ls),
(323,646,o),
(354,621,o),
(416,621,cs),
(426,621,l),
(508,804,o),
(846,920,o),
(1028,912,cs),
(1089,909,o),
(1132,891,o),
(1132,855,cs),
(1132,773,o),
(840,623,o),
(469,600,c),
(459,582,o),
(454,564,o),
(454,549,c),
(532,566,o),
(611,575,o),
(685,575,cs),
(724,575,o),
(781,563,o),
(781,528,cs),
(781,464,o),
(664,444,o),
(602,444,cs),
(523,444,o),
(463,464,o),
(431,492,c),
(261,426,o),
(87,307,o),
(87,153,cs),
(87,73,o),
(168,17,o),
(357,17,cs),
(609,17,o),
(869,179,o),
(869,262,cs),
(869,289,o),
(842,300,o),
(809,300,cs),
(762,300,o),
(688,271,o),
(653,238,c),
(672,235,o),
(698,220,o),
(698,195,cs),
(698,172,o),
(683,157,o),
(660,157,cs),
(637,157,o),
(618,174,o),
(618,197,cs),
(618,206,o),
(622,216,o),
(628,225,c),
(609,223,o),
(587,215,o),
(559,191,c),
(552,197,l),
(577,217,o),
(600,235,o),
(638,238,c),
(678,282,o),
(770,316,o),
(836,316,cs),
(888,316,o),
(927,305,o),
(927,246,cs),
(927,115,o),
(597,-11,o),
(409,-11,cs),
(170,-11,o),
(-1,49,o),
(0,179,cs),
(1,356,o),
(193,480,o),
(408,537,c),
(408,540,ls),
(408,560,o),
(411,580,o),
(417,598,c),
(376,598,ls),
(306,598,o),
(274,623,o),
(272,656,cs),
(272,662,o),
(272,669,o),
(273,675,c),
(260,675,o),
(246,674,o),
(231,674,cs)
);
},
{
closed = 1;
nodes = (
(-37,554,o),
(-19,542,o),
(-1,543,cs),
(40,544,o),
(102,605,o),
(149,670,c),
(12,659,o),
(-37,616,o),
(-37,577,cs)
);
},
{
closed = 1;
nodes = (
(457,726,o),
(512,774,o),
(512,791,cs),
(512,801,o),
(504,804,o),
(493,804,cs),
(460,804,o),
(359,770,o),
(330,711,c)
);
},
{
closed = 1;
nodes = (
(485,478,o),
(526,469,o),
(579,469,cs),
(664,469,o),
(743,506,o),
(743,534,cs),
(743,546,o),
(729,554,o),
(701,554,cs),
(644,554,o),
(557,537,o),
(466,505,c)
);
},
{
closed = 1;
nodes = (
(772,647,o),
(1060,804,o),
(1060,863,cs),
(1060,884,o),
(1044,895,o),
(1012,895,cs),
(822,895,o),
(570,745,o),
(484,624,c)
);
},
{
closed = 1;
nodes = (
(635,198,o),
(641,190,o),
(648,190,cs),
(654,190,o),
(660,194,o),
(660,203,cs),
(660,211,o),
(653,221,o),
(642,224,c),
(637,218,o),
(635,212,o),
(635,205,cs)
);
}
);
userData = {
com.schriftgestaltung.Glyphs.lastChange = "2025-09-23 10:46:54 +0000";
};
width = 937;
}
);
},
{
glyphname = F.ss01;
kernLeft = F;
kernRight = F;
layers = (
{
layerId = m01;
shapes = (
{
closed = 1;
nodes = (
(467,565,l),
(464,557,o),
(460,547,o),
(456,539,c),
(480,526,o),
(507,513,o),
(537,501,c),
(585,588,o),
(619,673,o),
(631,738,c),
(602,727,o),
(573,721,o),
(546,721,cs),
(467,721,o),
(421,757,o),
(421,799,cs),
(421,876,o),
(522,912,o),
(574,912,cs),
(660,912,o),
(701,883,o),
(701,811,cs),
(701,800,l),
(806,842,o),
(904,912,o),
(1011,912,cs),
(1063,912,o),
(1099,877,o),
(1099,834,cs),
(1099,786,o),
(1054,758,o),
(1004,758,cs),
(973,758,o),
(964,769,o),
(958,775,c),
(965,781,l),
(972,772,o),
(989,767,o),
(1002,767,cs),
(1045,767,o),
(1072,783,o),
(1072,816,cs),
(1072,852,o),
(1024,876,o),
(984,876,cs),
(896,876,o),
(793,811,o),
(697,765,c),
(684,692,o),
(644,590,o),
(589,484,c),
(617,477,o),
(648,472,o),
(681,472,cs),
(780,472,o),
(896,500,o),
(921,577,c),
(907,571,o),
(894,567,o),
(879,567,cs),
(818,567,o),
(797,594,o),
(797,620,cs),
(797,657,o),
(827,675,o),
(864,675,cs),
(910,675,o),
(935,646,o),
(942,614,c),
(980,633,o),
(1011,672,o),
(1026,693,c),
(1034,685,l),
(1012,656,o),
(980,616,o),
(944,591,c),
(940,478,o),
(835,430,o),
(721,428,cs),
(667,428,o),
(618,440,o),
(574,456,c),
(446,227,o),
(246,-12,o),
(76,-12,cs),
(40,-12,o),
(0,8,o),
(0,69,cs),
(0,73,o),
(0,76,o),
(1,80,c),
(-160,15,o),
(-379,-80,o),
(-379,-235,cs),
(-379,-394,o),
(-233,-446,o),
(1,-444,cs),
(69,-444,o),
(127,-434,o),
(171,-419,c),
(158,-393,o),
(151,-364,o),
(151,-333,cs),
(151,-265,o),
(202,-233,o),
(247,-233,cs),
(294,-233,o),
(325,-262,o),
(325,-305,cs),
(325,-351,o),
(284,-394,o),
(215,-423,c),
(266,-473,o),
(364,-501,o),
(511,-501,cs),
(744,-501,o),
(1018,-338,o),
(1234,-313,c),
(1383,-227,o),
(1616,-170,o),
(1884,-170,cs),
(2259,-170,o),
(2447,-241,o),
(2447,-323,cs),
(2447,-372,o),
(2405,-416,o),
(2189,-423,cs),
(2129,-425,o),
(2077,-420,o),
(2029,-412,c),
(2005,-433,o),
(1974,-454,o),
(1939,-475,c),
(1953,-526,o),
(1998,-540,o),
(2058,-541,cs),
(2166,-542,o),
(2222,-472,o),
(2309,-469,cs),
(2352,-468,o),
(2384,-477,o),
(2406,-492,c),
(2439,-485,o),
(2482,-482,o),
(2530,-482,c),
(2530,-489,l),
(2482,-488,o),
(2442,-491,o),
(2412,-498,c),
(2426,-510,o),
(2433,-526,o),
(2433,-544,cs),
(2433,-574,o),
(2413,-593,o),
(2378,-593,cs),
(2351,-593,o),
(2336,-575,o),
(2336,-554,cs),
(2336,-531,o),
(2349,-514,o),
(2372,-503,c),
(2355,-495,o),
(2331,-490,o),
(2303,-490,cs),
(2210,-490,o),
(2159,-559,o),
(2043,-559,cs),
(1992,-559,o),
(1931,-541,o),
(1907,-494,c),
(1736,-585,o),
(1479,-665,o),
(1269,-665,cs),
(1150,-665,o),
(1061,-619,o),
(1061,-539,cs),
(1060,-470,o),
(1103,-405,o),
(1179,-349,c),
(930,-402,o),
(750,-553,o),
(468,-553,cs),
(331,-553,o),
(230,-509,o),
(181,-436,c),
(126,-455,o),
(57,-466,o),
(-21,-466,cs),
(-278,-466,o),
(-454,-419,o),
(-454,-247,cs),
(-454,-83,o),
(-183,22,o),
(2,94,c),
(18,207,o),
(138,356,o),
(223,356,cs),
(254,356,o),
(277,333,o),
(277,298,cs),
(277,252,o),
(242,190,o),
(117,130,cs),
(98,120,o),
(74,110,o),
(47,99,c),
(53,73,o),
(75,59,o),
(107,59,cs),
(230,59,o),
(409,271,o),
(524,477,c),
(495,491,o),
(469,505,o),
(445,518,c),
(422,480,o),
(390,450,o),
(349,450,cs),
(323,450,o),
(299,465,o),
(299,495,cs),
(299,544,o),
(333,570,o),
(374,570,cs),
(392,570,o),
(417,559,o),
(446,544,c),
(451,552,o),
(455,560,o),
(459,569,c)
);
},
{
closed = 1;
nodes = (
(45,111,l),
(70,120,o),
(93,130,o),
(112,138,cs),
(217,186,o),
(238,243,o),
(238,266,cs),
(238,283,o),
(225,300,o),
(195,300,cs),
(138,300,o),
(45,231,o),
(45,117,cs)
);
},
{
closed = 1;
nodes = (
(174,-357,o),
(183,-384,o),
(200,-407,c),
(253,-382,o),
(281,-348,o),
(281,-309,cs),
(281,-282,o),
(267,-255,o),
(233,-255,cs),
(194,-255,o),
(174,-287,o),
(174,-328,cs)
);
},
{
closed = 1;
nodes = (
(317,498,o),
(338,486,o),
(366,486,cs),
(393,486,o),
(415,502,o),
(433,524,c),
(402,539,o),
(377,549,o),
(354,549,cs),
(330,549,o),
(317,536,o),
(317,521,cs)
);
},
{
closed = 1;
nodes = (
(469,788,o),
(506,768,o),
(560,768,cs),
(586,768,o),
(612,772,o),
(637,778,c),
(637,787,ls),
(637,841,o),
(608,884,o),
(541,884,cs),
(508,884,o),
(469,863,o),
(469,830,cs)
);
},
{
closed = 1;
nodes = (
(845,626,o),
(857,603,o),
(899,603,cs),
(908,603,o),
(917,605,o),
(925,607,c),
(925,649,o),
(896,662,o),
(874,662,cs),
(856,662,o),
(845,651,o),
(845,636,cs)
);
},
{
closed = 1;
nodes = (
(1128,-585,o),
(1210,-624,o),
(1356,-624,cs),
(1535,-624,o),
(1752,-553,o),
(1899,-476,c),
(1896,-467,o),
(1895,-456,o),
(1895,-445,cs),
(1895,-424,o),
(1899,-403,o),
(1907,-384,c),
(1812,-357,o),
(1726,-327,o),
(1614,-326,cs),
(1574,-326,o),
(1542,-329,o),
(1517,-336,c),
(1563,-354,o),
(1575,-380,o),
(1575,-409,cs),
(1575,-449,o),
(1540,-479,o),
(1492,-479,cs),
(1443,-479,o),
(1410,-448,o),
(1410,-412,cs),
(1410,-379,o),
(1426,-355,o),
(1453,-337,c),
(1426,-333,o),
(1392,-330,o),
(1351,-330,cs),
(1307,-330,o),
(1264,-334,o),
(1224,-341,c),
(1163,-384,o),
(1128,-436,o),
(1128,-490,cs)
);
},
{
closed = 1;
nodes = (
(1288,-310,ls),
(1374,-310,o),
(1434,-315,o),
(1477,-325,c),
(1511,-311,o),
(1557,-304,o),
(1611,-304,cs),
(1734,-303,o),
(1817,-338,o),
(1912,-369,c),
(1939,-314,o),
(1990,-273,o),
(2039,-273,cs),
(2072,-273,o),
(2092,-289,o),
(2092,-317,cs),
(2092,-343,o),
(2073,-372,o),
(2041,-402,c),
(2080,-408,o),
(2123,-413,o),
(2173,-413,cs),
(2313,-413,o),
(2390,-387,o),
(2390,-318,cs),
(2390,-233,o),
(2187,-184,o),
(1870,-184,cs),
(1631,-184,o),
(1410,-234,o),
(1273,-310,c)
);
},
{
closed = 1;
nodes = (
(1454,-436,o),
(1474,-456,o),
(1503,-456,cs),
(1530,-456,o),
(1554,-433,o),
(1554,-406,cs),
(1554,-383,o),
(1539,-360,o),
(1493,-346,c),
(1467,-359,o),
(1454,-379,o),
(1454,-406,cs)
);
},
{
closed = 1;
nodes = (
(1934,-444,o),
(1935,-451,o),
(1935,-456,c),
(1963,-441,o),
(1989,-424,o),
(2009,-408,c),
(1985,-404,o),
(1962,-399,o),
(1940,-393,c),
(1936,-407,o),
(1934,-421,o),
(1934,-437,cs)
);
},
{
closed = 1;
nodes = (
(1969,-387,o),
(1994,-393,o),
(2022,-398,c),
(2051,-373,o),
(2069,-350,o),
(2069,-331,cs),
(2069,-314,o),
(2058,-300,o),
(2032,-300,cs),
(2000,-300,o),
(1963,-332,o),
(1945,-379,c)
);
},
{
closed = 1;
nodes = (
(2348,-570,o),
(2360,-580,o),
(2375,-580,cs),
(2395,-580,o),
(2408,-568,o),
(2408,-547,cs),
(2408,-533,o),
(2399,-518,o),
(2382,-508,c),
(2359,-518,o),
(2348,-533,o),
(2348,-552,cs)
);
}
);
userData = {
com.schriftgestaltung.Glyphs.lastChange = "2025-09-23 10:46:54 +0000";
};
width = 523;
}
);
},
{
glyphname = G.ss01;
kernLeft = G;
kernRight = G;
layers = (
{
layerId = m01;
shapes = (
{
closed = 1;
nodes = (
(239,788,o),
(262,788,o),
(284,789,c),
(194,709,o),
(117,606,o),
(117,526,cs),
(117,487,o),
(141,451,o),
(176,431,c),
(156,390,o),
(143,348,o),
(143,307,cs),
(143,212,o),
(194,163,o),
(312,163,cs),
(396,163,o),
(510,199,o),
(618,249,c),
(571,192,o),
(521,130,o),
(467,71,c),
(408,86,o),
(342,102,o),
(261,102,cs),
(47,102,o),
(-216,-31,o),
(-216,-244,cs),
(-216,-330,o),
(-161,-372,o),
(-71,-372,cs),
(112,-372,o),
(316,-185,o),
(492,18,c),
(528,14,o),
(568,11,o),
(619,11,cs),
(748,11,o),
(827,81,o),
(841,145,c),
(855,148,o),
(873,158,o),
(886,172,c),
(882,179,l),
(873,170,o),
(858,159,o),
(842,158,c),
(843,167,ls),
(847,217,o),
(818,235,o),
(798,235,cs),
(779,235,o),
(763,222,o),
(763,199,cs),
(763,177,o),
(783,150,o),
(821,145,c),
(804,90,o),
(737,35,o),
(651,35,cs),
(608,35,o),
(567,44,o),
(523,55,c),
(595,141,o),
(662,228,o),
(719,302,c),
(842,373,o),
(938,456,o),
(938,510,cs),
(938,518,o),
(933,532,o),
(911,532,cs),
(854,532,o),
(764,426,o),
(652,289,c),
(559,248,o),
(451,211,o),
(367,211,cs),
(254,211,o),
(202,257,o),
(202,328,cs),
(202,361,o),
(208,388,o),
(225,413,c),
(234,412,o),
(243,411,o),
(252,411,cs),
(495,411,o),
(1014,678,o),
(1014,847,cs),
(1014,888,o),
(986,912,o),
(935,912,cs),
(759,912,o),
(374,711,o),
(212,494,c),
(190,510,o),
(184,539,o),
(184,564,cs),
(184,644,o),
(257,719,o),
(334,792,c),
(492,804,o),
(549,842,o),
(549,883,cs),
(549,899,o),
(539,912,o),
(516,912,cs),
(461,912,o),
(378,867,o),
(302,804,c),
(276,803,o),
(246,802,o),
(215,802,cs),
(199,802,o),
(185,802,o),
(171,801,c),
(217,865,o),
(252,930,o),
(252,958,cs),
(252,996,o),
(228,1017,o),
(193,1017,cs),
(107,1017,o),
(45,864,o),
(-64,864,cs),
(-88,864,o),
(-106,874,o),
(-106,894,cs),
(-106,953,o),
(68,948,o),
(68,1018,cs),
(68,1046,o),
(49,1059,o),
(25,1059,cs),
(-24,1059,o),
(-76,984,o),
(-112,984,cs),
(-124,984,o),
(-133,991,o),
(-133,1002,cs),
(-133,1023,o),
(-76,1038,o),
(-73,1079,c),
(-84,1079,l),
(-93,1032,o),
(-156,1021,o),
(-156,992,cs),
(-156,976,o),
(-143,968,o),
(-129,968,cs),
(-85,968,o),
(-31,1041,o),
(6,1041,cs),
(24,1041,o),
(37,1029,o),
(37,1009,cs),
(37,950,o),
(-136,952,o),
(-136,880,cs),
(-136,850,o),
(-113,837,o),
(-90,837,cs),
(22,837,o),
(89,976,o),
(163,976,cs),
(194,976,o),
(212,956,o),
(212,924,cs),
(212,900,o),
(187,850,o),
(153,800,c),
(-27,788,o),
(-78,724,o),
(-78,664,cs),
(-78,636,o),
(-59,621,o),
(-27,621,cs),
(18,621,o),
(97,702,o),
(160,786,c),
(177,787,o),
(195,788,o),
(215,788,cs)
);
},
{
closed = 1;
nodes = (
(-186,-93,o),
(-30,42,o),
(239,42,cs),
(318,42,o),
(372,34,o),
(427,26,c),
(267,-147,o),
(88,-307,o),
(-93,-307,cs),
(-157,-307,o),
(-186,-260,o),
(-186,-217,cs)
);
},
{
closed = 1;
nodes = (
(-47,726,o),
(4,773,o),
(143,785,c),
(94,717,o),
(32,653,o),
(-12,652,cs),
(-30,651,o),
(-47,662,o),
(-47,685,cs)
);
},
{
closed = 1;
nodes = (
(413,861,o),
(477,900,o),
(520,900,cs),
(530,900,o),
(537,896,o),
(537,888,cs),
(537,858,o),
(490,822,o),
(352,809,c)
);
},
{
closed = 1;
nodes = (
(828,444,o),
(886,518,o),
(910,518,cs),
(917,518,o),
(924,515,o),
(924,504,cs),
(924,464,o),
(849,397,o),
(747,339,c)
);
},
{
closed = 1;
nodes = (
(775,212,o),
(783,220,o),
(792,220,cs),
(812,220,o),
(826,199,o),
(824,170,cs),
(824,158,l),
(790,162,o),
(775,181,o),
(775,204,cs)
);
},
{
closed = 1;
nodes = (
(392,696,o),
(803,896,o),
(936,896,cs),
(970,896,o),
(984,883,o),
(984,861,cs),
(984,751,o),
(516,471,o),
(303,471,cs),
(279,471,o),
(264,472,o),
(254,475,c)
);
}
);
userData = {
com.schriftgestaltung.Glyphs.lastChange = "2025-09-23 10:46:54 +0000";
};
width = 902;
}
);
},
{
glyphname = H.ss01;
kernLeft = H;
kernRight = H;
layers = (
{
layerId = m01;
shapes = (
{
closed = 1;
nodes = (
(526,775,o),
(467,754,o),
(387,737,c),
(384,731,o),
(383,725,o),
(383,719,cs),
(383,702,o),
(400,687,o),
(426,687,cs),
(477,687,o),
(567,712,o),
(648,746,c),
(706,843,o),
(762,911,o),
(819,911,cs),
(847,911,o),
(860,891,o),
(860,874,cs),
(860,825,o),
(775,763,o),
(671,715,c),
(631,641,o),
(587,549,o),
(538,457,c),
(567,467,ls),
(600,478,o),
(633,490,o),
(665,501,c),
(805,710,o),
(985,911,o),
(1079,911,cs),
(1114,911,o),
(1135,891,o),
(1135,847,cs),
(1135,687,o),
(935,570,o),
(685,474,c),
(609,351,o),
(552,226,o),
(552,156,cs),
(552,80,o),
(593,48,o),
(642,48,cs),
(747,48,o),
(819,149,o),
(819,207,cs),
(819,243,o),
(791,263,o),
(756,262,cs),
(732,261,o),
(702,243,o),
(669,197,c),
(661,204,l),
(682,239,o),
(718,315,o),
(786,315,cs),
(822,315,o),
(852,285,o),
(852,240,cs),
(852,120,o),
(703,-12,o),
(575,-12,cs),
(508,-12,o),
(470,26,o),
(472,94,cs),
(475,169,o),
(543,311,o),
(635,456,c),
(626,452,o),
(616,449,o),
(606,445,cs),
(514,413,l),
(396,197,o),
(253,-12,o),
(76,-12,cs),
(40,-12,o),
(0,8,o),
(0,69,cs),
(0,243,o),
(230,349,o),
(481,438,c),
(528,524,o),
(573,614,o),
(617,692,c),
(537,661,o),
(454,640,o),
(393,640,cs),
(359,640,o),
(338,656,o),
(338,690,cs),
(338,701,o),
(343,715,o),
(351,729,c),
(301,720,o),
(246,711,o),
(196,702,c),
(138,629,o),
(70,564,o),
(30,564,cs),
(-2,564,o),
(-22,580,o),
(-22,607,cs),
(-22,662,o),
(78,693,o),
(191,715,c),
(235,775,o),
(269,839,o),
(269,868,cs),
(269,899,o),
(251,919,o),
(220,919,cs),
(146,919,o),
(79,780,o),
(-33,780,cs),
(-56,780,o),
(-79,793,o),
(-79,823,cs),
(-79,895,o),
(94,893,o),
(94,953,cs),
(94,972,o),
(81,984,o),
(63,984,cs),
(26,984,o),
(-28,912,o),
(-72,912,cs),
(-86,912,o),
(-99,919,o),
(-99,935,cs),
(-99,964,o),
(-36,975,o),
(-27,1022,c),
(-17,1022,l),
(-19,981,o),
(-76,966,o),
(-76,945,cs),
(-76,935,o),
(-67,927,o),
(-55,927,cs),
(-19,927,o),
(33,1002,o),
(82,1002,cs),
(106,1002,o),
(125,989,o),
(125,961,cs),
(125,891,o),
(-49,896,o),
(-49,837,cs),
(-49,817,o),
(-31,807,o),
(-7,807,cs),
(102,807,o),
(163,960,o),
(250,960,cs),
(285,960,o),
(309,940,o),
(309,901,cs),
(309,869,o),
(264,791,o),
(209,719,c),
(261,729,o),
(314,737,o),
(361,747,c),
(392,789,o),
(448,833,o),
(499,833,cs),
(514,833,o),
(526,823,o),
(526,809,cs)
);
},
{
closed = 1;
nodes = (
(14,606,o),
(27,594,o),
(45,595,cs),
(82,595,o),
(133,643,o),
(178,698,c),
(87,680,o),
(14,659,o),
(14,621,cs)
);
},
{
closed = 1;
nodes = (
(78,107,o),
(98,76,o),
(133,76,cs),
(254,76,o),
(360,222,o),
(456,393,c),
(252,320,o),
(78,246,o),
(78,135,cs)
);
},
{
closed = 1;
nodes = (
(464,768,o),
(510,783,o),
(510,806,cs),
(510,814,o),
(505,819,o),
(495,819,cs),
(474,819,o),
(423,786,o),
(397,753,c)
);
},
{
closed = 1;
nodes = (
(775,806,o),
(832,845,o),
(832,873,cs),
(832,884,o),
(827,889,o),
(816,889,cs),
(783,889,o),
(744,842,o),
(702,770,c)
);
},
{
closed = 1;
nodes = (
(901,592,o),
(1055,678,o),
(1055,780,cs),
(1055,804,o),
(1038,819,o),
(1019,819,cs),
(948,819,o),
(819,678,o),
(715,520,c)
);
}
);
userData = {
com.schriftgestaltung.Glyphs.lastChange = "2025-09-23 10:46:54 +0000";
};
width = 897;
}
);
},
{
glyphname = I.ss01;
kernLeft = I;
kernRight = I;
layers = (
{
layerId = m01;
shapes = (
{
closed = 1;
nodes = (
(377,801,o),
(382,806,o),
(389,806,cs),
(400,806,o),
(421,793,o),
(421,768,cs),
(421,765,o),
(421,762,o),
(420,759,c),
(394,767,o),
(377,780,o),
(377,793,cs)
);
},
{
closed = 1;
nodes = (
(0,21,o),
(32,-12,o),
(87,-12,cs),
(310,-12,o),
(535,502,o),
(657,757,c),
(730,787,o),
(793,832,o),
(793,881,cs),
(793,896,o),
(782,912,o),
(757,912,cs),
(708,912,o),
(654,852,o),
(599,763,c),
(567,754,o),
(533,748,o),
(501,748,cs),
(481,748,o),
(463,750,o),
(446,752,c),
(446,793,o),
(423,818,o),
(396,818,cs),
(377,818,o),
(365,806,o),
(365,786,cs),
(365,761,o),
(384,742,o),
(415,732,c),
(392,662,o),
(319,560,o),
(248,560,cs),
(222,560,o),
(210,575,o),
(205,595,c),
(281,624,o),
(326,688,o),
(326,748,cs),
(326,774,o),
(311,784,o),
(292,784,cs),
(253,784,o),
(192,728,o),
(192,629,cs),
(192,620,o),
(192,611,o),
(194,603,c),
(181,600,o),
(166,598,o),
(151,598,cs),
(98,598,o),
(69,615,o),
(69,654,cs),
(69,711,o),
(179,760,o),
(179,816,cs),
(179,827,o),
(172,838,o),
(156,838,cs),
(135,838,o),
(110,808,o),
(96,808,cs),
(87,808,o),
(83,812,o),
(83,819,cs),
(83,832,o),
(115,844,o),
(115,868,cs),
(115,875,o),
(108,883,o),
(98,883,cs),
(82,883,o),
(62,870,o),
(36,854,c),
(42,847,l),
(58,857,o),
(75,868,o),
(84,868,cs),
(91,868,o),
(95,863,o),
(95,859,cs),
(95,837,o),
(58,827,o),
(58,804,cs),
(58,792,o),
(66,786,o),
(79,786,cs),
(101,786,o),
(126,824,o),
(145,824,cs),
(156,824,o),
(163,817,o),
(163,805,cs),
(163,755,o),
(36,701,o),
(36,629,cs),
(36,593,o),
(69,580,o),
(114,580,cs),
(144,580,o),
(171,584,o),
(196,593,c),
(204,559,o),
(227,537,o),
(266,537,cs),
(355,537,o),
(427,647,o),
(443,724,c),
(459,721,o),
(477,719,o),
(496,719,cs),
(520,719,o),
(549,724,o),
(580,731,c),
(424,468,o),
(282,42,o),
(77,42,cs),
(43,42,o),
(22,63,o),
(22,105,cs),
(22,179,o),
(100,235,o),
(148,235,cs),
(171,235,o),
(187,221,o),
(187,203,cs),
(187,168,o),
(150,138,o),
(125,116,c),
(131,106,l),
(189,149,o),
(224,187,o),
(224,233,cs),
(224,261,o),
(202,280,o),
(171,280,cs),
(91,280,o),
(0,174,o),
(0,76,cs)
);
},
{
closed = 1;
nodes = (
(200,689,o),
(230,756,o),
(270,756,cs),
(287,756,o),
(297,742,o),
(297,719,cs),
(297,686,o),
(263,629,o),
(202,606,c),
(201,618,o),
(200,630,o),
(200,642,cs)
);
},
{
closed = 1;
nodes = (
(707,855,o),
(737,896,o),
(762,896,cs),
(774,896,o),
(778,890,o),
(778,881,cs),
(778,855,o),
(734,819,o),
(674,791,c)
);
}
);
userData = {
com.schriftgestaltung.Glyphs.lastChange = "2025-09-23 10:46:54 +0000";
};
width = 411;
}
);
},
{
glyphname = Iacute.ss01;
kernLeft = I;
kernRight = I;
layers = (
{
layerId = m01;
shapes = (
{
closed = 1;
nodes = (
(377,801,o),
(382,806,o),
(389,806,cs),
(400,806,o),
(421,793,o),
(421,768,cs),
(421,765,o),
(421,762,o),
(420,759,c),
(394,767,o),
(377,780,o),
(377,793,cs)
);
},
{
closed = 1;
nodes = (
(0,21,o),
(32,-12,o),
(87,-12,cs),
(310,-12,o),
(535,502,o),
(657,757,c),
(730,787,o),
(793,832,o),
(793,881,cs),
(793,896,o),
(782,912,o),
(757,912,cs),
(708,912,o),
(654,852,o),
(599,763,c),
(567,754,o),
(533,748,o),
(501,748,cs),
(481,748,o),
(463,750,o),
(446,752,c),
(446,793,o),
(423,818,o),
(396,818,cs),
(377,818,o),
(365,806,o),
(365,786,cs),
(365,761,o),
(384,742,o),
(415,732,c),
(392,662,o),
(319,560,o),
(248,560,cs),
(222,560,o),
(210,575,o),
(205,595,c),
(281,624,o),
(326,688,o),
(326,748,cs),
(326,774,o),
(311,784,o),
(292,784,cs),
(253,784,o),
(192,728,o),
(192,629,cs),
(192,620,o),
(192,611,o),
(194,603,c),
(181,600,o),
(166,598,o),
(151,598,cs),
(98,598,o),
(69,615,o),
(69,654,cs),
(69,711,o),
(179,760,o),
(179,816,cs),
(179,827,o),
(172,838,o),
(156,838,cs),
(135,838,o),
(110,808,o),
(96,808,cs),
(87,808,o),
(83,812,o),
(83,819,cs),
(83,832,o),
(115,844,o),
(115,868,cs),
(115,875,o),
(108,883,o),
(98,883,cs),
(82,883,o),
(62,870,o),
(36,854,c),
(42,847,l),
(58,857,o),
(75,868,o),
(84,868,cs),
(91,868,o),
(95,863,o),
(95,859,cs),
(95,837,o),
(58,827,o),
(58,804,cs),
(58,792,o),
(66,786,o),
(79,786,cs),
(101,786,o),
(126,824,o),
(145,824,cs),
(156,824,o),
(163,817,o),
(163,805,cs),
(163,755,o),
(36,701,o),
(36,629,cs),
(36,593,o),
(69,580,o),
(114,580,cs),
(144,580,o),
(171,584,o),
(196,593,c),
(204,559,o),
(227,537,o),
(266,537,cs),
(355,537,o),
(427,647,o),
(443,724,c),
(459,721,o),
(477,719,o),
(496,719,cs),
(520,719,o),
(549,724,o),
(580,731,c),
(424,468,o),
(282,42,o),
(77,42,cs),
(43,42,o),
(22,63,o),
(22,105,cs),
(22,179,o),
(100,235,o),
(148,235,cs),
(171,235,o),
(187,221,o),
(187,203,cs),
(187,168,o),
(150,138,o),
(125,116,c),
(131,106,l),
(189,149,o),
(224,187,o),
(224,233,cs),
(224,261,o),
(202,280,o),
(171,280,cs),
(91,280,o),
(0,174,o),
(0,76,cs)
);
},
{
closed = 1;
nodes = (
(200,689,o),
(230,756,o),
(270,756,cs),
(287,756,o),
(297,742,o),
(297,719,cs),
(297,686,o),
(263,629,o),
(202,606,c),
(201,618,o),
(200,630,o),
(200,642,cs)
);
},
{
closed = 1;
nodes = (
(707,855,o),
(737,896,o),
(762,896,cs),
(774,896,o),
(778,890,o),
(778,881,cs),
(778,855,o),
(734,819,o),
(674,791,c)
);
},
{
pos = (402,469);
ref = acutecomb;
}
);
userData = {
com.schriftgestaltung.Glyphs.lastChange = "2025-09-27 09:12:38 +0000";
};
width = 411;
}
);
},
{
glyphname = Icircumflex.ss01;
kernLeft = I;
kernRight = I;
layers = (
{
layerId = m01;
shapes = (
{
pos = (362,435);
ref = circumflexcomb;
},
{
closed = 1;
nodes = (
(377,801,o),
(382,806,o),
(389,806,cs),
(400,806,o),
(421,793,o),
(421,768,cs),
(421,765,o),
(421,762,o),
(420,759,c),
(394,767,o),
(377,780,o),
(377,793,cs)
);
},
{
closed = 1;
nodes = (
(0,21,o),
(32,-12,o),
(87,-12,cs),
(310,-12,o),
(535,502,o),
(657,757,c),
(730,787,o),
(793,832,o),
(793,881,cs),
(793,896,o),
(782,912,o),
(757,912,cs),
(708,912,o),
(654,852,o),
(599,763,c),
(567,754,o),
(533,748,o),
(501,748,cs),
(481,748,o),
(463,750,o),
(446,752,c),
(446,793,o),
(423,818,o),
(396,818,cs),
(377,818,o),
(365,806,o),
(365,786,cs),
(365,761,o),
(384,742,o),
(415,732,c),
(392,662,o),
(319,560,o),
(248,560,cs),
(222,560,o),
(210,575,o),
(205,595,c),
(281,624,o),
(326,688,o),
(326,748,cs),
(326,774,o),
(311,784,o),
(292,784,cs),
(253,784,o),
(192,728,o),
(192,629,cs),
(192,620,o),
(192,611,o),
(194,603,c),
(181,600,o),
(166,598,o),
(151,598,cs),
(98,598,o),
(69,615,o),
(69,654,cs),
(69,711,o),
(179,760,o),
(179,816,cs),
(179,827,o),
(172,838,o),
(156,838,cs),
(135,838,o),
(110,808,o),
(96,808,cs),
(87,808,o),
(83,812,o),
(83,819,cs),
(83,832,o),
(115,844,o),
(115,868,cs),
(115,875,o),
(108,883,o),
(98,883,cs),
(82,883,o),
(62,870,o),
(36,854,c),
(42,847,l),
(58,857,o),
(75,868,o),
(84,868,cs),
(91,868,o),
(95,863,o),
(95,859,cs),
(95,837,o),
(58,827,o),
(58,804,cs),
(58,792,o),
(66,786,o),
(79,786,cs),
(101,786,o),
(126,824,o),
(145,824,cs),
(156,824,o),
(163,817,o),
(163,805,cs),
(163,755,o),
(36,701,o),
(36,629,cs),
(36,593,o),
(69,580,o),
(114,580,cs),
(144,580,o),
(171,584,o),
(196,593,c),
(204,559,o),
(227,537,o),
(266,537,cs),
(355,537,o),
(427,647,o),
(443,724,c),
(459,721,o),
(477,719,o),
(496,719,cs),
(520,719,o),
(549,724,o),
(580,731,c),
(424,468,o),
(282,42,o),
(77,42,cs),
(43,42,o),
(22,63,o),
(22,105,cs),
(22,179,o),
(100,235,o),
(148,235,cs),
(171,235,o),
(187,221,o),
(187,203,cs),
(187,168,o),
(150,138,o),
(125,116,c),
(131,106,l),
(189,149,o),
(224,187,o),
(224,233,cs),
(224,261,o),
(202,280,o),
(171,280,cs),
(91,280,o),
(0,174,o),
(0,76,cs)
);
},
{
closed = 1;
nodes = (
(200,689,o),
(230,756,o),
(270,756,cs),
(287,756,o),
(297,742,o),
(297,719,cs),
(297,686,o),
(263,629,o),
(202,606,c),
(201,618,o),
(200,630,o),
(200,642,cs)
);
},
{
closed = 1;
nodes = (
(707,855,o),
(737,896,o),
(762,896,cs),
(774,896,o),
(778,890,o),
(778,881,cs),
(778,855,o),
(734,819,o),
(674,791,c)
);
}
);
userData = {
com.schriftgestaltung.Glyphs.lastChange = "2025-09-23 10:46:54 +0000";
};
width = 411;
}
);
},
{
glyphname = Idieresis.ss01;
kernLeft = I;
kernRight = I;
layers = (
{
layerId = m01;
shapes = (
{
pos = (399,463);
ref = dieresiscomb;
},
{
closed = 1;
nodes = (
(377,801,o),
(382,806,o),
(389,806,cs),
(400,806,o),
(421,793,o),
(421,768,cs),
(421,765,o),
(421,762,o),
(420,759,c),
(394,767,o),
(377,780,o),
(377,793,cs)
);
},
{
closed = 1;
nodes = (
(0,21,o),
(32,-12,o),
(87,-12,cs),
(310,-12,o),
(535,502,o),
(657,757,c),
(730,787,o),
(793,832,o),
(793,881,cs),
(793,896,o),
(782,912,o),
(757,912,cs),
(708,912,o),
(654,852,o),
(599,763,c),
(567,754,o),
(533,748,o),
(501,748,cs),
(481,748,o),
(463,750,o),
(446,752,c),
(446,793,o),
(423,818,o),
(396,818,cs),
(377,818,o),
(365,806,o),
(365,786,cs),
(365,761,o),
(384,742,o),
(415,732,c),
(392,662,o),
(319,560,o),
(248,560,cs),
(222,560,o),
(210,575,o),
(205,595,c),
(281,624,o),
(326,688,o),
(326,748,cs),
(326,774,o),
(311,784,o),
(292,784,cs),
(253,784,o),
(192,728,o),
(192,629,cs),
(192,620,o),
(192,611,o),
(194,603,c),
(181,600,o),
(166,598,o),
(151,598,cs),
(98,598,o),
(69,615,o),
(69,654,cs),
(69,711,o),
(179,760,o),
(179,816,cs),
(179,827,o),
(172,838,o),
(156,838,cs),
(135,838,o),
(110,808,o),
(96,808,cs),
(87,808,o),
(83,812,o),
(83,819,cs),
(83,832,o),
(115,844,o),
(115,868,cs),
(115,875,o),
(108,883,o),
(98,883,cs),
(82,883,o),
(62,870,o),
(36,854,c),
(42,847,l),
(58,857,o),
(75,868,o),
(84,868,cs),
(91,868,o),
(95,863,o),
(95,859,cs),
(95,837,o),
(58,827,o),
(58,804,cs),
(58,792,o),
(66,786,o),
(79,786,cs),
(101,786,o),
(126,824,o),
(145,824,cs),
(156,824,o),
(163,817,o),
(163,805,cs),
(163,755,o),
(36,701,o),
(36,629,cs),
(36,593,o),
(69,580,o),
(114,580,cs),
(144,580,o),
(171,584,o),
(196,593,c),
(204,559,o),
(227,537,o),
(266,537,cs),
(355,537,o),
(427,647,o),
(443,724,c),
(459,721,o),
(477,719,o),
(496,719,cs),
(520,719,o),
(549,724,o),
(580,731,c),
(424,468,o),
(282,42,o),
(77,42,cs),
(43,42,o),
(22,63,o),
(22,105,cs),
(22,179,o),
(100,235,o),
(148,235,cs),
(171,235,o),
(187,221,o),
(187,203,cs),
(187,168,o),
(150,138,o),
(125,116,c),
(131,106,l),
(189,149,o),
(224,187,o),
(224,233,cs),
(224,261,o),
(202,280,o),
(171,280,cs),
(91,280,o),
(0,174,o),
(0,76,cs)
);
},
{
closed = 1;
nodes = (
(200,689,o),
(230,756,o),
(270,756,cs),
(287,756,o),
(297,742,o),
(297,719,cs),
(297,686,o),
(263,629,o),
(202,606,c),
(201,618,o),
(200,630,o),
(200,642,cs)
);
},
{
closed = 1;
nodes = (
(707,855,o),
(737,896,o),
(762,896,cs),
(774,896,o),
(778,890,o),
(778,881,cs),
(778,855,o),
(734,819,o),
(674,791,c)
);
}
);
userData = {
com.schriftgestaltung.Glyphs.lastChange = "2025-09-23 10:46:54 +0000";
};
width = 411;
}
);
},
{
glyphname = Igrave.ss01;
kernLeft = I;
kernRight = I;
layers = (
{
layerId = m01;
shapes = (
{
closed = 1;
nodes = (
(377,801,o),
(382,806,o),
(389,806,cs),
(400,806,o),
(421,793,o),
(421,768,cs),
(421,765,o),
(421,762,o),
(420,759,c),
(394,767,o),
(377,780,o),
(377,793,cs)
);
},
{
closed = 1;
nodes = (
(0,21,o),
(32,-12,o),
(87,-12,cs),
(310,-12,o),
(535,502,o),
(657,757,c),
(730,787,o),
(793,832,o),
(793,881,cs),
(793,896,o),
(782,912,o),
(757,912,cs),
(708,912,o),
(654,852,o),
(599,763,c),
(567,754,o),
(533,748,o),
(501,748,cs),
(481,748,o),
(463,750,o),
(446,752,c),
(446,793,o),
(423,818,o),
(396,818,cs),
(377,818,o),
(365,806,o),
(365,786,cs),
(365,761,o),
(384,742,o),
(415,732,c),
(392,662,o),
(319,560,o),
(248,560,cs),
(222,560,o),
(210,575,o),
(205,595,c),
(281,624,o),
(326,688,o),
(326,748,cs),
(326,774,o),
(311,784,o),
(292,784,cs),
(253,784,o),
(192,728,o),
(192,629,cs),
(192,620,o),
(192,611,o),
(194,603,c),
(181,600,o),
(166,598,o),
(151,598,cs),
(98,598,o),
(69,615,o),
(69,654,cs),
(69,711,o),
(179,760,o),
(179,816,cs),
(179,827,o),
(172,838,o),
(156,838,cs),
(135,838,o),
(110,808,o),
(96,808,cs),
(87,808,o),
(83,812,o),
(83,819,cs),
(83,832,o),
(115,844,o),
(115,868,cs),
(115,875,o),
(108,883,o),
(98,883,cs),
(82,883,o),
(62,870,o),
(36,854,c),
(42,847,l),
(58,857,o),
(75,868,o),
(84,868,cs),
(91,868,o),
(95,863,o),
(95,859,cs),
(95,837,o),
(58,827,o),
(58,804,cs),
(58,792,o),
(66,786,o),
(79,786,cs),
(101,786,o),
(126,824,o),
(145,824,cs),
(156,824,o),
(163,817,o),
(163,805,cs),
(163,755,o),
(36,701,o),
(36,629,cs),
(36,593,o),
(69,580,o),
(114,580,cs),
(144,580,o),
(171,584,o),
(196,593,c),
(204,559,o),
(227,537,o),
(266,537,cs),
(355,537,o),
(427,647,o),
(443,724,c),
(459,721,o),
(477,719,o),
(496,719,cs),
(520,719,o),
(549,724,o),
(580,731,c),
(424,468,o),
(282,42,o),
(77,42,cs),
(43,42,o),
(22,63,o),
(22,105,cs),
(22,179,o),
(100,235,o),
(148,235,cs),
(171,235,o),
(187,221,o),
(187,203,cs),
(187,168,o),
(150,138,o),
(125,116,c),
(131,106,l),
(189,149,o),
(224,187,o),
(224,233,cs),
(224,261,o),
(202,280,o),
(171,280,cs),
(91,280,o),
(0,174,o),
(0,76,cs)
);
},
{
closed = 1;
nodes = (
(200,689,o),
(230,756,o),
(270,756,cs),
(287,756,o),
(297,742,o),
(297,719,cs),
(297,686,o),
(263,629,o),
(202,606,c),
(201,618,o),
(200,630,o),
(200,642,cs)
);
},
{
closed = 1;
nodes = (
(707,855,o),
(737,896,o),
(762,896,cs),
(774,896,o),
(778,890,o),
(778,881,cs),
(778,855,o),
(734,819,o),
(674,791,c)
);
},
{
closed = 1;
nodes = (
(488,1029,o),
(701,952,o),
(692,1011,cs),
(691,1022,o),
(681,1037,o),
(668,1034,cs),
(647,1030,o),
(619,1021,o),
(563,1039,cs),
(494,1063,o),
(484,1102,o),
(480,1101,cs),
(477,1101,o),
(477,1098,o),
(478,1094,cs)
);
}
);
userData = {
com.schriftgestaltung.Glyphs.lastChange = "2025-09-27 09:14:21 +0000";
};
width = 411;
}
);
},
{
glyphname = J.ss01;
kernLeft = J;
kernRight = J;
layers = (
{
layerId = m01;
shapes = (
{
closed = 1;
nodes = (
(432,550,o),
(514,652,o),
(536,731,c),
(568,723,o),
(612,719,o),
(670,719,cs),
(692,719,o),
(715,721,o),
(738,725,c),
(646,572,o),
(541,351,o),
(426,153,c),
(390,163,o),
(352,171,o),
(309,171,cs),
(288,171,o),
(268,168,o),
(247,164,c),
(230,186,o),
(204,197,o),
(176,197,cs),
(2,197,o),
(-180,-50,o),
(-180,-214,cs),
(-180,-298,o),
(-141,-372,o),
(-49,-372,cs),
(139,-372,o),
(314,-152,o),
(466,105,c),
(486,102,o),
(506,100,o),
(527,100,cs),
(595,100,o),
(676,141,o),
(696,203,c),
(711,204,o),
(730,215,o),
(744,230,c),
(740,237,l),
(731,227,o),
(714,217,o),
(700,215,c),
(700,221,o),
(701,227,o),
(701,233,cs),
(701,274,o),
(676,292,o),
(656,292,cs),
(637,292,o),
(621,279,o),
(621,257,cs),
(621,235,o),
(640,207,o),
(679,203,c),
(665,150,o),
(606,127,o),
(563,127,cs),
(537,127,o),
(511,131,o),
(486,138,c),
(610,353,o),
(718,588,o),
(801,739,c),
(887,765,o),
(962,814,o),
(962,874,cs),
(962,891,o),
(950,911,o),
(921,911,cs),
(876,911,o),
(825,858,o),
(769,774,c),
(731,767,o),
(689,762,o),
(646,762,cs),
(610,762,o),
(572,765,o),
(541,770,c),
(539,808,o),
(516,831,o),
(491,831,cs),
(472,831,o),
(459,819,o),
(459,798,cs),
(459,772,o),
(473,752,o),
(509,738,c),
(487,659,o),
(408,573,o),
(334,573,cs),
(311,573,o),
(299,588,o),
(293,608,c),
(370,637,o),
(415,701,o),
(415,761,cs),
(415,787,o),
(400,797,o),
(381,797,cs),
(342,797,o),
(280,741,o),
(280,642,cs),
(280,633,o),
(281,624,o),
(283,616,c),
(270,613,o),
(255,611,o),
(240,611,cs),
(187,611,o),
(158,628,o),
(158,667,cs),
(158,724,o),
(268,773,o),
(268,829,cs),
(268,840,o),
(261,851,o),
(244,851,cs),
(224,851,o),
(199,821,o),
(185,821,cs),
(176,821,o),
(172,825,o),
(172,832,cs),
(172,845,o),
(204,857,o),
(204,881,cs),
(204,888,o),
(197,896,o),
(187,896,cs),
(171,896,o),
(151,883,o),
(125,867,c),
(131,860,l),
(147,870,o),
(164,881,o),
(173,881,cs),
(180,881,o),
(184,876,o),
(184,872,cs),
(184,850,o),
(147,840,o),
(147,816,cs),
(147,805,o),
(155,798,o),
(168,798,cs),
(190,798,o),
(215,837,o),
(234,837,cs),
(245,837,o),
(252,830,o),
(252,818,cs),
(252,768,o),
(125,714,o),
(125,642,cs),
(125,606,o),
(158,593,o),
(203,593,cs),
(233,593,o),
(260,597,o),
(285,606,c),
(293,572,o),
(316,550,o),
(355,550,cs)
);
},
{
closed = 1;
nodes = (
(-136,-12,o),
(22,153,o),
(162,155,cs),
(175,155,o),
(186,153,o),
(196,149,c),
(115,119,o),
(48,59,o),
(48,-15,cs),
(48,-56,o),
(75,-86,o),
(112,-86,cs),
(190,-86,o),
(270,7,o),
(270,91,cs),
(270,107,o),
(268,121,o),
(264,133,c),
(271,134,o),
(279,134,o),
(286,134,cs),
(329,134,o),
(366,125,o),
(405,117,c),
(271,-106,o),
(124,-289,o),
(-33,-289,cs),
(-99,-289,o),
(-136,-238,o),
(-136,-164,cs)
);
},
{
closed = 1;
nodes = (
(69,63,o),
(136,112,o),
(224,128,c),
(235,113,o),
(241,91,o),
(241,66,cs),
(241,-5,o),
(183,-53,o),
(129,-53,cs),
(87,-53,o),
(69,-24,o),
(69,2,cs)
);
},
{
closed = 1;
nodes = (
(289,702,o),
(319,769,o),
(359,769,cs),
(376,769,o),
(386,755,o),
(386,732,cs),
(386,699,o),
(352,642,o),
(291,619,c),
(290,631,o),
(289,643,o),
(289,654,cs)
);
},
{
closed = 1;
nodes = (
(472,814,o),
(476,819,o),
(484,819,cs),
(494,819,o),
(516,806,o),
(516,780,cs),
(516,776,l),
(489,783,o),
(472,793,o),
(472,806,cs)
);
},
{
closed = 1;
nodes = (
(633,269,o),
(640,278,o),
(650,278,cs),
(670,278,o),
(682,256,o),
(682,228,cs),
(682,223,o),
(682,220,o),
(682,215,c),
(648,220,o),
(633,239,o),
(633,261,cs)
);
},
{
closed = 1;
nodes = (
(869,856,o),
(903,896,o),
(928,896,cs),
(938,896,o),
(946,890,o),
(946,881,cs),
(946,845,o),
(898,811,o),
(830,789,c)
);
}
);
userData = {
com.schriftgestaltung.Glyphs.lastChange = "2025-09-28 10:47:35 +0000";
};
width = 761;
}
);
metricLeft = "=J";
metricRight = "=J";
},
{
glyphname = K.ss01;
kernLeft = K;
kernRight = K;
layers = (
{
layerId = m01;
shapes = (
{
closed = 1;
nodes = (
(1043,788,o),
(1020,746,o),
(1020,727,cs),
(1020,701,o),
(1035,692,o),
(1066,692,cs),
(1114,692,o),
(1221,758,o),
(1221,852,cs),
(1221,883,o),
(1206,912,o),
(1170,912,cs),
(1031,912,o),
(837,608,o),
(644,505,c),
(633,542,o),
(616,560,o),
(594,567,c),
(622,620,o),
(649,671,o),
(674,716,c),
(776,764,o),
(860,825,o),
(860,874,cs),
(860,891,o),
(847,911,o),
(819,911,cs),
(763,911,o),
(706,842,o),
(644,745,c),
(563,711,o),
(476,687,o),
(426,687,cs),
(400,687,o),
(376,702,o),
(376,719,cs),
(376,725,o),
(377,731,o),
(379,737,c),
(463,754,o),
(529,775,o),
(529,811,cs),
(529,825,o),
(516,833,o),
(501,833,cs),
(450,833,o),
(395,791,o),
(364,749,c),
(318,740,o),
(266,732,o),
(217,723,c),
(272,795,o),
(317,873,o),
(317,904,cs),
(317,943,o),
(293,963,o),
(258,963,cs),
(171,963,o),
(110,811,o),
(1,811,cs),
(-23,811,o),
(-41,821,o),
(-41,840,cs),
(-41,900,o),
(133,894,o),
(133,965,cs),
(133,993,o),
(114,1006,o),
(90,1006,cs),
(41,1006,o),
(-11,931,o),
(-48,931,cs),
(-59,931,o),
(-68,938,o),
(-68,949,cs),
(-68,970,o),
(-12,984,o),
(-9,1026,c),
(-19,1026,l),
(-28,978,o),
(-91,968,o),
(-91,939,cs),
(-91,922,o),
(-78,915,o),
(-64,915,cs),
(-20,915,o),
(34,988,o),
(71,988,cs),
(89,988,o),
(102,976,o),
(102,956,cs),
(102,896,o),
(-71,899,o),
(-71,827,cs),
(-71,796,o),
(-48,783,o),
(-25,783,cs),
(87,783,o),
(154,923,o),
(228,923,cs),
(258,923,o),
(276,903,o),
(276,871,cs),
(276,842,o),
(243,778,o),
(199,719,c),
(86,696,o),
(-14,666,o),
(-14,611,cs),
(-14,583,o),
(6,568,o),
(37,568,cs),
(78,568,o),
(145,632,o),
(204,706,c),
(252,714,o),
(304,722,o),
(352,732,c),
(343,716,o),
(338,702,o),
(338,690,cs),
(338,656,o),
(359,640,o),
(393,640,cs),
(453,640,o),
(534,660,o),
(611,690,c),
(588,652,o),
(566,611,o),
(543,568,c),
(485,559,o),
(440,521,o),
(440,477,cs),
(440,459,o),
(447,438,o),
(464,424,c),
(354,230,o),
(236,52,o),
(107,52,cs),
(62,52,o),
(37,75,o),
(37,117,cs),
(37,231,o),
(143,300,o),
(205,300,cs),
(230,300,o),
(238,284,o),
(238,266,cs),
(238,243,o),
(210,198,o),
(147,154,c),
(152,146,l),
(233,204,o),
(277,252,o),
(277,298,cs),
(277,333,o),
(254,356,o),
(223,356,cs),
(132,356,o),
(0,184,o),
(0,69,cs),
(0,8,o),
(40,-12,o),
(76,-12,cs),
(244,-12,o),
(388,194,o),
(509,409,c),
(510,409,ls),
(539,409,o),
(568,415,o),
(595,424,c),
(598,392,o),
(598,351,o),
(598,303,cs),
(598,92,o),
(654,-12,o),
(777,-12,cs),
(943,-12,o),
(1045,135,o),
(1045,217,cs),
(1045,267,o),
(1020,312,o),
(966,312,cs),
(899,312,o),
(842,251,o),
(784,159,c),
(792,152,l),
(858,243,o),
(898,261,o),
(930,261,cs),
(963,261,o),
(996,234,o),
(996,190,cs),
(996,108,o),
(935,31,o),
(848,32,cs),
(722,32,o),
(658,105,o),
(658,363,cs),
(658,397,o),
(657,427,o),
(654,452,c),
(849,565,o),
(1000,866,o),
(1128,866,cs),
(1160,866,o),
(1177,837,o),
(1177,806,cs),
(1177,763,o),
(1139,730,o),
(1102,730,cs),
(1079,730,o),
(1066,742,o),
(1066,759,cs),
(1066,777,o),
(1076,801,o),
(1121,833,c),
(1112,840,l)
);
},
{
closed = 1;
nodes = (
(22,663,o),
(95,684,o),
(185,702,c),
(141,647,o),
(90,599,o),
(53,598,cs),
(35,598,o),
(22,610,o),
(22,625,cs)
);
},
{
closed = 1;
nodes = (
(410,790,o),
(462,822,o),
(499,822,cs),
(511,822,o),
(518,817,o),
(518,809,cs),
(518,784,o),
(462,768,o),
(387,753,c)
);
},
{
closed = 1;
nodes = (
(476,529,o),
(499,550,o),
(528,550,cs),
(529,550,o),
(531,550,o),
(533,550,c),
(495,480,l),
(484,487,o),
(476,497,o),
(476,508,cs)
);
},
{
closed = 1;
nodes = (
(574,528,l),
(581,518,o),
(586,503,o),
(590,482,c),
(575,478,o),
(559,474,o),
(544,473,c)
);
},
{
closed = 1;
nodes = (
(752,847,o),
(791,894,o),
(825,894,cs),
(835,894,o),
(841,889,o),
(841,878,cs),
(841,850,o),
(782,809,o),
(707,773,c)
);
}
);
userData = {
com.schriftgestaltung.Glyphs.lastChange = "2025-09-23 10:46:54 +0000";
};
width = 1084;
}
);
},
{
glyphname = L.ss01;
kernLeft = L;
kernRight = L;
layers = (
{
layerId = m01;
shapes = (
{
closed = 1;
nodes = (
(641,590,o),
(629,591,o),
(617,593,c),
(541,475,o),
(466,338,o),
(384,223,c),
(495,153,o),
(567,20,o),
(744,20,cs),
(855,20,o),
(968,86,o),
(968,199,cs),
(968,258,o),
(932,288,o),
(886,288,cs),
(847,288,o),
(808,265,o),
(750,163,c),
(740,167,l),
(786,256,o),
(824,337,o),
(916,337,cs),
(960,337,o),
(1020,301,o),
(1020,228,cs),
(1020,85,o),
(830,-12,o),
(687,-12,cs),
(501,-12,o),
(428,97,o),
(339,162,c),
(258,60,o),
(171,-12,o),
(75,-12,cs),
(40,-12,o),
(0,8,o),
(0,69,cs),
(0,169,o),
(117,266,o),
(243,266,cs),
(287,266,o),
(323,256,o),
(355,240,c),
(433,345,o),
(510,478,o),
(588,598,c),
(477,626,o),
(453,720,o),
(358,720,cs),
(323,720,o),
(297,699,o),
(297,669,cs),
(298,611,o),
(364,617,o),
(364,576,cs),
(364,561,o),
(349,546,o),
(315,546,cs),
(233,546,o),
(192,603,o),
(120,603,cs),
(99,603,o),
(81,588,o),
(81,571,cs),
(81,521,o),
(162,543,o),
(162,492,cs),
(162,455,o),
(118,419,o),
(44,419,cs),
(-26,419,o),
(-104,449,o),
(-105,533,cs),
(-107,661,o),
(32,727,o),
(131,727,cs),
(136,727,o),
(141,727,o),
(145,726,c),
(164,738,o),
(186,745,o),
(186,772,cs),
(186,786,o),
(175,798,o),
(158,798,cs),
(125,798,o),
(96,757,o),
(56,757,cs),
(35,757,o),
(19,768,o),
(19,788,cs),
(19,825,o),
(50,827,o),
(50,865,cs),
(50,900,o),
(-6,892,o),
(-6,943,c),
(1,943,l),
(1,892,o),
(72,918,o),
(72,871,cs),
(72,844,o),
(46,840,o),
(46,814,cs),
(46,795,o),
(63,783,o),
(86,783,cs),
(125,783,o),
(140,819,o),
(174,819,cs),
(199,819,o),
(212,805,o),
(212,783,cs),
(212,747,o),
(181,737,o),
(156,724,c),
(176,719,o),
(186,706,o),
(186,690,cs),
(186,670,o),
(173,653,o),
(150,653,cs),
(132,653,o),
(120,668,o),
(120,685,cs),
(119,701,o),
(125,711,o),
(134,718,c),
(125,719,ls),
(34,719,o),
(-65,664,o),
(-65,559,cs),
(-65,491,o),
(-27,451,o),
(63,451,cs),
(94,451,o),
(150,456,o),
(150,494,cs),
(150,538,o),
(48,512,o),
(48,570,cs),
(48,598,o),
(70,616,o),
(112,616,cs),
(181,616,o),
(211,565,o),
(296,565,cs),
(318,565,o),
(333,572,o),
(333,587,cs),
(333,625,o),
(264,616,o),
(264,673,cs),
(264,705,o),
(289,733,o),
(338,733,cs),
(452,733,o),
(475,641,o),
(602,620,c),
(707,780,o),
(813,912,o),
(922,912,cs),
(999,912,o),
(1051,867,o),
(1051,781,cs),
(1051,664,o),
(935,568,o),
(844,568,cs),
(814,568,o),
(787,585,o),
(780,613,c),
(731,599,o),
(682,590,o),
(654,590,cs)
);
},
{
closed = 1;
nodes = (
(33,79,o),
(56,53,o),
(107,53,cs),
(176,53,o),
(243,104,o),
(309,182,c),
(279,199,o),
(247,210,o),
(208,210,cs),
(107,210,o),
(32,166,o),
(32,112,cs)
);
},
{
closed = 1;
nodes = (
(127,681,o),
(135,674,o),
(147,674,cs),
(157,674,o),
(165,683,o),
(165,695,cs),
(165,705,o),
(158,714,o),
(143,717,c),
(134,711,o),
(127,704,o),
(127,693,cs)
);
},
{
closed = 1;
nodes = (
(640,616,o),
(648,616,o),
(656,616,cs),
(699,616,o),
(742,621,o),
(779,629,c),
(780,687,o),
(826,756,o),
(899,756,cs),
(926,756,o),
(940,743,o),
(940,721,cs),
(940,680,o),
(876,645,o),
(807,621,c),
(818,602,o),
(838,592,o),
(865,592,cs),
(925,592,o),
(985,665,o),
(985,765,cs),
(985,820,o),
(955,854,o),
(906,854,cs),
(810,854,o),
(721,751,o),
(632,616,c)
);
},
{
closed = 1;
nodes = (
(800,647,o),
(801,640,o),
(802,634,c),
(869,652,o),
(916,680,o),
(916,710,cs),
(916,725,o),
(907,739,o),
(886,739,cs),
(847,739,o),
(800,704,o),
(800,654,cs)
);
}
);
userData = {
com.schriftgestaltung.Glyphs.lastChange = "2025-09-23 10:46:54 +0000";
};
width = 1051;
}
);
},
{
glyphname = M.ss01;
kernLeft = M;
kernRight = M;
layers = (
{
layerId = m01;
shapes = (
{
closed = 1;
nodes = (
(174,-287,o),
(194,-255,o),
(233,-255,cs),
(267,-255,o),
(281,-282,o),
(281,-309,cs),
(281,-348,o),
(253,-382,o),
(200,-407,c),
(183,-384,o),
(174,-357,o),
(174,-328,cs)
);
},
{
closed = 1;
nodes = (
(787,775,o),
(845,899,o),
(873,899,cs),
(878,899,o),
(881,896,o),
(881,887,cs),
(881,856,o),
(819,752,o),
(728,628,c)
);
},
{
closed = 1;
nodes = (
(1004,786,o),
(1068,899,o),
(1087,899,cs),
(1091,899,o),
(1093,896,o),
(1093,892,cs),
(1093,878,o),
(1053,797,o),
(938,643,c)
);
},
{
closed = 1;
nodes = (
(1128,-436,o),
(1163,-384,o),
(1224,-341,c),
(1264,-334,o),
(1307,-330,o),
(1351,-330,cs),
(1392,-330,o),
(1426,-333,o),
(1453,-337,c),
(1426,-355,o),
(1410,-379,o),
(1410,-412,cs),
(1410,-448,o),
(1443,-479,o),
(1492,-479,cs),
(1540,-479,o),
(1575,-449,o),
(1575,-409,cs),
(1575,-380,o),
(1563,-354,o),
(1517,-336,c),
(1542,-329,o),
(1574,-326,o),
(1614,-326,cs),
(1726,-327,o),
(1812,-357,o),
(1907,-384,c),
(1899,-403,o),
(1895,-424,o),
(1895,-445,cs),
(1895,-456,o),
(1896,-467,o),
(1899,-476,c),
(1752,-553,o),
(1535,-624,o),
(1356,-624,cs),
(1210,-624,o),
(1128,-585,o),
(1128,-490,cs)
);
},
{
closed = 1;
nodes = (
(1410,-234,o),
(1631,-184,o),
(1870,-184,cs),
(2187,-184,o),
(2390,-233,o),
(2390,-318,cs),
(2390,-387,o),
(2313,-413,o),
(2173,-413,cs),
(2123,-413,o),
(2080,-408,o),
(2041,-402,c),
(2073,-372,o),
(2092,-343,o),
(2092,-317,cs),
(2092,-289,o),
(2072,-273,o),
(2039,-273,cs),
(1990,-273,o),
(1939,-314,o),
(1912,-369,c),
(1817,-338,o),
(1734,-303,o),
(1611,-304,cs),
(1557,-304,o),
(1511,-311,o),
(1477,-325,c),
(1434,-315,o),
(1374,-310,o),
(1288,-310,cs),
(1273,-310,l)
);
},
{
closed = 1;
nodes = (
(1454,-379,o),
(1467,-359,o),
(1493,-346,c),
(1539,-360,o),
(1554,-383,o),
(1554,-406,cs),
(1554,-433,o),
(1530,-456,o),
(1503,-456,cs),
(1474,-456,o),
(1454,-436,o),
(1454,-406,cs)
);
},
{
closed = 1;
nodes = (
(1934,-421,o),
(1936,-407,o),
(1940,-393,c),
(1962,-399,o),
(1985,-404,o),
(2009,-408,c),
(1989,-424,o),
(1963,-441,o),
(1935,-456,c),
(1935,-451,o),
(1934,-444,o),
(1934,-437,cs)
);
},
{
closed = 1;
nodes = (
(1963,-332,o),
(2000,-300,o),
(2032,-300,cs),
(2058,-300,o),
(2069,-314,o),
(2069,-331,cs),
(2069,-350,o),
(2051,-373,o),
(2022,-398,c),
(1994,-393,o),
(1969,-387,o),
(1945,-379,c)
);
},
{
closed = 1;
nodes = (
(2348,-533,o),
(2359,-518,o),
(2382,-508,c),
(2399,-518,o),
(2408,-533,o),
(2408,-547,cs),
(2408,-568,o),
(2395,-580,o),
(2375,-580,cs),
(2360,-580,o),
(2348,-570,o),
(2348,-552,cs)
);
},
{
closed = 1;
nodes = (
(243,186,o),
(277,252,o),
(277,298,cs),
(277,333,o),
(254,356,o),
(223,356,cs),
(138,356,o),
(18,207,o),
(1,94,c),
(-238,-6,o),
(-454,-101,o),
(-454,-247,cs),
(-454,-419,o),
(-278,-466,o),
(-21,-466,cs),
(57,-466,o),
(126,-455,o),
(181,-436,c),
(230,-509,o),
(331,-553,o),
(468,-553,cs),
(750,-553,o),
(930,-402,o),
(1179,-349,c),
(1103,-405,o),
(1060,-470,o),
(1061,-539,cs),
(1061,-619,o),
(1150,-665,o),
(1269,-665,cs),
(1479,-665,o),
(1736,-585,o),
(1907,-494,c),
(1931,-541,o),
(1992,-559,o),
(2043,-559,cs),
(2159,-559,o),
(2210,-490,o),
(2303,-490,cs),
(2331,-490,o),
(2355,-495,o),
(2372,-503,c),
(2349,-514,o),
(2336,-531,o),
(2336,-554,cs),
(2336,-575,o),
(2351,-593,o),
(2378,-593,cs),
(2413,-593,o),
(2433,-574,o),
(2433,-544,cs),
(2433,-526,o),
(2426,-510,o),
(2412,-498,c),
(2442,-491,o),
(2482,-488,o),
(2530,-489,c),
(2530,-482,l),
(2482,-482,o),
(2439,-485,o),
(2406,-492,c),
(2384,-477,o),
(2352,-468,o),
(2309,-469,cs),
(2222,-472,o),
(2166,-542,o),
(2058,-541,cs),
(1998,-540,o),
(1953,-526,o),
(1939,-475,c),
(1974,-454,o),
(2005,-433,o),
(2029,-412,c),
(2077,-420,o),
(2129,-425,o),
(2189,-423,cs),
(2405,-416,o),
(2447,-372,o),
(2447,-323,cs),
(2447,-241,o),
(2259,-170,o),
(1884,-170,cs),
(1616,-170,o),
(1383,-227,o),
(1234,-313,c),
(1018,-338,o),
(744,-501,o),
(511,-501,cs),
(364,-501,o),
(266,-473,o),
(215,-423,c),
(284,-394,o),
(325,-351,o),
(325,-305,cs),
(325,-262,o),
(294,-233,o),
(247,-233,cs),
(202,-233,o),
(151,-265,o),
(151,-333,cs),
(151,-364,o),
(158,-393,o),
(171,-419,c),
(127,-434,o),
(69,-444,o),
(1,-444,cs),
(-233,-446,o),
(-379,-394,o),
(-379,-235,cs),
(-379,-100,o),
(-211,-14,o),
(0,80,c),
(0,69,ls),
(0,8,o),
(40,-12,o),
(76,-12,cs),
(221,-12,o),
(416,173,o),
(580,377,c),
(516,225,o),
(458,78,o),
(425,-12,c),
(432,-12,l),
(577,155,o),
(693,294,o),
(784,410,c),
(729,283,o),
(689,162,o),
(689,90,cs),
(689,32,o),
(733,-12,o),
(793,-12,cs),
(968,-12,o),
(1089,211,o),
(1089,312,cs),
(1089,350,o),
(1067,365,o),
(1043,365,cs),
(989,365,o),
(922,256,o),
(889,171,c),
(899,171,l),
(936,255,o),
(989,308,o),
(1022,308,cs),
(1037,308,o),
(1050,296,o),
(1050,267,cs),
(1050,208,o),
(957,40,o),
(827,40,cs),
(785,40,o),
(761,66,o),
(761,128,cs),
(761,232,o),
(840,413,o),
(905,567,c),
(1057,771,o),
(1104,868,o),
(1104,897,cs),
(1104,906,o),
(1099,912,o),
(1092,912,cs),
(1051,912,o),
(909,687,o),
(808,475,c),
(744,397,o),
(645,270,o),
(551,168,c),
(544,168,l),
(567,235,o),
(634,395,o),
(675,504,c),
(799,678,o),
(894,847,o),
(894,893,cs),
(894,905,o),
(888,912,o),
(878,912,cs),
(832,912,o),
(727,714,o),
(631,501,c),
(456,281,o),
(249,37,o),
(107,45,cs),
(74,47,o),
(53,70,o),
(46,100,c),
(93,120,ls)
);
},
{
closed = 1;
nodes = (
(45,231,o),
(143,300,o),
(205,300,cs),
(230,300,o),
(238,284,o),
(238,266,cs),
(238,243,o),
(218,184,o),
(86,128,cs),
(72,122,o),
(58,117,o),
(45,111,c),
(45,117,ls)
);
}
);
userData = {
com.schriftgestaltung.Glyphs.lastChange = "2025-09-23 10:46:54 +0000";
};
width = 1104;
}
);
},
{
glyphname = N.ss01;
kernLeft = N;
kernRight = N;
layers = (
{
layerId = m01;
shapes = (
{
closed = 1;
nodes = (
(849,805,o),
(881,865,o),
(881,887,cs),
(881,896,o),
(878,899,o),
(873,899,cs),
(846,899,o),
(820,827,o),
(797,727,c)
);
},
{
closed = 1;
nodes = (
(1167,652,o),
(1184,640,o),
(1206,640,cs),
(1280,640,o),
(1327,729,o),
(1327,796,cs),
(1327,801,o),
(1326,806,o),
(1325,811,c),
(1254,764,o),
(1167,737,o),
(1167,679,cs)
);
},
{
closed = 1;
nodes = (
(1266,1040,o),
(1278,1027,o),
(1305,1027,cs),
(1327,1027,o),
(1345,1035,o),
(1362,1047,c),
(1346,1070,o),
(1325,1086,o),
(1300,1086,cs),
(1279,1086,o),
(1266,1073,o),
(1266,1057,cs)
);
},
{
closed = 1;
nodes = (
(1688,1232,o),
(1698,1215,o),
(1719,1210,c),
(1726,1225,o),
(1729,1241,o),
(1729,1254,cs),
(1729,1274,o),
(1720,1283,o),
(1708,1283,cs),
(1696,1283,o),
(1688,1272,o),
(1688,1255,cs)
);
},
{
closed = 1;
nodes = (
(541,300,o),
(269,-12,o),
(76,-12,cs),
(40,-12,o),
(0,8,o),
(0,69,cs),
(0,184,o),
(132,356,o),
(223,356,cs),
(254,356,o),
(277,333,o),
(277,298,cs),
(277,252,o),
(233,204,o),
(152,146,c),
(147,154,l),
(210,198,o),
(238,243,o),
(238,266,cs),
(238,284,o),
(230,300,o),
(205,300,cs),
(143,300,o),
(45,231,o),
(45,117,cs),
(45,79,o),
(68,59,o),
(107,59,cs),
(261,59,o),
(564,401,o),
(742,648,c),
(787,801,o),
(834,912,o),
(878,912,cs),
(888,912,o),
(894,905,o),
(894,893,cs),
(894,861,o),
(851,771,o),
(783,660,c),
(752,513,o),
(728,333,o),
(713,235,c),
(721,235,l),
(1043,707,o),
(1164,911,o),
(1297,911,cs),
(1328,911,o),
(1350,896,o),
(1359,870,c),
(1377,894,o),
(1389,922,o),
(1389,958,cs),
(1389,981,o),
(1383,1005,o),
(1373,1027,c),
(1353,1008,o),
(1332,994,o),
(1308,994,cs),
(1278,994,o),
(1256,1011,o),
(1256,1045,cs),
(1256,1079,o),
(1281,1104,o),
(1313,1104,cs),
(1343,1104,o),
(1367,1089,o),
(1385,1067,c),
(1429,1112,o),
(1465,1178,o),
(1527,1178,cs),
(1554,1178,o),
(1568,1162,o),
(1568,1143,cs),
(1568,1117,o),
(1547,1115,o),
(1547,1096,cs),
(1547,1083,o),
(1557,1076,o),
(1571,1076,cs),
(1615,1076,o),
(1686,1140,o),
(1716,1202,c),
(1685,1209,o),
(1667,1231,o),
(1667,1256,cs),
(1667,1286,o),
(1685,1305,o),
(1706,1305,cs),
(1727,1305,o),
(1739,1291,o),
(1739,1254,cs),
(1739,1240,o),
(1735,1224,o),
(1729,1208,c),
(1734,1208,ls),
(1765,1208,o),
(1801,1225,o),
(1835,1225,cs),
(1862,1225,o),
(1872,1212,o),
(1872,1200,cs),
(1872,1155,o),
(1796,1158,o),
(1796,1127,cs),
(1796,1119,o),
(1801,1112,o),
(1817,1112,cs),
(1842,1112,o),
(1871,1135,o),
(1901,1135,cs),
(1919,1135,o),
(1930,1125,o),
(1930,1111,cs),
(1930,1084,o),
(1894,1091,o),
(1894,1068,cs),
(1894,1057,o),
(1905,1050,o),
(1915,1051,cs),
(1940,1052,o),
(1961,1081,o),
(1984,1081,cs),
(2032,1081,o),
(2002,1024,o),
(2042,1024,cs),
(2052,1024,o),
(2064,1027,o),
(2073,1035,c),
(2073,1027,l),
(2063,1020,o),
(2053,1012,o),
(2038,1012,cs),
(1998,1012,o),
(2030,1067,o),
(1974,1067,cs),
(1953,1067,o),
(1922,1040,o),
(1902,1040,cs),
(1882,1040,o),
(1876,1050,o),
(1876,1058,cs),
(1876,1086,o),
(1917,1085,o),
(1917,1104,cs),
(1917,1115,o),
(1908,1122,o),
(1890,1122,cs),
(1855,1122,o),
(1815,1090,o),
(1785,1090,cs),
(1769,1090,o),
(1762,1099,o),
(1762,1110,cs),
(1762,1148,o),
(1842,1151,o),
(1842,1188,cs),
(1842,1200,o),
(1832,1211,o),
(1816,1211,cs),
(1783,1211,o),
(1762,1198,o),
(1735,1200,cs),
(1725,1201,l),
(1689,1122,o),
(1590,1036,o),
(1533,1037,cs),
(1513,1037,o),
(1503,1050,o),
(1503,1069,cs),
(1503,1107,o),
(1549,1105,o),
(1549,1135,cs),
(1549,1153,o),
(1534,1164,o),
(1515,1164,cs),
(1472,1164,o),
(1436,1101,o),
(1395,1051,c),
(1410,1025,o),
(1419,992,o),
(1419,962,cs),
(1419,909,o),
(1396,870,o),
(1364,841,c),
(1364,840,ls),
(1364,724,o),
(1267,611,o),
(1189,611,cs),
(1165,611,o),
(1140,626,o),
(1140,662,cs),
(1140,740,o),
(1243,771,o),
(1317,828,c),
(1308,839,o),
(1295,846,o),
(1279,846,cs),
(1140,846,o),
(1036,648,o),
(592,-12,c),
(582,-12,l),
(621,150,o),
(667,374,o),
(717,559,c)
);
}
);
userData = {
com.schriftgestaltung.Glyphs.lastChange = "2025-09-23 10:46:54 +0000";
};
width = 809;
}
);
},
